<svg width="40.399902" height="40.000000" viewBox="0 0 40.3999 40" fill="none" xmlns="http://www.w3.org/2000/svg" xmlns:xlink="http://www.w3.org/1999/xlink">
	<desc>
			Created with Pixso.
	</desc>
	<defs>
		<clipPath id="clip6_76173">
			<rect id="Yandex_Zen_logo_icon 1" width="21.000084" height="21.000084" transform="translate(10.199219 9.999512)" fill="white" fill-opacity="0"/>
		</clipPath>
	</defs>
	<rect id="socials" width="40.400002" height="40.000000" fill="#FFFFFF" fill-opacity="0"/>
	<path id="Subtract" d="M20.7036 9.99951L20.6992 9.99951L20.6948 9.99951L20.7036 9.99951ZM20.812 10.0001C20.9541 14.6497 21.0742 16.7721 22.7241 18.4745C24.4268 20.1245 26.5493 20.2371 31.1987 20.3871C31.1387 14.6774 26.5215 10.0601 20.812 10.0001ZM31.1987 20.6121C26.5493 20.7545 24.4268 20.8746 22.7241 22.5245C21.0742 24.2271 20.9619 26.3494 20.812 30.999C26.5215 30.9391 31.1387 26.3218 31.1987 20.6121ZM20.5869 30.999C20.4443 26.3494 20.3242 24.2271 18.6743 22.5245C16.9717 20.8746 14.8496 20.7621 10.1997 20.6121C10.2598 26.3218 14.877 30.9391 20.5869 30.999ZM10.1992 20.5027L10.1992 20.4965L10.1992 20.4995L10.1992 20.5027ZM10.1997 20.3871C14.8496 20.2445 16.9717 20.1245 18.6743 18.4745C20.3242 16.7721 20.4365 14.6497 20.5869 10.0001C14.877 10.0601 10.2598 14.6774 10.1997 20.3871Z" clip-rule="evenodd" fill="#2C3036" fill-opacity="1.000000" fill-rule="evenodd"/>
</svg>
