<svg width="40.399902" height="40.000000" viewBox="0 0 40.3999 40" fill="none" xmlns="http://www.w3.org/2000/svg" xmlns:xlink="http://www.w3.org/1999/xlink">
	<desc>
			Created with Pixso.
	</desc>
	<defs/>
	<rect id="socials" width="40.400002" height="40.000000" fill="#FFFFFF" fill-opacity="0"/>
	<path id="Vector" d="M32 20.1287L32 19.8713C26.6855 19.7 24.2598 19.5715 22.3145 17.6858C20.4287 15.74 20.2915 13.3142 20.1284 8L19.8716 8C19.7002 13.3142 19.5713 15.74 17.6855 17.6858C15.7402 19.5715 13.3145 19.7085 8 19.8713L8 20.1287C13.3145 20.3 15.7402 20.4285 17.6855 22.3142C19.5713 24.26 19.7085 26.6858 19.8716 32L20.1284 32C20.2998 26.6858 20.4287 24.26 22.3145 22.3142C24.2598 20.4285 26.6855 20.2915 32 20.1287Z" fill="#FFFFFF" fill-opacity="1.000000" fill-rule="nonzero"/>
</svg>
