<svg width="40.399902" height="40.000000" viewBox="0 0 40.3999 40" fill="none" xmlns="http://www.w3.org/2000/svg" xmlns:xlink="http://www.w3.org/1999/xlink">
	<desc>
			Created with Pixso.
	</desc>
	<defs/>
	<path id="Vector" d="M19.9971 16.665C18.1611 16.665 16.6626 18.1636 16.6626 19.9998C16.6626 21.8359 18.1611 23.3345 19.9971 23.3345C21.8335 23.3345 23.332 21.8359 23.332 19.9998C23.332 18.1636 21.8335 16.665 19.9971 16.665ZM29.999 19.9998C29.999 18.6189 30.0112 17.2505 29.9341 15.8721C29.8564 14.271 29.4912 12.8501 28.3203 11.6794C27.147 10.5061 25.7285 10.1433 24.1274 10.0657C22.7466 9.98828 21.3784 10.0007 20 10.0007C18.6191 10.0007 17.2505 9.98828 15.8721 10.0657C14.271 10.1433 12.8501 10.5085 11.6792 11.6794C10.5059 12.8525 10.1436 14.271 10.0659 15.8721C9.98828 17.2529 10.001 18.6213 10.001 19.9998C10.001 21.3782 9.98828 22.749 10.0659 24.1274C10.1436 25.7285 10.5088 27.1494 11.6792 28.3203C12.8525 29.4937 14.271 29.8562 15.8721 29.9338C17.2529 30.0115 18.6216 29.9988 20 29.9988C21.3809 29.9988 22.749 30.0115 24.1274 29.9338C25.7285 29.8562 27.1494 29.491 28.3203 28.3203C29.4937 27.147 29.8564 25.7285 29.9341 24.1274C30.0137 22.749 29.999 21.3806 29.999 19.9998ZM19.9971 25.1306C17.1577 25.1306 14.8662 22.8391 14.8662 19.9998C14.8662 17.1604 17.1577 14.8689 19.9971 14.8689C22.8369 14.8689 25.1284 17.1604 25.1284 19.9998C25.1284 22.8391 22.8369 25.1306 19.9971 25.1306ZM25.3384 15.8572C24.6753 15.8572 24.1401 15.3218 24.1401 14.6587C24.1401 13.9958 24.6753 13.4604 25.3384 13.4604C26.0015 13.4604 26.5366 13.9958 26.5366 14.6587C26.5366 14.8162 26.5059 14.9722 26.4458 15.1177C26.3857 15.2632 26.2974 15.3953 26.186 15.5066C26.0747 15.6179 25.9424 15.7061 25.7974 15.7664C25.6519 15.8264 25.4956 15.8572 25.3384 15.8572Z" fill="#FFFFFF" fill-opacity="1.000000" fill-rule="evenodd"/>
</svg>
