<svg width="40.000000" height="40.000000" viewBox="0 0 40 40" fill="none" xmlns="http://www.w3.org/2000/svg" xmlns:xlink="http://www.w3.org/1999/xlink">
	<desc>
			Created with Pixso.
	</desc>
	<defs>
		<radialGradient id="paint_radial_6_76161_0" cx="0.000000" cy="0.000000" r="1.000000" gradientUnits="userSpaceOnUse" gradientTransform="translate(30.1017 10.4062) rotate(0) scale(45.7286 45.2767)">
			<stop stop-color="#F9ED32"/>
			<stop offset="0.360000" stop-color="#EE2A7B"/>
			<stop offset="0.440000" stop-color="#D22A8A"/>
			<stop offset="0.600000" stop-color="#8B2AB2"/>
			<stop offset="0.830000" stop-color="#1B2AF0"/>
			<stop offset="0.880000" stop-color="#002AFF"/>
		</radialGradient>
	</defs>
	<rect id="socials" width="40.000000" height="40.000000" fill="#FFFFFF" fill-opacity="0"/>
	<path id="Vector" d="M19.7998 16.6652C17.9814 16.6652 16.498 18.1636 16.498 19.9998C16.498 21.8361 17.9814 23.3345 19.7998 23.3345C21.6177 23.3345 23.1016 21.8361 23.1016 19.9998C23.1016 18.1636 21.6177 16.6652 19.7998 16.6652ZM29.7021 19.9998C29.7021 18.6189 29.7148 17.2505 29.6377 15.8721C29.561 14.271 29.1992 12.8501 28.04 11.6793C26.8784 10.5061 25.4741 10.1433 23.8892 10.0658C22.522 9.98828 21.167 10.0007 19.8022 10.0007C18.4351 10.0007 17.0801 9.98828 15.7153 10.0658C14.1304 10.1433 12.7231 10.5085 11.564 11.6793C10.4023 12.8527 10.0435 14.271 9.96631 15.8721C9.88965 17.2531 9.90234 18.6215 9.90234 19.9998C9.90234 21.3782 9.88965 22.7491 9.96631 24.1276C10.0435 25.7286 10.4048 27.1495 11.564 28.3203C12.7256 29.4935 14.1304 29.8563 15.7153 29.9338C17.0825 30.0114 18.4375 29.9989 19.8022 29.9989C21.1694 29.9989 22.5244 30.0114 23.8892 29.9338C25.4741 29.8563 26.8809 29.4911 28.04 28.3203C29.2021 27.147 29.561 25.7286 29.6377 24.1276C29.7173 22.7491 29.7021 21.3807 29.7021 19.9998ZM19.7998 25.1307C16.9883 25.1307 14.7197 22.8392 14.7197 19.9998C14.7197 17.1604 16.9883 14.8689 19.7998 14.8689C22.6108 14.8689 24.8799 17.1604 24.8799 19.9998C24.8799 22.8392 22.6108 25.1307 19.7998 25.1307ZM25.0879 15.8571C24.4316 15.8571 23.9014 15.3218 23.9014 14.6588C23.9014 13.9958 24.4316 13.4606 25.0879 13.4606C25.7441 13.4606 26.2744 13.9958 26.2744 14.6588C26.2744 14.8162 26.2437 14.9722 26.1846 15.1176C26.125 15.2631 26.0376 15.3953 25.9272 15.5066C25.8169 15.6179 25.686 15.7062 25.542 15.7662C25.3979 15.8264 25.2437 15.8573 25.0879 15.8571Z" fill="#FFFFFF" fill-opacity="1.000000" fill-rule="evenodd"/>
	<path id="Vector" d="M19.7998 16.6652C17.9814 16.6652 16.498 18.1636 16.498 19.9998C16.498 21.8361 17.9814 23.3345 19.7998 23.3345C21.6177 23.3345 23.1016 21.8361 23.1016 19.9998C23.1016 18.1636 21.6177 16.6652 19.7998 16.6652ZM29.7021 19.9998C29.7021 18.6189 29.7148 17.2505 29.6377 15.8721C29.561 14.271 29.1992 12.8501 28.04 11.6793C26.8784 10.5061 25.4741 10.1433 23.8892 10.0658C22.522 9.98828 21.167 10.0007 19.8022 10.0007C18.4351 10.0007 17.0801 9.98828 15.7153 10.0658C14.1304 10.1433 12.7231 10.5085 11.564 11.6793C10.4023 12.8527 10.0435 14.271 9.96631 15.8721C9.88965 17.2531 9.90234 18.6215 9.90234 19.9998C9.90234 21.3782 9.88965 22.7491 9.96631 24.1276C10.0435 25.7286 10.4048 27.1495 11.564 28.3203C12.7256 29.4935 14.1304 29.8563 15.7153 29.9338C17.0825 30.0114 18.4375 29.9989 19.8022 29.9989C21.1694 29.9989 22.5244 30.0114 23.8892 29.9338C25.4741 29.8563 26.8809 29.4911 28.04 28.3203C29.2021 27.147 29.561 25.7286 29.6377 24.1276C29.7173 22.7491 29.7021 21.3807 29.7021 19.9998ZM19.7998 25.1307C16.9883 25.1307 14.7197 22.8392 14.7197 19.9998C14.7197 17.1604 16.9883 14.8689 19.7998 14.8689C22.6108 14.8689 24.8799 17.1604 24.8799 19.9998C24.8799 22.8392 22.6108 25.1307 19.7998 25.1307ZM25.0879 15.8571C24.4316 15.8571 23.9014 15.3218 23.9014 14.6588C23.9014 13.9958 24.4316 13.4606 25.0879 13.4606C25.7441 13.4606 26.2744 13.9958 26.2744 14.6588C26.2744 14.8162 26.2437 14.9722 26.1846 15.1176C26.125 15.2631 26.0376 15.3953 25.9272 15.5066C25.8169 15.6179 25.686 15.7062 25.542 15.7662C25.3979 15.8264 25.2437 15.8573 25.0879 15.8571Z" fill="url(#paint_radial_6_76161_0)" fill-opacity="1.000000" fill-rule="evenodd"/>
</svg>
