<svg width="41" height="40" viewBox="0 0 41 40" fill="none" xmlns="http://www.w3.org/2000/svg">
<rect x="0.399902" width="40.4" height="40" rx="20" fill="#0077FF"/>
<path d="M21.5922 28C14.0005 28 9.67029 22.7447 9.48987 14H13.2927C13.4176 20.4184 16.2211 23.1371 18.4417 23.6977V14H22.0224V19.5355C24.2153 19.2973 26.5192 16.7748 27.2964 14H30.8771C30.5843 15.4391 30.0005 16.8017 29.1623 18.0025C28.324 19.2033 27.2494 20.2166 26.0057 20.979C27.394 21.6756 28.6203 22.6615 29.6035 23.8717C30.5868 25.082 31.3047 26.489 31.7099 28H27.7683C27.4046 26.6876 26.6653 25.5128 25.6432 24.6228C24.6211 23.7328 23.3615 23.1673 22.0224 22.997V28H21.5922Z" fill="white"/>
</svg>
