<svg width="40.399902" height="40.000000" viewBox="0 0 40.3999 40" fill="none" xmlns="http://www.w3.org/2000/svg" xmlns:xlink="http://www.w3.org/1999/xlink">
	<desc>
			Created with Pixso.
	</desc>
	<defs/>
	<path id="Vector" d="M21.1929 28C13.6011 28 9.271 22.7448 9.09033 14L12.8931 14C13.0181 20.4185 15.8218 23.1371 18.042 23.6978L18.042 14L21.623 14L21.623 19.5355C23.8159 19.2972 26.1196 16.7748 26.897 14L30.4775 14C30.1846 15.4391 29.6011 16.8016 28.7627 18.0024C27.9243 19.2034 26.8501 20.2167 25.606 20.979C26.9946 21.6755 28.2207 22.6615 29.2041 23.8717C30.187 25.082 30.9053 26.489 31.3105 28L27.3687 28C27.0049 26.6876 26.2656 25.5128 25.2437 24.6228C24.2217 23.7328 22.9619 23.1672 21.623 22.9969L21.623 28L21.1929 28Z" fill="#FFFFFF" fill-opacity="1.000000" fill-rule="nonzero"/>
</svg>
