<svg width="41" height="40" viewBox="0 0 41 40" fill="none" xmlns="http://www.w3.org/2000/svg">
<rect x="0.000244141" width="40.4" height="40" rx="20" fill="#48C95F"/>
<path d="M28.2063 12.0625C26.211 10.0937 23.5505 9 20.7422 9C14.9039 9 10.1742 13.6667 10.1742 19.4271C10.1742 21.25 10.6915 23.0729 11.5783 24.6042L10.1003 30L15.7168 28.5417C17.2688 29.3438 18.9685 29.7812 20.7422 29.7812C26.5805 29.7812 31.3103 25.1146 31.3103 19.3542C31.2363 16.6563 30.2017 14.0312 28.2063 12.0625ZM25.8415 23.1458C25.6198 23.7292 24.5851 24.3125 24.0678 24.3854C23.6244 24.4583 23.0332 24.4583 22.442 24.3125C22.0724 24.1667 21.5551 24.0208 20.9639 23.7292C18.3034 22.6354 16.6037 20.0104 16.4559 19.7917C16.3081 19.6458 15.3473 18.4062 15.3473 17.0937C15.3473 15.7812 16.0124 15.1979 16.2342 14.9062C16.4559 14.6146 16.7515 14.6146 16.9732 14.6146C17.121 14.6146 17.3427 14.6146 17.4905 14.6146C17.6383 14.6146 17.86 14.5417 18.0817 15.0521C18.3034 15.5625 18.8207 16.875 18.8946 16.9479C18.9685 17.0938 18.9685 17.2396 18.8946 17.3854C18.8207 17.5312 18.7468 17.6771 18.599 17.8229C18.4512 17.9687 18.3034 18.1875 18.2295 18.2604C18.0817 18.4062 17.9339 18.5521 18.0817 18.7708C18.2295 19.0625 18.7468 19.8646 19.5598 20.5937C20.5944 21.4687 21.4073 21.7604 21.7029 21.9063C21.9985 22.0521 22.1463 21.9792 22.2942 21.8333C22.442 21.6875 22.9593 21.1042 23.1071 20.8125C23.2549 20.5208 23.4766 20.5938 23.6983 20.6667C23.92 20.7396 25.2502 21.3958 25.472 21.5417C25.7676 21.6875 25.9154 21.7604 25.9893 21.8333C26.0632 22.0521 26.0632 22.5625 25.8415 23.1458Z" fill="white"/>
</svg>
