<svg width="40.000000" height="40.000000" viewBox="0 0 40 40" fill="none" xmlns="http://www.w3.org/2000/svg" xmlns:xlink="http://www.w3.org/1999/xlink">
	<desc>
			Created with Pixso.
	</desc>
	<defs/>
	<path id="Vector" d="M27.9268 12.0625C25.9512 10.0938 23.3169 9 20.5366 9C14.7559 9 10.0732 13.6666 10.0732 19.4271C10.0732 21.25 10.5854 23.0729 11.4634 24.6041L10 30L15.561 28.5416C17.0977 29.3438 18.7803 29.7812 20.5366 29.7812C26.3169 29.7812 31 25.1146 31 19.3541C30.9268 16.6562 29.9023 14.0312 27.9268 12.0625ZM25.5854 23.1459C25.3657 23.7291 24.3413 24.3125 23.8291 24.3854C23.3901 24.4584 22.8047 24.4584 22.2197 24.3125C21.8535 24.1666 21.3413 24.0209 20.7559 23.7291C18.1221 22.6354 16.439 20.0104 16.2925 19.7916C16.1465 19.6459 15.1953 18.4062 15.1953 17.0938C15.1953 15.7812 15.8535 15.1979 16.0732 14.9062C16.2925 14.6146 16.5854 14.6146 16.8047 14.6146C16.9512 14.6146 17.1709 14.6146 17.3169 14.6146C17.4634 14.6146 17.6831 14.5416 17.9023 15.0521C18.1221 15.5625 18.6343 16.875 18.7075 16.9479C18.7803 17.0938 18.7803 17.2396 18.7075 17.3854C18.6343 17.5312 18.561 17.6771 18.4146 17.8229C18.2681 17.9688 18.1221 18.1875 18.0488 18.2604C17.9023 18.4062 17.7559 18.5521 17.9023 18.7709C18.0488 19.0625 18.561 19.8646 19.3657 20.5938C20.3901 21.4688 21.1953 21.7604 21.4878 21.9062C21.7803 22.0521 21.9268 21.9791 22.0732 21.8334C22.2197 21.6875 22.7319 21.1041 22.8779 20.8125C23.0244 20.5209 23.2441 20.5938 23.4634 20.6666C23.6831 20.7396 25 21.3959 25.2197 21.5416C25.5122 21.6875 25.6587 21.7604 25.7319 21.8334C25.8047 22.0521 25.8047 22.5625 25.5854 23.1459Z" fill="#48C95F" fill-opacity="1.000000" fill-rule="nonzero"/>
</svg>
