<svg width="40.399902" height="40.000000" viewBox="0 0 40.3999 40" fill="none" xmlns="http://www.w3.org/2000/svg" xmlns:xlink="http://www.w3.org/1999/xlink">
	<desc>
			Created with Pixso.
	</desc>
	<defs/>
	<path id="Vector" d="M11.3755 27.0569C10.9795 26.9407 10.6177 26.7344 10.3213 26.4548C10.0254 26.1755 9.80273 25.8313 9.67285 25.4512C8.93164 23.4873 8.71191 15.2869 10.1396 13.668C10.6152 13.1414 11.2861 12.8171 12.0068 12.7659C15.8374 12.3677 27.6719 12.4207 29.0308 12.8984C29.4131 13.0183 29.7627 13.2202 30.0527 13.489C30.3428 13.7581 30.5659 14.0869 30.7061 14.4509C31.5161 16.4812 31.5435 23.8589 30.5962 25.8096C30.3447 26.3171 29.9243 26.7285 29.4019 26.9773C27.9736 27.6672 13.27 27.6541 11.3755 27.0569ZM17.4575 23.2087L24.3218 19.7588L17.4575 16.2822L17.4575 23.2087Z" fill="#FFFFFF" fill-opacity="1.000000" fill-rule="evenodd"/>
</svg>
