<svg width="41" height="40" viewBox="0 0 41 40" fill="none" xmlns="http://www.w3.org/2000/svg">
<rect width="40.4" height="40" rx="20" fill="#F40000"/>
<path fill-rule="evenodd" clip-rule="evenodd" d="M11.3751 27.0568C10.9789 26.9408 10.6174 26.7343 10.3211 26.4549C10.0249 26.1754 9.80245 25.8312 9.67271 25.4512C8.93135 23.4874 8.71168 15.2869 10.1395 13.6681C10.6147 13.1414 11.2856 12.8172 12.0066 12.7658C15.837 12.3677 27.6714 12.4208 29.0306 12.8985C29.4129 13.0183 29.7622 13.2203 30.0522 13.4891C30.3423 13.758 30.5657 14.0868 30.7056 14.451C31.5156 16.4812 31.543 23.8589 30.5957 25.8095C30.3444 26.3173 29.9237 26.7285 29.4013 26.9772C27.9735 27.6672 13.2697 27.6539 11.3751 27.0568ZM17.4571 23.2087L24.3216 19.7587L17.4571 16.2821V23.2087Z" fill="white"/>
</svg>
