<svg width="24" height="24" fill="none" xmlns="http://www.w3.org/2000/svg"><path fill-rule="evenodd" clip-rule="evenodd" d="M14.77 2h-3.745c-1.696 0-3.04 0-4.092.142-1.082.147-1.958.456-2.649 1.152-.69.697-.997 1.58-1.143 2.67C3 7.024 3 8.378 3 10.087v5.634c0 .831.294 1.635.83 2.267a3.455 3.455 0 002.092 1.18c.127.71.372 1.317.86 1.81.556.56 1.256.8 2.087.914.8.108 1.818.108 3.08.108h2.871c1.262 0 2.28 0 3.08-.108.831-.113 1.53-.353 2.087-.913.555-.56.793-1.265.906-2.103.107-.806.107-1.832.107-3.104V11.02c0-1.272 0-2.298-.107-3.105-.113-.837-.35-1.542-.907-2.102-.49-.493-1.091-.74-1.797-.867a3.496 3.496 0 00-1.17-2.108A3.447 3.447 0 0014.768 2zm1.965 2.81a2.092 2.092 0 00-.758-1.025 2.066 2.066 0 00-1.208-.39h-3.692c-1.76 0-3.01.002-3.96.13-.928.126-1.463.362-1.854.756-.39.393-.625.933-.75 1.869-.127.956-.128 2.216-.128 3.99v5.58c0 .437.135.863.386 1.219.252.355.608.622 1.018.763-.02-.567-.02-1.209-.02-1.93V11.02c0-1.272 0-2.298.108-3.105.111-.837.351-1.542.906-2.102.555-.56 1.255-.8 2.086-.912.8-.11 1.818-.11 3.08-.11h2.871c.715 0 1.352 0 1.915.02zM7.761 6.8c.256-.258.614-.425 1.293-.517.696-.094 1.62-.096 2.945-.096h2.77c1.324 0 2.248.002 2.946.096.677.092 1.035.26 1.291.517.256.258.422.619.513 1.302.094.702.096 1.634.096 2.969v4.65c0 1.336-.002 2.267-.096 2.97-.091.683-.258 1.044-.513 1.302-.256.257-.614.425-1.292.517-.697.094-1.621.096-2.946.096H12c-1.325 0-2.25-.002-2.946-.096-.678-.092-1.036-.26-1.292-.517-.255-.258-.422-.619-.513-1.303-.093-.702-.095-1.633-.095-2.968V11.07c0-1.335.002-2.267.095-2.97.091-.682.258-1.043.513-1.301z" fill="#0E0E0E"/></svg>