<svg width="24" height="25" viewBox="0 0 24 25" fill="none" xmlns="http://www.w3.org/2000/svg">
<path fill-rule="evenodd" clip-rule="evenodd" d="M17.9108 2.02244L21.8699 9.00562C22.2509 9.67768 21.7497 10.5 20.9591 10.5H13.0409C12.2503 10.5 11.7491 9.67768 12.1301 9.00562L16.0892 2.02244C16.4841 1.32585 17.5159 1.32585 17.9108 2.02244ZM17 3.75C17.4142 3.75 17.75 4.08579 17.75 4.5V6.5C17.75 6.91421 17.4142 7.25 17 7.25C16.5858 7.25 16.25 6.91421 16.25 6.5V4.5C16.25 4.08579 16.5858 3.75 17 3.75ZM17 7.75C16.5858 7.75 16.25 8.08579 16.25 8.5C16.25 8.91421 16.5858 9.25 17 9.25H17.01C17.4242 9.25 17.76 8.91421 17.76 8.5C17.76 8.08579 17.4242 7.75 17.01 7.75H17Z" fill="#0E0E0E"/>
<path fill-rule="evenodd" clip-rule="evenodd" d="M6 2.5H14.0942L10.8253 8.26583C9.8387 10.006 11.1802 12 13.041 12H20V20.5C20 21.6046 19.1046 22.5 18 22.5H6C4.89543 22.5 4 21.6046 4 20.5V4.5C4 3.39543 4.89543 2.5 6 2.5ZM9 18.75C8.58579 18.75 8.25 19.0858 8.25 19.5C8.25 19.9142 8.58579 20.25 9 20.25H15C15.4142 20.25 15.75 19.9142 15.75 19.5C15.75 19.0858 15.4142 18.75 15 18.75H9Z" fill="#0E0E0E"/>
</svg>
