<svg width="24" height="24" viewBox="0 0 24 24" fill="none" xmlns="http://www.w3.org/2000/svg">
<path fill-rule="evenodd" clip-rule="evenodd" d="M20 14.381C20 18.5888 16.4183 22 12 22C7.58172 22 4 18.5888 4 14.381C4 10.1731 10 2 12 2C14 2 20 10.1731 20 14.381ZM16.735 14.1492C16.8174 13.7433 16.5551 13.3474 16.1492 13.265C15.7433 13.1826 15.3474 13.4449 15.265 13.8508C14.917 15.565 13.565 16.917 11.8508 17.265C11.4449 17.3474 11.1826 17.7433 11.265 18.1492C11.3474 18.5551 11.7433 18.8174 12.1492 18.735C14.4538 18.2672 16.2672 16.4538 16.735 14.1492Z" fill="#0E0E0E"/>
</svg>
