<svg width="210" height="210" viewBox="0 0 210 210" fill="none" xmlns="http://www.w3.org/2000/svg">
<rect width="210" height="210" fill="white"/>
<path d="M93.5587 72.3273C93.8884 71.2197 94.6445 70.2884 95.6608 69.7384C96.6771 69.1883 97.8703 69.0645 98.9779 69.3942L169.972 90.5269C171.08 90.8566 172.011 91.6127 172.561 92.629C173.111 93.6453 173.235 94.8385 172.905 95.9461L155.502 154.412C155.172 155.52 154.416 156.451 153.4 157.001C152.384 157.551 151.19 157.675 150.083 157.345L79.0884 136.213C77.9808 135.883 77.0495 135.127 76.4995 134.11C75.9494 133.094 75.8256 131.901 76.1553 130.793L93.5587 72.3273Z" stroke="#D7D7D7" stroke-width="10" stroke-linecap="round" stroke-linejoin="round"/>
<g clip-path="url(#clip0_8697_71881)">
<rect x="22" y="61.0657" width="105.862" height="100.472" rx="15" transform="rotate(-15 22 61.0657)" fill="white"/>
<path d="M38.1604 79.2901C37.8614 78.1738 38.0179 76.9845 38.5957 75.9837C39.1735 74.9829 40.1252 74.2527 41.2415 73.9536L112.79 54.7821C113.907 54.483 115.096 54.6396 116.097 55.2174C117.098 55.7952 117.828 56.7469 118.127 57.8631L133.915 116.786C134.214 117.902 134.058 119.091 133.48 120.092C132.902 121.093 131.95 121.823 130.834 122.122L59.2852 141.294C58.169 141.593 56.9797 141.436 55.9789 140.858C54.9781 140.281 54.2478 139.329 53.9487 138.213L38.1604 79.2901Z" stroke="#D7D7D7" stroke-width="10" stroke-linecap="round" stroke-linejoin="round"/>
<path d="M62.6631 90.7685C63.5003 90.5442 64.2141 89.9965 64.6474 89.2459C65.0808 88.4953 65.1982 87.6033 64.9739 86.7661C64.7496 85.9289 64.2019 85.2152 63.4513 84.7818C62.7007 84.3485 61.8087 84.231 60.9715 84.4553C60.1343 84.6797 59.4206 85.2274 58.9872 85.978C58.5539 86.7285 58.4364 87.6205 58.6607 88.4577C58.8851 89.2949 59.4328 90.0087 60.1834 90.442C60.9339 90.8754 61.8259 90.9928 62.6631 90.7685Z" stroke="#D7D7D7" stroke-width="8.71447" stroke-linecap="round" stroke-linejoin="round"/>
<path d="M67.0987 103.113L79.8761 108.711L88.5553 90.5971L131.66 108.368L133.916 116.786C134.215 117.902 134.058 119.091 133.48 120.092C132.902 121.093 131.951 121.823 130.835 122.122L59.2855 141.294C58.1693 141.593 56.98 141.436 55.9792 140.859C54.9784 140.281 54.2481 139.329 53.949 138.213L51.6936 129.795L67.0987 103.113Z" stroke="#D7D7D7" stroke-width="10" stroke-linejoin="round"/>
</g>
<defs>
<clipPath id="clip0_8697_71881">
<rect x="22" y="61.0657" width="105.862" height="100.472" rx="15" transform="rotate(-15 22 61.0657)" fill="white"/>
</clipPath>
</defs>
</svg>
