<svg width="185" height="58" viewBox="0 0 185 58" fill="none" xmlns="http://www.w3.org/2000/svg">
<path d="M69.9704 48.1158C80.5533 48.1158 89.0863 39.5828 89.0863 28.9999C89.0863 18.4171 80.5533 9.88403 69.9704 9.88403C59.3876 9.88403 50.8545 18.4171 50.8545 28.9999C50.7592 39.5828 59.4352 48.1158 69.9704 48.1158Z" fill="#FED42B"/>
<path d="M29.1159 48.1158C39.6733 48.1158 48.2318 39.5574 48.2318 28.9999C48.2318 18.4425 39.6733 9.88403 29.1159 9.88403C18.5585 9.88403 10 18.4425 10 28.9999C10 39.5574 18.5585 48.1158 29.1159 48.1158Z" fill="#FC3F1D"/>
<path d="M31.8817 20.6098H29.9749C26.6856 20.6098 25.0172 22.2783 25.0172 24.8048C25.0172 27.6174 26.1613 28.9998 28.5925 30.6683L30.4993 32.0508L25.0172 40.5838H20.5361L25.7799 32.8135C22.729 30.6683 21.0605 28.6185 21.0605 25.0432C21.0605 20.5621 24.1114 17.5112 29.9749 17.5112H35.8384V40.4408H32.0247V20.5621H31.8817V20.6098Z" fill="white"/>
<mask id="mask0_9466_5963" style="mask-type:luminance" maskUnits="userSpaceOnUse" x="50" y="9" width="40" height="40">
<path d="M69.9675 48.1158C80.5504 48.1158 89.0834 39.5828 89.0834 28.9999C89.0834 18.4171 80.5504 9.88403 69.9675 9.88403C59.3846 9.88403 50.8516 18.4171 50.8516 28.9999C50.7563 39.5828 59.4323 48.1158 69.9675 48.1158Z" fill="white"/>
</mask>
<g mask="url(#mask0_9466_5963)">
<path d="M60.5777 20.3716L43.75 42.3954L48.231 47.4961L60.7207 30.9544L59.4336 40.0119L66.4412 42.443L74.9742 28.8093C74.5929 31.3358 73.9731 37.1993 79.5506 39.0108C88.322 41.6803 95.997 25.9014 99.5246 17.8927L94.4238 15.2231C90.4672 23.5178 84.3653 32.6706 81.9341 32.0509C79.5029 31.4311 81.6958 23.6608 83.0782 18.6554V18.5124L75.3079 15.8429L66.0122 31.0021L67.2993 22.7074L60.5777 20.3716Z" fill="black"/>
</g>
<path d="M100.246 26.5V17.7727H101.043V21.7741H105.994V17.7727H106.791V26.5H105.994V22.4901H101.043V26.5H100.246ZM110.776 26.6491C110.381 26.6491 110.02 26.5724 109.693 26.419C109.366 26.2628 109.107 26.0384 108.913 25.7457C108.72 25.4503 108.624 25.0923 108.624 24.6719C108.624 24.348 108.685 24.0753 108.807 23.8537C108.929 23.6321 109.102 23.4503 109.327 23.3082C109.551 23.1662 109.817 23.054 110.124 22.9716C110.43 22.8892 110.768 22.8253 111.138 22.7798C111.504 22.7344 111.814 22.6946 112.067 22.6605C112.322 22.6264 112.517 22.5724 112.651 22.4986C112.784 22.4247 112.851 22.3054 112.851 22.1406V21.9872C112.851 21.5412 112.717 21.1903 112.45 20.9347C112.186 20.6761 111.805 20.5469 111.308 20.5469C110.837 20.5469 110.452 20.6506 110.153 20.858C109.858 21.0653 109.651 21.3097 109.531 21.5909L108.811 21.331C108.959 20.973 109.163 20.6875 109.425 20.4744C109.686 20.2585 109.979 20.1037 110.303 20.0099C110.626 19.9134 110.955 19.8651 111.287 19.8651C111.537 19.8651 111.797 19.8977 112.067 19.9631C112.34 20.0284 112.592 20.142 112.825 20.304C113.058 20.4631 113.247 20.6861 113.392 20.973C113.537 21.2571 113.609 21.6179 113.609 22.0554V26.5H112.851V25.4645H112.804C112.713 25.6577 112.578 25.8452 112.399 26.027C112.22 26.2088 111.996 26.358 111.726 26.4744C111.456 26.5909 111.139 26.6491 110.776 26.6491ZM110.878 25.9545C111.281 25.9545 111.631 25.8651 111.926 25.6861C112.222 25.5071 112.449 25.2699 112.608 24.9744C112.77 24.6761 112.851 24.348 112.851 23.9901V23.044C112.794 23.098 112.699 23.1463 112.565 23.1889C112.435 23.2315 112.283 23.2699 112.109 23.304C111.939 23.3352 111.768 23.3622 111.598 23.3849C111.428 23.4077 111.274 23.4276 111.138 23.4446C110.768 23.4901 110.453 23.5611 110.192 23.6577C109.93 23.7543 109.73 23.8878 109.591 24.0582C109.452 24.2259 109.382 24.4418 109.382 24.706C109.382 25.1037 109.524 25.4119 109.808 25.6307C110.092 25.8466 110.449 25.9545 110.878 25.9545ZM115.627 19.9545H116.386V25.7841H119.07V19.9545H119.829V25.7841H122.514V19.9545H123.272V26.5H115.627V19.9545ZM128.658 28.9545V19.9545H129.396V21.2031H129.485C129.576 21.0071 129.701 20.8068 129.86 20.6023C130.019 20.3949 130.229 20.2202 130.491 20.0781C130.755 19.9361 131.087 19.8651 131.488 19.8651C132.028 19.8651 132.499 20.0071 132.903 20.2912C133.309 20.5724 133.624 20.9673 133.849 21.4759C134.076 21.9815 134.19 22.571 134.19 23.2443C134.19 23.9205 134.076 24.5128 133.849 25.0213C133.624 25.5298 133.309 25.9261 132.903 26.2102C132.499 26.4943 132.031 26.6364 131.496 26.6364C131.102 26.6364 130.771 26.5653 130.504 26.4233C130.239 26.2812 130.025 26.1065 129.86 25.8991C129.698 25.6889 129.573 25.4844 129.485 25.2855H129.417V28.9545H128.658ZM129.408 23.2315C129.408 23.7599 129.487 24.2287 129.643 24.6378C129.802 25.044 130.029 25.3636 130.325 25.5966C130.623 25.8267 130.984 25.9418 131.407 25.9418C131.842 25.9418 132.208 25.8224 132.506 25.5838C132.808 25.3423 133.036 25.017 133.192 24.608C133.352 24.1989 133.431 23.7401 133.431 23.2315C133.431 22.7287 133.353 22.2756 133.197 21.8722C133.043 21.4687 132.816 21.1491 132.515 20.9134C132.214 20.6747 131.844 20.5554 131.407 20.5554C130.981 20.5554 130.619 20.6705 130.32 20.9006C130.022 21.1278 129.795 21.4432 129.639 21.8466C129.485 22.2472 129.408 22.7088 129.408 23.2315ZM138.5 26.6364C137.889 26.6364 137.361 26.4943 136.915 26.2102C136.469 25.9233 136.124 25.527 135.879 25.0213C135.638 24.5128 135.517 23.9276 135.517 23.2656C135.517 22.6065 135.638 22.0213 135.879 21.5099C136.124 20.9957 136.46 20.5937 136.889 20.304C137.321 20.0114 137.82 19.8651 138.385 19.8651C138.74 19.8651 139.082 19.9304 139.412 20.0611C139.741 20.1889 140.037 20.3864 140.298 20.6534C140.563 20.9176 140.771 21.2514 140.925 21.6548C141.078 22.0554 141.155 22.5298 141.155 23.0781V23.4531H136.041V22.7841H140.379C140.379 22.3636 140.294 21.9858 140.124 21.6506C139.956 21.3125 139.722 21.0455 139.42 20.8494C139.122 20.6534 138.777 20.5554 138.385 20.5554C137.97 20.5554 137.605 20.6662 137.29 20.8878C136.974 21.1094 136.727 21.402 136.548 21.7656C136.372 22.1293 136.283 22.527 136.28 22.9588V23.3594C136.28 23.8793 136.369 24.3338 136.548 24.723C136.73 25.1094 136.987 25.4091 137.32 25.6222C137.652 25.8352 138.045 25.9418 138.5 25.9418C138.81 25.9418 139.081 25.8935 139.314 25.7969C139.55 25.7003 139.747 25.571 139.906 25.4091C140.068 25.2443 140.19 25.0639 140.273 24.8679L140.993 25.1023C140.893 25.3778 140.73 25.6321 140.503 25.8651C140.278 26.098 139.997 26.2855 139.659 26.4276C139.324 26.5668 138.938 26.6364 138.5 26.6364ZM143.585 25.4219L147.041 19.9545H147.949V26.5H147.19V21.0327L143.747 26.5H142.826V19.9545H143.585V25.4219ZM146.172 17.7727H146.887C146.887 18.179 146.753 18.5085 146.483 18.7614C146.216 19.0142 145.851 19.1406 145.387 19.1406C144.93 19.1406 144.568 19.0142 144.301 18.7614C144.034 18.5085 143.9 18.179 143.9 17.7727H144.616C144.616 17.9943 144.676 18.1818 144.795 18.3352C144.917 18.4858 145.115 18.5611 145.387 18.5611C145.66 18.5611 145.859 18.4858 145.984 18.3352C146.109 18.1818 146.172 17.9943 146.172 17.7727ZM149.035 20.6705V19.9545H154.149V20.6705H151.984V26.5H151.226V20.6705H149.035ZM156.511 25.4219L159.967 19.9545H160.874V26.5H160.116V21.0327L156.673 26.5H155.752V19.9545H156.511V25.4219ZM167.296 22.8736V23.5895H163.448V22.8736H167.296ZM163.636 19.9545V26.5H162.877V19.9545H163.636ZM167.854 19.9545V26.5H167.096V19.9545H167.854ZM173.764 19.9545V20.6705H170.632V26.5H169.873V19.9545H173.764Z" fill="white"/>
<g clip-path="url(#clip0_9466_5963)">
<path d="M101.389 42.7353C101.611 42.9062 101.892 42.8475 102.227 42.6072L105.085 40.5299L107.949 42.6072C108.284 42.8475 108.559 42.9062 108.786 42.7353C109.008 42.5698 109.057 42.2975 108.921 41.9076L107.792 38.5862L110.678 36.5356C111.013 36.3007 111.148 36.055 111.061 35.788C110.975 35.5317 110.721 35.4035 110.305 35.4089L106.765 35.4302L105.69 32.0927C105.561 31.6976 105.366 31.5 105.085 31.5C104.809 31.5 104.615 31.6976 104.485 32.0927L103.41 35.4302L99.8707 35.4089C99.4546 35.4035 99.2007 35.5317 99.1142 35.788C99.0223 36.055 99.1628 36.3007 99.4979 36.5356L102.383 38.5862L101.254 41.9076C101.119 42.2975 101.168 42.5698 101.389 42.7353Z" fill="#FED42B"/>
</g>
<g clip-path="url(#clip1_9466_5963)">
<path d="M117.389 42.7353C117.611 42.9062 117.892 42.8475 118.227 42.6072L121.085 40.5299L123.949 42.6072C124.284 42.8475 124.559 42.9062 124.786 42.7353C125.008 42.5698 125.057 42.2975 124.921 41.9076L123.792 38.5862L126.678 36.5356C127.013 36.3007 127.148 36.055 127.061 35.788C126.975 35.5317 126.721 35.4035 126.305 35.4089L122.765 35.4302L121.69 32.0927C121.561 31.6976 121.366 31.5 121.085 31.5C120.809 31.5 120.615 31.6976 120.485 32.0927L119.41 35.4302L115.871 35.4089C115.455 35.4035 115.201 35.5317 115.114 35.788C115.022 36.055 115.163 36.3007 115.498 36.5356L118.383 38.5862L117.254 41.9076C117.119 42.2975 117.168 42.5698 117.389 42.7353Z" fill="#FED42B"/>
</g>
<g clip-path="url(#clip2_9466_5963)">
<path d="M133.389 42.7353C133.611 42.9062 133.892 42.8475 134.227 42.6072L137.085 40.5299L139.949 42.6072C140.284 42.8475 140.559 42.9062 140.786 42.7353C141.008 42.5698 141.057 42.2975 140.921 41.9076L139.792 38.5862L142.678 36.5356C143.013 36.3007 143.148 36.055 143.061 35.788C142.975 35.5317 142.721 35.4035 142.305 35.4089L138.765 35.4302L137.69 32.0927C137.561 31.6976 137.366 31.5 137.085 31.5C136.809 31.5 136.615 31.6976 136.485 32.0927L135.41 35.4302L131.871 35.4089C131.455 35.4035 131.201 35.5317 131.114 35.788C131.022 36.055 131.163 36.3007 131.498 36.5356L134.383 38.5862L133.254 41.9076C133.119 42.2975 133.168 42.5698 133.389 42.7353Z" fill="#FED42B"/>
</g>
<g clip-path="url(#clip3_9466_5963)">
<path d="M149.389 42.7353C149.611 42.9062 149.892 42.8475 150.227 42.6072L153.085 40.5299L155.949 42.6072C156.284 42.8475 156.559 42.9062 156.786 42.7353C157.008 42.5698 157.057 42.2975 156.921 41.9076L155.792 38.5862L158.678 36.5356C159.013 36.3007 159.148 36.055 159.061 35.788C158.975 35.5317 158.721 35.4035 158.305 35.4089L154.765 35.4302L153.69 32.0927C153.561 31.6976 153.366 31.5 153.085 31.5C152.809 31.5 152.615 31.6976 152.485 32.0927L151.41 35.4302L147.871 35.4089C147.455 35.4035 147.201 35.5317 147.114 35.788C147.022 36.055 147.163 36.3007 147.498 36.5356L150.383 38.5862L149.254 41.9076C149.119 42.2975 149.168 42.5698 149.389 42.7353Z" fill="#FED42B"/>
</g>
<g clip-path="url(#clip4_9466_5963)">
<path d="M165.389 42.7353C165.611 42.9062 165.892 42.8475 166.227 42.6072L169.085 40.5299L171.949 42.6072C172.284 42.8475 172.559 42.9062 172.786 42.7353C173.008 42.5698 173.057 42.2975 172.921 41.9076L171.792 38.5862L174.678 36.5356C175.013 36.3007 175.148 36.055 175.061 35.788C174.975 35.5317 174.721 35.4035 174.305 35.4089L170.765 35.4302L169.69 32.0927C169.561 31.6976 169.366 31.5 169.085 31.5C168.809 31.5 168.615 31.6976 168.485 32.0927L167.41 35.4302L163.871 35.4089C163.455 35.4035 163.201 35.5317 163.114 35.788C163.022 36.055 163.163 36.3007 163.498 36.5356L166.383 38.5862L165.254 41.9076C165.119 42.2975 165.168 42.5698 165.389 42.7353Z" fill="#FED42B"/>
</g>
<defs>
<clipPath id="clip0_9466_5963">
<rect width="12" height="12" fill="white" transform="translate(99.0867 31.5)"/>
</clipPath>
<clipPath id="clip1_9466_5963">
<rect width="12" height="12" fill="white" transform="translate(115.087 31.5)"/>
</clipPath>
<clipPath id="clip2_9466_5963">
<rect width="12" height="12" fill="white" transform="translate(131.087 31.5)"/>
</clipPath>
<clipPath id="clip3_9466_5963">
<rect width="12" height="12" fill="white" transform="translate(147.087 31.5)"/>
</clipPath>
<clipPath id="clip4_9466_5963">
<rect width="12" height="12" fill="white" transform="translate(163.087 31.5)"/>
</clipPath>
</defs>
</svg>
