<svg width="19" height="16" fill="none" xmlns="http://www.w3.org/2000/svg"><path d="M6.693 12.045H16.3c.321 0 .6-.26.6-.61s-.279-.611-.6-.611H6.833c-.47 0-.758-.326-.832-.822L4.651.944C4.57.317 4.338 0 3.5 0H.609A.622.622 0 000 .61c0 .334.28.619.61.619h2.782l1.317 8.936c.173 1.155.79 1.88 1.984 1.88zM5.178 9.147h11.138c1.202 0 1.82-.732 1.993-1.896l.658-4.305a2.45 2.45 0 00.033-.31c0-.39-.296-.658-.749-.658H4.461l.01 1.229H17.6l-.585 3.898c-.066.504-.337.822-.823.822H5.162l.016 1.22zM7.343 16c.741 0 1.334-.578 1.334-1.318a1.32 1.32 0 00-1.334-1.319c-.749 0-1.342.586-1.342 1.319 0 .74.593 1.318 1.342 1.318zm7.697 0c.75 0 1.342-.578 1.342-1.318 0-.733-.592-1.319-1.342-1.319-.74 0-1.342.586-1.342 1.319 0 .74.601 1.318 1.342 1.318z" fill="#FFF" fill-rule="evenodd"/></svg>