<svg width="60" height="60" fill="none" xmlns="http://www.w3.org/2000/svg"><rect width="60" height="60" rx="30" fill="#D9FFF1"/><path d="M30 60c16.412 0 30-13.617 30-30C60 13.588 46.383 0 29.97 0 13.589 0 0 13.588 0 30c0 16.383 13.618 30 30 30zm0-5C16.118 55 5.03 43.883 5.03 30c0-13.882 11.058-25 24.94-25C43.854 5 55 16.118 55 30c0 13.883-11.117 25-25 25zm-3.235-11.03c.97 0 1.794-.47 2.382-1.382l13.441-21.147c.324-.588.706-1.235.706-1.882 0-1.324-1.176-2.177-2.411-2.177-.736 0-1.471.471-2.03 1.324L26.647 38.294l-5.794-7.5c-.706-.941-1.353-1.176-2.177-1.176-1.264 0-2.264 1.029-2.264 2.323 0 .647.265 1.265.676 1.824l7.177 8.823c.735.971 1.53 1.383 2.5 1.383z" fill="#2FA947"/></svg>