<svg width="24" height="24" fill="none" xmlns="http://www.w3.org/2000/svg"><path d="M16 17V7.5h2.79a3 3 0 012.634 1.563l1.265 2.317a5 5 0 01.611 2.395V15a2 2 0 01-2 2H21" stroke="#0E0E0E" stroke-width="1.3" stroke-linecap="round" stroke-linejoin="round"/><path d="M7.25 19.5a2.25 2.25 0 100-4.5 2.25 2.25 0 000 4.5zm11 0a2.25 2.25 0 100-4.5 2.25 2.25 0 000 4.5z" stroke="#0E0E0E" stroke-width="1.3" stroke-linejoin="round"/><path d="M4.308 17v0A2.308 2.308 0 012 14.692V7a3 3 0 013-3h8a3 3 0 013 3v10h-6" stroke="#0E0E0E" stroke-width="1.3" stroke-linecap="round" stroke-linejoin="round"/></svg>