<svg width="16" height="16" fill="none" xmlns="http://www.w3.org/2000/svg"><path d="M8 12a.775.775 0 00.57-.23.771.771 0 00.23-.57.775.775 0 00-.23-.57.771.771 0 00-.57-.23.775.775 0 00-.57.23.771.771 0 00-.23.57c0 .227.077.417.23.57.154.154.344.23.57.23zm-.8-3.2h1.6V4H7.2v4.8zM8 16a7.785 7.785 0 01-3.12-.63 8.091 8.091 0 01-2.54-1.71 8.074 8.074 0 01-1.71-2.54A7.804 7.804 0 010 8c0-1.107.21-2.147.63-3.12.42-.973.99-1.82 1.71-2.54A8.073 8.073 0 014.88.63 7.804 7.804 0 018 0c1.107 0 2.147.21 3.12.63.973.42 1.82.99 2.54 1.71s1.29 1.567 1.71 2.54c.42.973.63 2.013.63 3.12 0 1.107-.21 2.147-.63 3.12-.42.973-.99 1.82-1.71 2.54a8.085 8.085 0 01-2.54 1.71c-.973.42-2.013.63-3.12.63z" fill="#C74031"/></svg>