<svg width="24" height="25" fill="none" xmlns="http://www.w3.org/2000/svg"><path d="M16.38 21.5c1.61 0 2.67-.433 3.599-1.482.073-.073.147-.156.211-.23.552-.616.81-1.224.81-1.803 0-.663-.387-1.28-1.206-1.85l-2.677-1.859c-.829-.57-1.795-.635-2.568.129l-.708.709c-.212.211-.396.22-.599.092-.497-.313-1.5-1.188-2.18-1.868-.718-.71-1.409-1.5-1.777-2.08-.12-.212-.11-.387.101-.598l.7-.709c.773-.773.708-1.748.138-2.567L8.365 4.706c-.57-.82-1.187-1.197-1.85-1.206-.58-.009-1.187.258-1.803.81l-.23.202C3.432 5.452 3 6.51 3 8.102c0 2.631 1.62 5.834 4.592 8.806 2.954 2.954 6.166 4.592 8.788 4.592zm.01-1.417c-2.347.046-5.356-1.758-7.74-4.132-2.402-2.393-4.288-5.503-4.242-7.85.018-1.012.377-1.886 1.095-2.512.064-.055.11-.101.175-.147.276-.24.57-.368.837-.368s.506.101.681.377L8.982 8.13c.193.285.211.607-.074.893l-.81.81c-.635.634-.589 1.407-.129 2.024.525.709 1.436 1.74 2.144 2.439.7.708 1.813 1.702 2.531 2.236.617.46 1.39.506 2.025-.13l.81-.809c.285-.285.598-.267.892-.083l2.678 1.785c.276.185.377.415.377.69 0 .268-.128.562-.368.838l-.147.175c-.626.718-1.5 1.067-2.521 1.086z" fill="#fff"/></svg>