<svg width="166.165" height="141.566" fill="none" xmlns="http://www.w3.org/2000/svg"><defs><clipPath id="a"><rect rx="15" width="105.862" height="100.472" transform="rotate(-15 104.058 13.7)" fill="#fff" fill-opacity="0"/></clipPath></defs><path d="M73.66 36.072a4.358 4.358 0 013.318-.345l70.994 21.133a4.356 4.356 0 012.933 5.42l-17.403 58.465a4.358 4.358 0 01-5.419 2.934l-70.995-21.133a4.359 4.359 0 01-2.933-5.42L71.56 38.662a4.357 4.357 0 012.102-2.59z" stroke="#D7D7D7" stroke-width="10" stroke-linejoin="round"/><rect rx="15" width="105.862" height="100.472" transform="rotate(-15 104.058 13.7)" fill="#FFF"/><g clip-path="url(#a)" stroke="#D7D7D7" stroke-linejoin="round"><path d="M16.596 42.317c.577-1 1.53-1.73 2.646-2.03L90.79 21.116a4.356 4.356 0 015.336 3.08l15.788 58.923a4.357 4.357 0 01-3.081 5.337l-71.549 19.171a4.356 4.356 0 01-5.336-3.081L16.16 45.623a4.357 4.357 0 01.435-3.306z" stroke-width="10"/><path d="M42.648 55.58a3.27 3.27 0 00-1.197-4.465 3.268 3.268 0 101.197 4.464z" stroke-width="8.714"/><path d="M57.876 75.044l8.68-18.114 43.104 17.772 2.256 8.417a4.357 4.357 0 01-3.082 5.337l-71.548 19.171a4.357 4.357 0 01-5.337-3.081l-2.256-8.418L45.1 69.447l12.777 5.598z" stroke-width="10"/></g></svg>