<svg width="24" height="24" fill="none" xmlns="http://www.w3.org/2000/svg"><path fill-rule="evenodd" clip-rule="evenodd" d="M3.688 7.37a1 1 0 00-.988-.85H1.23a.643.643 0 010-1.286h2.575a1 1 0 01.988.85l1.303 8.562a1 1 0 00.989.85h15.686a.643.643 0 110 1.286H5.98a1 1 0 01-.99-.85L3.689 7.37zM7.8 19.405a1.31 1.31 0 100 2.62 1.31 1.31 0 000-2.62zm-2.596 1.31a2.596 2.596 0 115.193 0 2.596 2.596 0 01-5.193 0zm12.577-1.31a1.31 1.31 0 100 2.62 1.31 1.31 0 000-2.62zm-2.596 1.31a2.596 2.596 0 115.193 0 2.596 2.596 0 01-5.193 0z" fill="#0E0E0E"/><path fill-rule="evenodd" clip-rule="evenodd" d="M7.855 3.402a1 1 0 011-1h10.523a1 1 0 011 1v9.144a1 1 0 01-1 1H8.855a1 1 0 01-1-1V3.402zm2.286.286a1 1 0 00-1 1v6.572a1 1 0 001 1h7.95a1 1 0 001-1V4.688a1 1 0 00-1-1h-7.95z" fill="#0E0E0E"/><path fill-rule="evenodd" clip-rule="evenodd" d="M15.872 5.823a.643.643 0 01-.643.643h-2.225a.643.643 0 010-1.286h2.225c.356 0 .643.288.643.643z" fill="#0E0E0E"/></svg>