<svg width="45" height="61" fill="none" xmlns="http://www.w3.org/2000/svg"><g clip-path="url(#clip0_13567_66865)"><path d="M0 21.945C0 10.101 9.601.5 21.445.5h1.807C35.262.5 45 10.237 45 22.248c0 5.317-1.98 10.421-5.27 14.597-2.363 2.998-5 6.584-6.73 9.655-2.186 3.88-5.072 9.354-6.546 12.17a3.41 3.41 0 01-3.02 1.83 3.401 3.401 0 01-2.922-1.657c-1.653-2.764-5.038-8.4-7.512-12.343-1.926-3.07-4.769-6.635-7.305-9.62C2.138 32.694 0 27.438 0 21.945z" fill="#0E0E0E"/><path d="M29.29 27.88l-.002-1.906a.734.734 0 01.406-.103.7.7 0 01.569.258c.143.172.215.433.215.784 0 .354-.073.62-.22.797a.7.7 0 01-.564.266c-.152 0-.287-.018-.405-.095zm1.72-.415v.983h-.886c.223-.065.414-.186.57-.361.151-.17.256-.376.316-.622zm-1.723-6.442l-3.276 4.055-3.278-4.04.004 7.41h-1.72L21.01 16.53h.312l4.697 6.026 4.655-6.026h.33l.005 9.854a1.395 1.395 0 00-.316-.624c-.253-.28-.585-.42-1.004-.42-.144 0-.277.016-.401.047v-4.365zm-11.68 3.661l1.717.01h.002v.002c-.028.113-.06.226-.095.337a4.808 4.808 0 01-.75 1.5 5.722 5.722 0 01-.4.48 4.8 4.8 0 01-.453.425 3.97 3.97 0 01-.935.576 5.01 5.01 0 01-.53.193 5.824 5.824 0 01-2.758.139 5.222 5.222 0 01-.5-.125 5.985 5.985 0 01-.964-.388 5.839 5.839 0 01-.875-.559 5.583 5.583 0 01-.402-.343 4.187 4.187 0 01-.356-.377 4.882 4.882 0 01-.612-.938 6.313 6.313 0 01-.67-2.449 8.472 8.472 0 01.102-2.129 6.27 6.27 0 01.91-2.294 4.572 4.572 0 011.088-1.133 5.587 5.587 0 011.35-.747 5.1 5.1 0 01.49-.161 5.572 5.572 0 011.544-.203 5.714 5.714 0 012.211.452 4.023 4.023 0 01.932.568 4.927 4.927 0 01.846.883 4.458 4.458 0 01.723 1.39c.03.095.06.19.084.286l.002.002h-.003l-1.741-.013h-.002a3.398 3.398 0 00-.439-.73 2.954 2.954 0 00-1.559-1.022 4.01 4.01 0 00-1.065-.14 3.834 3.834 0 00-.781.07 3.313 3.313 0 00-1.351.6c-.203.154-.39.331-.56.532a4.05 4.05 0 00-.752 1.355 5.628 5.628 0 00-.26 1.715c-.002.56.076 1.097.24 1.6.16.488.401.946.732 1.368.165.21.35.402.552.57a3.202 3.202 0 001.345.662c.255.058.516.086.78.087.195.002.389-.01.583-.035a3.263 3.263 0 001.526-.603c.154-.112.295-.24.424-.38a3.16 3.16 0 00.631-1.034zm16.83 3.764v-3.042h2.14v.514h-1.554v.677h1.446v.513h-1.446v.825h1.611v.514h-2.197zm-2.33-1.753h.432c.28 0 .454-.013.525-.038a.303.303 0 00.163-.13c.04-.06.06-.136.06-.228a.372.372 0 00-.078-.248.35.35 0 00-.22-.119 4.092 4.092 0 00-.425-.011h-.457v.774zm-.585 1.753v-3.042h1.23c.308 0 .533.028.674.082.14.055.252.152.336.292.084.14.127.3.127.478a.84.84 0 01-.192.567c-.126.149-.316.242-.57.28.125.077.23.163.31.256.083.092.193.258.332.494l.353.593h-.698l-.419-.664a4.024 4.024 0 00-.309-.446.441.441 0 00-.175-.127.95.95 0 00-.295-.033h-.12v1.27h-.585z" fill="#fff"/><path d="M26.637 28.45v-2.53h-.858v-.514h2.295v.514h-.851v2.529h-.586zm2.65-3.061v.585a.71.71 0 00-.206.167c-.147.174-.222.437-.222.785 0 .345.077.608.228.786.061.07.129.128.202.17v.582a1.23 1.23 0 01-.65-.373c-.254-.277-.38-.657-.38-1.143 0-.311.044-.57.131-.782.066-.155.156-.294.268-.418a1.168 1.168 0 01.63-.36zm-6.15 2.075l.571-.06c.033.202.102.349.208.442a.6.6 0 00.421.141c.187 0 .33-.042.424-.125a.381.381 0 00.143-.293.29.29 0 00-.06-.184.471.471 0 00-.21-.131 6.579 6.579 0 00-.464-.134c-.312-.081-.53-.182-.658-.301a.816.816 0 01-.264-.615.794.794 0 01.485-.744c.156-.07.346-.107.567-.107.362 0 .634.084.817.253.183.17.28.395.288.678l-.585.021c-.026-.157-.08-.27-.16-.337-.082-.07-.204-.105-.368-.105-.168 0-.3.037-.394.111a.23.23 0 00-.093.19c0 .073.03.134.087.185.074.065.252.134.535.205.285.07.494.143.628.22a.818.818 0 01.32.308c.076.13.114.292.114.485a.935.935 0 01-.137.489.841.841 0 01-.39.34 1.557 1.557 0 01-.63.11c-.364 0-.646-.088-.842-.266-.197-.179-.314-.436-.352-.776z" fill="#fff"/></g><defs><clipPath id="clip0_13567_66865"><path fill="#fff" transform="translate(0 .5)" d="M0 0h45v60H0z"/></clipPath></defs></svg>