<svg width="4.232" height="8.538" fill="none" xmlns="http://www.w3.org/2000/svg"><path d="M.502 1.619C.905.872 1.309.5 2.117.5c1.006 0 1.615.746 1.615 1.491 0 .746-.404 1.118-1.615 1.864v1.168L.502 1.62zm1.615 6.043v.376-.376zM.933 1.83l.008.027a.495.495 0 01-.677.201.495.495 0 01-.202-.677l.027-.008.844.457zm1.664 3.173l.02.02c0 .28-.22.5-.5.5s-.5-.22-.5-.5l.02-.02h.96zm-.96 2.679l-.02-.02c0-.28.22-.5.5-.5s.5.22.5.5l-.02.02h-.96zm.96.336l.02.02c0 .28-.22.5-.5.5s-.5-.22-.5-.5l.02-.02h.96z" fill="#999"/><path d="M.502 1.619C.905.872 1.309.5 2.117.5c1.006 0 1.615.746 1.615 1.491 0 .746-.404 1.118-1.615 1.864v1.168m0 2.639v.376" stroke="#FFF"/></svg>