<svg width="18" height="17" fill="none" xmlns="http://www.w3.org/2000/svg"><path d="M3.454 16.853c.332.256.753.168 1.256-.192l4.288-3.116 4.295 3.116c.503.36.916.448 1.257.192.332-.248.405-.657.202-1.242l-1.694-4.982 4.328-3.076c.503-.352.706-.72.576-1.12-.13-.386-.51-.578-1.135-.57l-5.309.033L9.905.889C9.711.296 9.42 0 8.998 0c-.414 0-.706.296-.9.89L6.485 5.895l-5.309-.033c-.624-.008-1.005.184-1.135.57-.137.4.073.768.576 1.12l4.328 3.076-1.694 4.982c-.203.585-.13.994.203 1.242z" fill="#0E0E0E"/></svg>