<svg width="24" height="24" fill="none" xmlns="http://www.w3.org/2000/svg"><path d="M4.713 3.443A1.252 1.252 0 015.663 3h12.674a1.236 1.236 0 01.95.443L21.55 7.3c.29.344.451.783.451 1.236v.323c0 .627-.193 1.239-.553 1.749-.36.51-.867.894-1.452 1.097a2.931 2.931 0 01-1.812.038 2.968 2.968 0 01-1.495-1.037 2.97 2.97 0 01-1.04.856 2.932 2.932 0 01-2.61 0A2.97 2.97 0 0112 10.705a2.97 2.97 0 01-1.039.856 2.93 2.93 0 01-2.61 0 2.97 2.97 0 01-1.039-.856c-.38.495-.902.857-1.495 1.037a2.931 2.931 0 01-1.812-.038 2.972 2.972 0 01-1.452-1.097A3.036 3.036 0 012 8.858v-.323c0-.453.16-.892.451-1.236l2.263-3.857-.002.001zm3.224 5.415c0 .462.182.905.504 1.232.322.326.76.51 1.215.51.456 0 .893-.184 1.216-.51.322-.327.503-.77.503-1.232 0-.168.066-.329.183-.447a.62.62 0 01.884 0c.117.118.183.28.183.447 0 .462.181.905.503 1.232a1.707 1.707 0 002.43 0c.323-.327.505-.77.505-1.232a.63.63 0 01.183-.447.62.62 0 01.883 0c.118.118.183.28.183.447 0 .462.182.905.504 1.232.322.326.76.51 1.215.51.456 0 .893-.184 1.216-.51.322-.327.503-.77.503-1.232v-.323a.638.638 0 00-.15-.411l-2.263-3.857H5.662L3.4 8.124a.638.638 0 00-.15.411v.323c0 .462.181.905.503 1.232a1.707 1.707 0 002.43 0c.323-.327.504-.77.504-1.232 0-.168.066-.329.184-.447a.62.62 0 01.883 0c.118.118.184.28.184.447z" fill="#0E0E0E"/><path d="M12.375 14a.62.62 0 01.442.185c.117.12.183.28.183.448v6.1h6.5v-9.6c0-.168.066-.329.183-.447a.62.62 0 01.884 0c.117.118.183.28.183.447v9.6c0 .7-.567 1.267-1.267 1.267h-6.466c-.7 0-1.267-.567-1.267-1.267v-6.1c0-.168.066-.329.183-.447a.62.62 0 01.442-.186zm-5 0a.62.62 0 00-.442.185.638.638 0 00-.183.448v6.1h-2.5v-9.6a.638.638 0 00-.183-.447.62.62 0 00-.884 0 .638.638 0 00-.183.447v9.6c0 .7.567 1.267 1.267 1.267h2.466C7.433 22 8 21.433 8 20.733v-6.1a.638.638 0 00-.183-.447.62.62 0 00-.442-.186z" fill="#0E0E0E"/><path d="M6.75 14.7a.7.7 0 01.7-.7h4.85a.7.7 0 01.7.7v.3H6.75v-.3z" fill="#0E0E0E"/></svg>