<?xml version="1.0" encoding="UTF-8"?><!DOCTYPE svg PUBLIC "-//W3C//DTD SVG 1.1//EN" "http://www.w3.org/Graphics/SVG/1.1/DTD/svg11.dtd"><svg xmlns="http://www.w3.org/2000/svg" xmlns:xlink="http://www.w3.org/1999/xlink"><defs><radialGradient id="insta-hover-a" cx="0" cy="0" r="1" gradientUnits="userSpaceOnUse" gradientTransform="matrix(93.2956 0 0 92.3719 41.213 .813)"><stop stop-color="#F9ED32"/><stop offset=".36" stop-color="#EE2A7B"/><stop offset=".44" stop-color="#D22A8A"/><stop offset=".6" stop-color="#8B2AB2"/><stop offset=".83" stop-color="#1B2AF0"/><stop offset=".88" stop-color="#002AFF"/></radialGradient><radialGradient id="insta-a" cx="0" cy="0" r="1" gradientUnits="userSpaceOnUse" gradientTransform="matrix(45.7286 0 0 45.2767 30.102 10.406)"><stop stop-color="#F9ED32"/><stop offset=".36" stop-color="#EE2A7B"/><stop offset=".44" stop-color="#D22A8A"/><stop offset=".6" stop-color="#8B2AB2"/><stop offset=".83" stop-color="#1B2AF0"/><stop offset=".88" stop-color="#002AFF"/></radialGradient><clipPath id="insuranceOk-a"><path fill="#fff" d="M0 0h20v20H0z"/></clipPath></defs><symbol id="icon-arrow-basket"><g fill="none"><path d="m6 8 4 4 4-4" stroke="currentColor" stroke-linecap="round"/></g></symbol><symbol id="icon-arrow-bt" viewBox="0 0 14 9"><g fill="none"><path d="m1 1.5 6 6 6-6" stroke="currentColor" stroke-width="1.5" stroke-linecap="round"/></g></symbol><symbol id="icon-arrow-header-small"><g fill="none"><path d="m14.5 18-6-6 6-6" stroke="currentColor" stroke-width="1.5" stroke-linecap="round"/></g></symbol><symbol id="icon-arrow-left-link" viewBox="0 0 24 24"><g fill="none"><path d="m9 18 6-6-6-6" stroke="currentColor" stroke-width="1.5" stroke-linecap="round"/></g></symbol><symbol id="icon-arrow-recommendation"><g fill="none"><path d="m4 6 4 4 4-4" stroke="currentColor" stroke-linecap="round"/></g></symbol><symbol id="icon-arrow-slider"><g fill="none"><path d="m9 18 6-6-6-6" stroke="currentColor" stroke-width="1.5" stroke-linecap="round"/></g></symbol><symbol id="icon-arrow-small"><g fill="none"><path d="m8.53 10.47 4 4L12 15l-.53-.53 4-4 1.06 1.06L12 16.06l-4.53-4.53 1.06-1.06Zm-1.032 1.06H7.47a.743.743 0 0 1 0-1.06.743.743 0 0 1 1.06 0v.028L7.498 11.53Zm7.972-1.032v-.028a.743.743 0 0 1 1.06 0 .743.743 0 0 1 0 1.06h-.028l-1.032-1.032Z" fill="currentColor" fill-rule="evenodd"/></g></symbol><symbol id="icon-arrow-top-bl"><g fill="none"><path d="m18 15-6-6-6 6" stroke="currentColor" stroke-width="1.5" stroke-linecap="round"/></g></symbol><symbol id="icon-arrows-thumb" viewBox="0 0 44 40"><g fill="none"><rect x="43.727" width="40" height="42.994" rx="20" transform="rotate(90 43.727 0)" fill="#fff"/><path d="m28.727 22-6-6-6 6" stroke="currentColor" stroke-width="1.5" stroke-linecap="round"/></g></symbol><symbol id="icon-basket"><g fill="none"><path d="M3.333 4.5h1.209c.847 0 1.576.57 1.742 1.36l.248 1.178m0 0 1.032 7.329c.092.65.648 1.133 1.304 1.133h10.02c.65 0 1.202-.473 1.302-1.114l.907-5.828a1.317 1.317 0 0 0-1.302-1.52H6.532Z" stroke="currentColor" stroke-width="1.5" stroke-linecap="round"/><circle cx="9.833" cy="19" r="1.5" fill="currentColor"/><circle cx="18.833" cy="19" r="1.5" fill="currentColor"/></g></symbol><symbol id="icon-catalog"><g fill="none"><path d="m24.5 21-3.544-3.544m0 0a6.125 6.125 0 1 0-8.662-8.662 6.125 6.125 0 0 0 8.662 8.662ZM3.5 21h7M3.5 14H7M3.5 7h5.25" stroke="currentColor" stroke-width="1.5" stroke-linecap="round"/></g></symbol><symbol id="icon-check-insurance"><g fill="none"><path d="M16.805 9.187a.635.635 0 0 1 .196.45.611.611 0 0 1-.196.45l-6 5.726a.67.67 0 0 1-.472.187.694.694 0 0 1-.472-.187l-2.667-2.545a.623.623 0 0 1-.195-.45c0-.169.07-.33.195-.45a.684.684 0 0 1 .472-.187c.177 0 .347.067.472.187l2.195 2.095 5.528-5.276A.67.67 0 0 1 16.333 9a.694.694 0 0 1 .472.187Z" fill="currentColor"/></g></symbol><symbol id="icon-city"><g fill="none"><path d="M11.5 11.286a2.857 2.857 0 1 0 0-5.714 2.857 2.857 0 0 0 0 5.714Z" stroke="currentColor" stroke-width="1.5" stroke-linecap="round" stroke-linejoin="round"/><path d="M17.214 11.286C15.071 16.286 11.5 22 11.5 22s-3.571-5.714-5.714-10.714C3.643 6.286 7.214 2 11.5 2c4.286 0 7.857 4.286 5.714 9.286Z" stroke="currentColor" stroke-width="1.5" stroke-linecap="round" stroke-linejoin="round"/></g></symbol><symbol id="icon-close" viewBox="0 0 24 24"><g fill="none"><path d="m8.03 16.03 8.486-8.485m-8.061 0 8.485 8.486" stroke="currentColor" stroke-width="1.5" stroke-linecap="round"/></g></symbol><symbol id="icon-compare-item" viewBox="0 0 33 33"><g fill="none"><path d="M11.668 11.668a7.7 7.7 0 0 1 8.663 8.663M11.67 11.67A7.702 7.702 0 0 1 27 12.7a7.701 7.701 0 0 1-6.669 7.631M11.67 11.67A7.702 7.702 0 0 0 12.7 27a7.701 7.701 0 0 0 7.631-6.669" stroke="currentColor" stroke-width="2.063"/></g></symbol><symbol id="icon-compare"><g fill="none"><path d="M8.85 9.35a5.6 5.6 0 0 1 6.3 6.3m-6.3-6.3a5.601 5.601 0 1 1 6.3 6.3m-6.3-6.3a5.601 5.601 0 1 0 6.3 6.3" stroke="currentColor" stroke-width="1.5"/></g></symbol><symbol id="icon-dotted"><g fill="none"><path d="M7 12c-1.1 0-2 .9-2 2s.9 2 2 2 2-.9 2-2-.9-2-2-2Zm14 0c-1.1 0-2 .9-2 2s.9 2 2 2 2-.9 2-2-.9-2-2-2Zm-7 0c-1.1 0-2 .9-2 2s.9 2 2 2 2-.9 2-2-.9-2-2-2Z" fill="currentColor"/></g></symbol><symbol id="icon-dzen"><g fill="none"><path fill="none" d="M0 0h40.4v40H0z"/><path d="M20.704 10H20.695h.009Zm.108 0c.142 4.65.262 6.772 1.912 8.474 1.703 1.65 3.825 1.763 8.475 1.913-.06-5.71-4.678-10.327-10.387-10.387Zm10.387 10.612c-4.65.143-6.772.263-8.475 1.913-1.65 1.702-1.762 3.824-1.912 8.474 5.71-.06 10.327-4.677 10.387-10.387ZM20.587 31c-.143-4.65-.263-6.772-1.913-8.474-1.702-1.65-3.824-1.763-8.474-1.913.06 5.71 4.677 10.327 10.387 10.387ZM10.199 20.503v-.006.006Zm0-.116c4.65-.143 6.773-.262 8.475-1.913 1.65-1.702 1.762-3.824 1.913-8.474-5.71.06-10.327 4.677-10.387 10.387Z" clip-rule="evenodd" fill="currentColor" fill-rule="evenodd"/></g></symbol><symbol id="icon-favorite-fill-item" viewBox="0 0 40 40"><g fill="none"><path d="M11.216 15.722c.439.952 1.037 1.813 1.89 2.45 1.014.755 2.483 1.15 3.74.916.445-.083.84-.479.962-.913.428-1.532-1.58-2.428-2.72-2.763-.415-.122-1.282-.37-1.726-.117-.018.01-.048.075-.088.044-.245-.194-.465-.57-.655-.803-.236-.291-.37-.45-.61-.717-.003-.005-.188-.18-.204-.249-.059-.265.534-.592.7-.662.489-.208 1.045-.245 1.569-.245.847 0 1.739.052 2.564.256.972.24 1.563 1.287 2.163 2.007.257.308.764 1.1 1.26 1.048.143-.015.263-.188.342-.277.392-.438.814-.76 1.31-1.08a19.28 19.28 0 0 1 2.184-1.231c.576-.272 1.175-.525 1.823-.517.598.008 1.241.095 1.805.302.305.112.483.372.61.66.377.855.399 1.813.722 2.68.04.104.09.192.15.284.184.283.204.737.24 1.059a3.65 3.65 0 0 1-.016.998c.059-.355.118-.71.156-1.067.062-.596.084-1.19-.044-1.778 0-.002-.096-.377-.128-.42-.01-.014-.037.014-.042.031-.07.258-.059.532-.086.798-.11 1.085-.23 2.18-.487 3.243-.136.56-.373.99-.706 1.45-.56.775-1.175 1.431-1.878 2.08-.904.833-1.909 1.602-2.702 2.55-.328.392-.638.92-1.096 1.178-.534.301-1.193.252-1.784.287-.166.01-.34.03-.503-.02-.024-.007-.242-.132-.203-.044.047.105.358.362.358.429 0 .038.01.047-.027-.013-.34-.53-.758-1.002-1.145-1.497-.306-.39-.571-.814-.942-1.15-.803-.728-1.762-1.272-2.593-1.969-.971-.814-1.698-1.934-2.382-2.987-.36-.556-.711-1.125-1.1-1.661a1.995 1.995 0 0 0-.174-.216c-.057-.057.024.163.055.238.467 1.127 1.02 2.227 1.591 3.303.368.692.86 1.573 1.282 2.241.417.664.87 1.343 1.447 1.882a2.622 2.622 0 0 0 1.732.684c.371.007.852-.056 1.132-.328.23-.223.348-.593.39-.894.132-.949-.068-1.927-.259-2.85-.086-.416-.326-1.2-.281-1.677.072-.764.855-1.304 1.412-1.708.846-.613 1.787-1.056 2.694-1.564.257-.143.49-.406.705-.593.525-.459 1.048-.927 1.588-1.369.117-.096.183.247.233.39.06.17.325.972.344 1.11.136 1.015-.44 1.789-1.037 2.546-.588.744-1.009 1.142-1.648 1.809-.26.271-.58.568-.783.9a1.936 1.936 0 0 0-.256.962c.006.176-.372.288-.5.186" stroke="#0E0E0E" stroke-width="4.125" stroke-linecap="round"/><path d="M7.625 16.238c0 5.104 4.449 10.125 11.478 14.439.261.155.635.323.897.323s.636-.168.91-.323c7.016-4.314 11.465-9.335 11.465-14.44 0-4.241-3.028-7.237-7.066-7.237-2.306 0-4.175 1.055-5.309 2.672C18.89 10.066 16.997 9 14.691 9c-4.038 0-7.066 2.996-7.066 7.238Zm2.006 0c0-3.188 2.144-5.309 5.035-5.309 2.343 0 3.689 1.402 4.486 2.6.337.48.549.611.848.611.3 0 .486-.143.848-.61.86-1.175 2.155-2.6 4.486-2.6 2.891 0 5.035 2.12 5.035 5.308 0 4.457-4.898 9.262-10.107 12.593-.125.084-.212.144-.262.144-.05 0-.137-.06-.25-.144C14.53 25.5 9.632 20.695 9.632 16.238Z" fill="#0E0E0E"/></g></symbol><symbol id="icon-favorite-item" viewBox="0 0 33 33"><g fill="none"><path d="M27.638 9.375c-.712-1.808-2.07-3.194-3.824-3.903a6.083 6.083 0 0 0-2.283-.462c-2.515 0-4.274 1.674-4.96 2.459C15.886 6.681 14.135 5 11.62 5c-.753 0-1.519.155-2.276.461-1.755.71-3.113 2.096-3.825 3.903a7.595 7.595 0 0 0 .203 5.997c1.26 2.673 4.126 6.835 10.62 11.478l.225.161.226-.161c6.525-4.666 9.388-8.812 10.64-11.468a7.59 7.59 0 0 0 .204-5.996Z" stroke="currentColor" stroke-width="2" stroke-linejoin="round"/></g></symbol><symbol id="icon-favorites"><g fill="none"><path d="M21.13 7.682c-.517-1.315-1.505-2.323-2.78-2.839a4.425 4.425 0 0 0-1.661-.336c-1.829 0-3.108 1.218-3.608 1.789-.496-.573-1.77-1.796-3.598-1.796-.549 0-1.106.113-1.657.336-1.276.516-2.264 1.524-2.78 2.838a5.524 5.524 0 0 0 .147 4.361c.916 1.944 3 4.97 7.723 8.348l.164.117.164-.117c4.746-3.394 6.828-6.409 7.738-8.34a5.52 5.52 0 0 0 .148-4.361Z" stroke="currentColor" stroke-width="1.5" stroke-linejoin="round"/></g></symbol><symbol id="icon-filter" viewBox="0 0 24 24"><g fill="none"><path d="M20 7H9.8m3.4 10H3M17 20a3 3 0 1 1 0-6 3 3 0 0 1 0 6ZM6 10a3 3 0 1 1 0-6 3 3 0 0 1 0 6Z" stroke="currentColor" stroke-width="1.5" stroke-linejoin="round"/></g></symbol><symbol id="icon-grade"><g fill="none"><path d="M3 9a2 2 0 0 1 2 2v8a2 2 0 1 1-4 0v-8a2 2 0 0 1 2-2Zm6 12a2 2 0 0 1-2-2V9c0-.55.22-1.05.59-1.41l5.52-5.53a1.498 1.498 0 0 1 2.56 1.05l-.03.32L14.69 8H21a2 2 0 0 1 2 2v2c0 .26-.05.5-.14.73l-3.02 7.05C19.54 20.5 18.83 21 18 21H9Zm0-2h9.03l2.89-6.813a1 1 0 0 0 .08-.39V11a1 1 0 0 0-1-1h-6.463a1 1 0 0 1-.961-1.276l.852-2.973a.444.444 0 0 0-.742-.435L9 9.03V19Z" fill="currentColor"/></g></symbol><symbol id="icon-hphone"><g fill="none"><path d="M16.38 21c1.61 0 2.67-.433 3.599-1.482.073-.073.147-.156.211-.23.552-.616.81-1.224.81-1.803 0-.663-.387-1.28-1.206-1.85l-2.677-1.859c-.829-.57-1.795-.635-2.568.129l-.708.709c-.212.211-.396.22-.599.092-.497-.313-1.5-1.188-2.18-1.868-.718-.71-1.409-1.5-1.777-2.08-.12-.212-.11-.387.101-.598l.7-.709c.773-.773.708-1.748.138-2.567L8.365 4.206c-.57-.82-1.187-1.197-1.85-1.206-.58-.009-1.187.258-1.803.81l-.23.202C3.432 4.952 3 6.01 3 7.602c0 2.631 1.62 5.834 4.592 8.806C10.546 19.362 13.758 21 16.38 21Zm.01-1.417c-2.347.046-5.356-1.758-7.74-4.132-2.402-2.393-4.288-5.503-4.242-7.85.018-1.012.377-1.886 1.095-2.512.064-.055.11-.101.175-.147.276-.24.57-.368.837-.368s.506.101.681.377L8.982 7.63c.193.285.211.607-.074.893l-.81.81c-.635.634-.589 1.407-.129 2.024.525.709 1.436 1.74 2.144 2.439.7.708 1.813 1.702 2.531 2.236.617.46 1.39.506 2.025-.13l.81-.809c.285-.285.598-.267.892-.083l2.678 1.785c.276.185.377.415.377.69 0 .268-.128.562-.368.838l-.147.175c-.626.718-1.5 1.067-2.521 1.086Z" fill="currentColor"/></g></symbol><symbol id="icon-insta-hover"><g fill="none"><rect width="40.4" height="40" rx="20" fill="url(#insta-hover-a)"/><path d="M19.997 16.665A3.342 3.342 0 0 0 16.663 20a3.342 3.342 0 0 0 3.334 3.334A3.342 3.342 0 0 0 23.332 20a3.342 3.342 0 0 0-3.335-3.335ZM30 20c0-1.381.012-2.75-.065-4.128-.078-1.601-.443-3.022-1.614-4.193-1.173-1.173-2.591-1.536-4.192-1.613C22.747 9.988 21.378 10 20 10c-1.381 0-2.75-.013-4.128.065-1.601.077-3.022.443-4.193 1.613-1.173 1.174-1.536 2.592-1.613 4.193C9.988 17.253 10 18.622 10 20c0 1.378-.013 2.75.065 4.128.077 1.6.443 3.021 1.613 4.192 1.174 1.174 2.592 1.536 4.193 1.614 1.381.077 2.75.065 4.128.065 1.38 0 2.75.012 4.128-.065 1.6-.078 3.021-.443 4.192-1.614 1.174-1.173 1.536-2.591 1.614-4.192.08-1.379.065-2.747.065-4.128Zm-10.002 5.13a5.124 5.124 0 0 1-5.13-5.13c0-2.84 2.29-5.131 5.13-5.131s5.131 2.291 5.131 5.13c0 2.84-2.291 5.132-5.13 5.132Zm5.341-9.273a1.197 1.197 0 0 1-1.198-1.198c0-.663.535-1.199 1.198-1.199a1.197 1.197 0 0 1 .848 2.047 1.197 1.197 0 0 1-.848.35Z" fill="#fff"/></g></symbol><symbol id="icon-insta"><g fill="none"><path fill="none" d="M0 0h40v40H0z"/><path d="M19.8 16.665c-1.819 0-3.302 1.499-3.302 3.335 0 1.836 1.483 3.334 3.302 3.334 1.818 0 3.302-1.498 3.302-3.334s-1.484-3.335-3.302-3.335ZM29.702 20c0-1.381.013-2.75-.064-4.128-.077-1.601-.439-3.022-1.598-4.193-1.162-1.173-2.566-1.536-4.15-1.613-1.368-.078-2.723-.065-4.088-.065-1.367 0-2.722-.013-4.087.065-1.585.077-2.992.442-4.151 1.613-1.162 1.174-1.52 2.592-1.598 4.193-.076 1.381-.064 2.75-.064 4.128 0 1.378-.012 2.75.064 4.128.078 1.6.439 3.021 1.598 4.192 1.162 1.174 2.566 1.536 4.151 1.614 1.367.077 2.723.065 4.087.065 1.367 0 2.722.012 4.087-.065 1.585-.078 2.992-.443 4.151-1.614 1.162-1.173 1.521-2.591 1.598-4.192.08-1.379.064-2.747.064-4.128ZM19.8 25.13c-2.812 0-5.08-2.29-5.08-5.13s2.268-5.131 5.08-5.131c2.81 0 5.08 2.291 5.08 5.13 0 2.84-2.27 5.132-5.08 5.132Zm5.288-9.273A1.191 1.191 0 0 1 23.9 14.66c0-.663.53-1.198 1.187-1.198.656 0 1.186.535 1.186 1.198a1.196 1.196 0 0 1-.732 1.107c-.144.06-.298.091-.454.091Z" fill="#FFF" fill-rule="evenodd"/><path d="M19.8 16.665c-1.819 0-3.302 1.499-3.302 3.335 0 1.836 1.483 3.334 3.302 3.334 1.818 0 3.302-1.498 3.302-3.334s-1.484-3.335-3.302-3.335ZM29.702 20c0-1.381.013-2.75-.064-4.128-.077-1.601-.439-3.022-1.598-4.193-1.162-1.173-2.566-1.536-4.15-1.613-1.368-.078-2.723-.065-4.088-.065-1.367 0-2.722-.013-4.087.065-1.585.077-2.992.442-4.151 1.613-1.162 1.174-1.52 2.592-1.598 4.193-.076 1.381-.064 2.75-.064 4.128 0 1.378-.012 2.75.064 4.128.078 1.6.439 3.021 1.598 4.192 1.162 1.174 2.566 1.536 4.151 1.614 1.367.077 2.723.065 4.087.065 1.367 0 2.722.012 4.087-.065 1.585-.078 2.992-.443 4.151-1.614 1.162-1.173 1.521-2.591 1.598-4.192.08-1.379.064-2.747.064-4.128ZM19.8 25.13c-2.812 0-5.08-2.29-5.08-5.13s2.268-5.131 5.08-5.131c2.81 0 5.08 2.291 5.08 5.13 0 2.84-2.27 5.132-5.08 5.132Zm5.288-9.273A1.191 1.191 0 0 1 23.9 14.66c0-.663.53-1.198 1.187-1.198.656 0 1.186.535 1.186 1.198a1.196 1.196 0 0 1-.732 1.107c-.144.06-.298.091-.454.091Z" fill="url(#insta-a)" fill-rule="evenodd"/></g></symbol><symbol id="icon-insuranceOk"><g fill="none"><g clip-path="url(#insuranceOk-a)"><path d="m5.833 10.75 2.62 3 5.714-6.666M18.333 10a8.333 8.333 0 1 1-16.666 0 8.333 8.333 0 0 1 16.666 0Z" stroke="currentColor" stroke-width="1.5" stroke-linecap="round" stroke-linejoin="round"/></g></g></symbol><symbol id="icon-list"><g fill="none"><path d="M8.5 5.995h11m-11 6h11m-11 6h11m-15-12v.01m0 5.99v.01m0 5.99v.01" stroke="currentColor" stroke-width="1.5" stroke-linecap="round" stroke-linejoin="round"/></g></symbol><symbol id="icon-logo" viewBox="0 0 100 45"><g fill="none"><path d="m73.42 42.208-.005-6.99c.42-.271.912-.375 1.47-.375.857 0 1.542.314 2.057.944.52.632.78 1.588.78 2.876 0 1.297-.265 2.272-.795 2.92-.531.65-1.212.973-2.041.973-.551 0-1.04-.064-1.466-.348Zm6.227-1.522v3.6H76.44c.807-.238 1.5-.68 2.066-1.323.544-.62.922-1.376 1.141-2.277Zm-6.235-23.612L61.558 31.938 49.693 17.133l.017 27.152h-6.227L43.46.614h1.13l16.994 22.082L78.43.614h1.195l.02 36.112c-.215-.91-.598-1.67-1.147-2.285-.912-1.028-2.117-1.542-3.632-1.542a5.88 5.88 0 0 0-1.451.173l-.003-15.998ZM31.147 30.493l6.21.04h.008v.004c-.1.413-.215.828-.344 1.236-.12.407-.258.812-.407 1.208a17.72 17.72 0 0 1-1.03 2.265 16.07 16.07 0 0 1-1.278 2.023 20.88 20.88 0 0 1-1.446 1.76 17.478 17.478 0 0 1-1.637 1.558 14.32 14.32 0 0 1-1.644 1.193 13.33 13.33 0 0 1-1.742.917 17.81 17.81 0 0 1-1.915.706c-.65.205-1.314.37-1.985.502-.695.136-1.393.237-2.095.301-.722.064-1.454.089-2.183.089a20.45 20.45 0 0 1-3.718-.383 18.61 18.61 0 0 1-1.807-.457 17.826 17.826 0 0 1-1.776-.63 21.49 21.49 0 0 1-1.713-.79c-.558-.29-1.1-.61-1.631-.95a21.623 21.623 0 0 1-1.54-1.098 20.2 20.2 0 0 1-1.453-1.258 15.242 15.242 0 0 1-1.288-1.38 17.893 17.893 0 0 1-1.152-1.57 20.349 20.349 0 0 1-1.06-1.872A23.319 23.319 0 0 1 .913 29.73C.703 28.96.53 28.188.4 27.41a26.423 26.423 0 0 1-.305-2.478 31.433 31.433 0 0 1 .032-5.272c.077-.85.187-1.694.336-2.53a25.94 25.94 0 0 1 .546-2.344c.218-.748.466-1.487.759-2.213.27-.675.57-1.334.898-1.979.331-.642.695-1.267 1.088-1.87.365-.544.75-1.067 1.173-1.559.402-.484.841-.939 1.3-1.364A20.94 20.94 0 0 1 9.243 3.5a20.066 20.066 0 0 1 1.632-.914c.56-.28 1.127-.534 1.702-.749.586-.23 1.178-.427 1.776-.592.598-.17 1.205-.312 1.817-.418.62-.114 1.242-.195 1.864-.25C18.67.523 19.304.5 19.94.5c.698.007 1.4.047 2.096.119a20.449 20.449 0 0 1 4.01.832c.641.2 1.27.435 1.895.707.598.259 1.176.563 1.732.909.57.348 1.117.743 1.642 1.173.57.467 1.112.98 1.622 1.517.51.543.99 1.122 1.436 1.717.471.613.89 1.27 1.266 1.947.379.684.715 1.398.996 2.141a19.738 19.738 0 0 1 .659 2.055l.007.006h-.013l-6.3-.047h-.005a12.489 12.489 0 0 0-1.588-2.673 10.75 10.75 0 0 0-2.108-2.048 10.9 10.9 0 0 0-3.534-1.7c-1.244-.353-2.55-.509-3.857-.514a13.691 13.691 0 0 0-2.824.255c-.873.175-1.737.442-2.561.815-.835.37-1.608.838-2.33 1.386a12.827 12.827 0 0 0-2.022 1.95c-1.249 1.491-2.134 3.173-2.722 4.967-.642 1.984-.925 4.108-.94 6.285-.011 2.055.271 4.019.864 5.862a16.453 16.453 0 0 0 2.65 5.015 13.547 13.547 0 0 0 1.997 2.09c.702.59 1.473 1.099 2.3 1.512.832.412 1.688.714 2.569.914.924.212 1.868.313 2.824.318.703.005 1.405-.034 2.108-.128a12.472 12.472 0 0 0 1.959-.42 11.7 11.7 0 0 0 3.563-1.789c.559-.412 1.066-.88 1.532-1.39.466-.514.886-1.08 1.261-1.688a13.657 13.657 0 0 0 1.024-2.107h-.002v.005ZM92.048 44.29V33.141h7.747v1.883H94.17v2.48h5.232v1.882H94.17v3.024H100v1.882h-7.952v-.002Zm-8.433-6.425h1.566c1.013 0 1.642-.047 1.898-.141.254-.09.454-.247.59-.472.147-.223.217-.502.217-.838 0-.378-.092-.679-.282-.909-.188-.23-.452-.378-.796-.437-.173-.03-.685-.042-1.539-.042h-1.654v2.838Zm-2.117 6.425V33.141h4.452c1.117 0 1.932.101 2.439.302.51.2.912.555 1.217 1.07.305.513.459 1.096.459 1.75 0 .846-.232 1.53-.693 2.078-.459.544-1.144.885-2.064 1.028.454.282.832.595 1.125.936.297.336.695.946 1.197 1.811l1.279 2.172h-2.527l-1.515-2.431c-.542-.867-.915-1.411-1.117-1.636-.2-.225-.41-.383-.637-.464-.227-.082-.583-.124-1.066-.124h-.432v4.657h-2.117Z" fill="currentColor"/><path d="M63.821 44.29v-9.267h-3.103v-1.882h8.304v1.883H65.94v9.266h-2.12Zm9.594-11.218v2.147a2.572 2.572 0 0 0-.75.61c-.531.637-.802 1.6-.802 2.878 0 1.262.278 2.226.825 2.88.222.26.466.467.73.62l.001 2.137a4.44 4.44 0 0 1-2.35-1.368c-.92-1.016-1.38-2.409-1.38-4.19 0-1.139.162-2.09.477-2.863.239-.57.563-1.08.97-1.534.418-.45.864-.786 1.357-1.008.292-.126.597-.237.922-.31Zm-22.256 7.606 2.063-.217c.12.736.371 1.275.752 1.616.376.348.885.518 1.527.518.673 0 1.19-.153 1.532-.46.344-.305.517-.666.517-1.071a1.07 1.07 0 0 0-.217-.677c-.144-.185-.398-.344-.759-.48-.249-.093-.805-.254-1.68-.489-1.127-.299-1.92-.667-2.379-1.104a3.008 3.008 0 0 1-.956-2.253c0-.566.151-1.102.449-1.6a2.884 2.884 0 0 1 1.305-1.127c.563-.26 1.251-.39 2.051-.39 1.313 0 2.296.306 2.957.926.663.62 1.012 1.448 1.044 2.485l-2.118.077c-.095-.578-.29-.991-.583-1.238-.292-.254-.736-.383-1.327-.383-.607 0-1.085.136-1.427.408a.847.847 0 0 0-.336.696c0 .265.107.49.315.677.268.237.912.49 1.936.751 1.03.255 1.786.524 2.274.803a2.98 2.98 0 0 1 1.156 1.132c.275.479.414 1.07.414 1.776 0 .637-.165 1.232-.497 1.793a3.056 3.056 0 0 1-1.415 1.245c-.607.272-1.366.408-2.273.408-1.322 0-2.34-.326-3.05-.978-.712-.655-1.136-1.596-1.275-2.844Z" fill="currentColor"/></g></symbol><symbol id="icon-menu"><g fill="none"><path d="m22.5 19.5-3.544-3.544m0 0a6.125 6.125 0 1 0-8.662-8.662 6.125 6.125 0 0 0 8.662 8.662ZM1.5 19.5h7M1.5 12.5H5M1.5 5.5h5.25" stroke="currentColor" stroke-width="1.5" stroke-linecap="round"/></g></symbol><symbol id="icon-modal-back"><g fill="none"><path d="m15 6-6 6 6 6" stroke="currentColor" stroke-width="1.5" stroke-linecap="round"/></g></symbol><symbol id="icon-next" viewBox="0 0 24 24"><g fill="none"><path d="m8.47 17.47 6-6L15 12l-.53.53-6-6 1.06-1.06L16.06 12l-6.53 6.53-1.06-1.06Zm1.06 1.032v.028a.743.743 0 0 1-1.06 0 .743.743 0 0 1 0-1.06h.028l1.032 1.032ZM8.498 6.53H8.47a.743.743 0 0 1 0-1.06.743.743 0 0 1 1.06 0v.028L8.498 6.53Z" fill="currentColor" fill-rule="evenodd"/></g></symbol><symbol id="icon-plus"><g fill="none"><path d="M12 6v12m6-6H6" stroke="currentColor" stroke-width="1.5" stroke-linecap="round"/></g></symbol><symbol id="icon-profile" viewBox="0 0 24 25"><g fill="none"><path d="M12 20.5a8 8 0 1 0 0-16 8 8 0 0 0 0 16Z" stroke="currentColor" stroke-width="1.5"/><path d="M16.8 18.9c-1.127-1.463-2.858-2.4-4.8-2.4-1.942 0-3.673.937-4.8 2.4M14.4 11.7a2.4 2.4 0 1 1-4.8 0 2.4 2.4 0 0 1 4.8 0Z" stroke="currentColor" stroke-width="1.5"/></g></symbol><symbol id="icon-question-info" viewBox="0 0 17 16"><g fill="none"><path d="M7.534 7.184a.8.8 0 0 1 1.6 0v4.8a.8.8 0 1 1-1.6 0v-4.8Zm.8-3.943a.8.8 0 1 0 0 1.6.8.8 0 0 0 0-1.6Z" fill="currentColor"/><path fill-rule="evenodd" clip-rule="evenodd" d="M8.334 0a8 8 0 1 0 0 16 8 8 0 0 0 0-16Zm-6.4 8a6.4 6.4 0 1 0 12.8 0 6.4 6.4 0 0 0-12.8 0Z" fill="currentColor"/></g></symbol><symbol id="icon-question"><g fill="none"><path d="M.502 1.619C.905.872 1.309.5 2.117.5c1.006 0 1.615.746 1.615 1.491 0 .746-.404 1.118-1.615 1.864v1.168L.502 1.62Zm1.615 6.043v.376-.376ZM.933 1.83l.008.027a.495.495 0 0 1-.677.201.495.495 0 0 1-.202-.677l.027-.008.844.457Zm1.664 3.173.02.02c0 .28-.22.5-.5.5s-.5-.22-.5-.5l.02-.02h.96Zm-.96 2.679-.02-.02c0-.28.22-.5.5-.5s.5.22.5.5l-.02.02h-.96Zm.96.336.02.02c0 .28-.22.5-.5.5s-.5-.22-.5-.5l.02-.02h.96Z" fill="#999"/><path d="M.502 1.619C.905.872 1.309.5 2.117.5c1.006 0 1.615.746 1.615 1.491 0 .746-.404 1.118-1.615 1.864v1.168m0 2.639v.376" stroke="#FFF"/></g></symbol><symbol id="icon-remove"><g fill="none"><path d="M19 6.667h-2.47m0 0H7.47m9.06 0h-.09c-.679-.02-1.277-.485-1.508-1.173a5.238 5.238 0 0 1-.029-.092l-.08-.26c-.068-.22-.102-.33-.147-.424a1.245 1.245 0 0 0-.9-.701C13.677 4 13.57 4 13.354 4h-2.71c-.215 0-.323 0-.42.017-.386.066-.72.326-.9.7-.046.094-.08.205-.148.426l-.08.259-.03.092c-.23.688-.828 1.154-1.506 1.172h-.09m0 0H5M6.556 9.6l.667 8.923c.062.833.738 1.477 1.55 1.477h6.453c.813 0 1.489-.644 1.551-1.477l.667-8.923" stroke="currentColor" stroke-width="1.5" stroke-linecap="round" stroke-linejoin="round"/></g></symbol><symbol id="icon-search"><g fill="none"><path d="m20 20.5-4.323-4.323m0 0a6.84 6.84 0 1 0-9.673-9.673 6.84 6.84 0 0 0 9.673 9.673Z" stroke="currentColor" stroke-width="1.5" stroke-linecap="round"/></g></symbol><symbol id="icon-share" viewBox="0 0 24 24"><g fill="none"><path d="M8.35 12c0 .953-.792 1.75-1.8 1.75v1.5c1.808 0 3.3-1.441 3.3-3.25h-1.5Zm-1.8 1.75c-1.008 0-1.8-.797-1.8-1.75h-1.5c0 1.809 1.492 3.25 3.3 3.25v-1.5ZM4.75 12c0-.953.792-1.75 1.8-1.75v-1.5c-1.808 0-3.3 1.441-3.3 3.25h1.5Zm1.8-1.75c1.008 0 1.8.797 1.8 1.75h1.5c0-1.809-1.492-3.25-3.3-3.25v1.5Zm2.161.59 6.082-3.726-.784-1.28L7.928 9.56l.783 1.28Zm9.839 7.66c0 .953-.792 1.75-1.8 1.75v1.5c1.808 0 3.3-1.441 3.3-3.25h-1.5Zm-1.8 1.75c-1.008 0-1.8-.797-1.8-1.75h-1.5c0 1.809 1.492 3.25 3.3 3.25v-1.5Zm-1.8-1.75c0-.953.792-1.75 1.8-1.75v-1.5c-1.809 0-3.3 1.441-3.3 3.25h1.5Zm1.8-1.75c1.008 0 1.8.797 1.8 1.75h1.5c0-1.809-1.492-3.25-3.3-3.25v1.5Zm1.8-11.25c0 .953-.792 1.75-1.8 1.75v1.5c1.808 0 3.3-1.441 3.3-3.25h-1.5Zm-1.8 1.75c-1.008 0-1.8-.797-1.8-1.75h-1.5c0 1.809 1.492 3.25 3.3 3.25v-1.5Zm-1.8-1.75c0-.953.792-1.75 1.8-1.75v-1.5c-1.809 0-3.3 1.441-3.3 3.25h1.5Zm1.8-1.75c1.008 0 1.8.797 1.8 1.75h1.5c0-1.809-1.492-3.25-3.3-3.25v1.5ZM7.928 14.44l6.081 3.725.784-1.279-6.082-3.725-.783 1.279Z" fill="currentColor"/></g></symbol><symbol id="icon-stars"><g fill="none"><path d="M12.269 1.87a.3.3 0 0 0-.537.002L8.81 7.76a.3.3 0 0 1-.226.163l-6.642.951a.3.3 0 0 0-.166.513l4.808 4.639a.3.3 0 0 1 .087.268L5.523 20.73a.3.3 0 0 0 .435.319l5.902-3.105a.3.3 0 0 1 .279 0l5.904 3.105a.3.3 0 0 0 .435-.318l-1.139-6.437a.3.3 0 0 1 .087-.268l4.8-4.64a.3.3 0 0 0-.165-.512l-6.604-.95a.3.3 0 0 1-.225-.163l-2.963-5.89Z" stroke="#0E0E0E" stroke-width="1.5" stroke-linejoin="round" fill="currentColor"/></g></symbol><symbol id="icon-switch" viewBox="0 0 51 31"><g fill="none"><path d="M15.857.092c1.74-.1 3.478-.092 5.218-.092h8.817c1.774 0 3.512-.008 5.251.092 1.581.09 3.121.282 4.654.711 3.227.902 6.045 2.786 8.082 5.457a15.236 15.236 0 0 1 0 18.48c-2.037 2.67-4.855 4.555-8.082 5.457-1.533.43-3.073.62-4.654.711-1.739.1-3.477.091-5.217.091L21.107 31c-1.772 0-3.51.008-5.25-.092-1.58-.09-3.12-.282-4.653-.71-3.227-.903-6.045-2.788-8.082-5.458a15.234 15.234 0 0 1 0-18.48C5.159 3.59 7.977 1.705 11.204.803c1.533-.429 3.073-.62 4.653-.71Z" fill="currentColor" fill-rule="evenodd"/></g></symbol><symbol id="icon-telegram"><g fill="none"><path d="M17.364.12s1.755-.634 1.63 1.013c0 .634-.502 3.167-.878 5.7l-1.128 7.729s-.125 1.14-1.003 1.393c-.877.253-2.256-.633-2.507-.887-.25-.127-3.635-2.407-4.889-3.42-.376-.253-.752-.887 0-1.52l5.14-4.941c.627-.633 1.128-2.027-1.254-.253L5.581 9.62s-.752.507-2.256 0L.316 8.48s-1.128-.76.878-1.52C6.082 4.68 12.099 2.4 17.364.12Z" fill="currentColor"/></g></symbol><symbol id="icon-tg"><g fill="none"><path d="m28.28 12.602-3.036 15.69s-.424 1.088-1.591.566l-7.004-5.506-.032-.016c.946-.87 8.282-7.633 8.602-7.94.497-.475.189-.757-.388-.399l-10.836 7.056-4.18-1.442s-.658-.24-.722-.762c-.064-.523.743-.805.743-.805l17.043-6.855s1.4-.631 1.4.413Z" fill="currentColor"/></g></symbol><symbol id="icon-tile"><g fill="none"><rect x="9.75" y="9.75" width="5.885" height="5.885" rx="1.25" stroke="currentColor" stroke-width="1.5"/><rect x="18.366" y="9.75" width="5.885" height="5.885" rx="1.25" stroke="currentColor" stroke-width="1.5"/><rect x="9.75" y="18.365" width="5.885" height="5.885" rx="1.25" stroke="currentColor" stroke-width="1.5"/><rect x="18.366" y="18.365" width="5.885" height="5.885" rx="1.25" stroke="currentColor" stroke-width="1.5"/></g></symbol><symbol id="icon-tradein"><g fill="none"><path d="M10.417 16h-5v5m9-13h5V3M5 9.003a8 8 0 0 1 14.331-1.027m.504 7.021a8 8 0 0 1-14.332 1.027" stroke="currentColor" stroke-linecap="round" stroke-linejoin="round"/></g></symbol><symbol id="icon-vk"><g fill="none"><path d="M21.192 28C13.601 28 9.271 22.745 9.09 14h3.803c.125 6.419 2.928 9.137 5.148 9.698V14h3.582v5.535c2.192-.238 4.496-2.76 5.273-5.535h3.581a10.73 10.73 0 0 1-1.715 4.002 10.614 10.614 0 0 1-3.157 2.977 10.982 10.982 0 0 1 3.599 2.893A11.118 11.118 0 0 1 31.31 28h-3.942a6.933 6.933 0 0 0-2.125-3.377 6.825 6.825 0 0 0-3.62-1.626V28h-.43Z" fill="currentColor"/></g></symbol><symbol id="icon-whatsap"><g fill="none"><path d="M27.927 12.063A10.429 10.429 0 0 0 20.537 9c-5.781 0-10.464 4.667-10.464 10.427 0 1.823.512 3.646 1.39 5.177L10 30l5.561-1.458c1.537.802 3.22 1.24 4.976 1.24 5.78 0 10.463-4.667 10.463-10.428-.073-2.698-1.098-5.323-3.073-7.291Zm-2.342 11.083c-.22.583-1.244 1.166-1.756 1.24a4.098 4.098 0 0 1-1.61-.073c-.366-.146-.878-.292-1.463-.584-2.634-1.094-4.317-3.719-4.463-3.937-.146-.146-1.098-1.386-1.098-2.698 0-1.313.659-1.896.878-2.188.22-.291.512-.291.732-.291h.512c.146 0 .366-.073.585.437.22.51.732 1.823.805 1.896a.466.466 0 0 1 0 .437 1.525 1.525 0 0 1-.292.438c-.147.146-.293.364-.366.437-.147.146-.293.292-.147.51.147.293.659 1.095 1.464 1.824 1.024.875 1.83 1.166 2.122 1.312.292.146.439.073.585-.073.147-.145.659-.729.805-1.02.146-.292.366-.22.585-.146.22.073 1.537.729 1.757.875.292.145.439.218.512.291.073.22.073.73-.147 1.313Z" fill="currentColor"/></g></symbol><symbol id="icon-whatsup"><g fill="none"><path d="M19 9.756c0 5.11-4.176 9.255-9.328 9.255a9.356 9.356 0 0 1-4.508-1.151L0 19.5l1.683-4.967A9.161 9.161 0 0 1 .346 9.755C.346 4.644 4.52.5 9.673.5 14.825.501 19 4.644 19 9.756Zm-9.329-7.78c-4.324 0-7.84 3.49-7.84 7.781 0 1.703.554 3.28 1.493 4.562l-.979 2.889 3.012-.958a7.84 7.84 0 0 0 4.314 1.287c4.324 0 7.843-3.49 7.843-7.781 0-4.29-3.518-7.78-7.843-7.78Zm4.711 9.912c-.058-.094-.21-.151-.438-.265-.228-.114-1.353-.662-1.562-.737-.21-.076-.363-.114-.516.113-.15.227-.589.738-.723.89-.133.152-.267.171-.495.06-.229-.116-.966-.354-1.84-1.127-.68-.602-1.138-1.343-1.271-1.57-.135-.227-.014-.35.1-.463.102-.102.228-.265.343-.398.115-.132.152-.226.229-.378.075-.151.037-.283-.02-.398-.057-.114-.513-1.23-.705-1.683-.19-.454-.38-.379-.514-.379-.133 0-.286-.018-.438-.018-.152 0-.4.055-.609.282-.209.227-.8.776-.8 1.892 0 1.118.819 2.195.933 2.347.115.15 1.583 2.516 3.907 3.424 2.325.908 2.325.605 2.744.567.42-.039 1.353-.549 1.542-1.078.191-.531.191-.987.133-1.082Z" fill="currentColor"/></g></symbol></svg>