<svg width="24" height="25" viewBox="0 0 24 25" fill="none" xmlns="http://www.w3.org/2000/svg">
<path d="M16.8051 9.18689C16.8672 9.24599 16.9164 9.31619 16.95 9.39348C16.9836 9.47076 17.0009 9.55362 17.0009 9.63729C17.0009 9.72097 16.9836 9.80383 16.95 9.88111C16.9164 9.9584 16.8672 10.0286 16.8051 10.0877L10.8051 15.8131C10.7431 15.8723 10.6696 15.9194 10.5886 15.9514C10.5076 15.9835 10.4208 16 10.3331 16C10.2454 16 10.1586 15.9835 10.0776 15.9514C9.99657 15.9194 9.923 15.8723 9.86108 15.8131L7.19441 13.2685C7.06923 13.149 6.9989 12.987 6.9989 12.8181C6.9989 12.6491 7.06923 12.4871 7.19441 12.3677C7.31959 12.2482 7.48938 12.1811 7.66641 12.1811C7.84344 12.1811 8.01323 12.2482 8.13841 12.3677L10.3331 14.4632L15.8611 9.18689C15.923 9.12765 15.9966 9.08065 16.0776 9.04858C16.1586 9.01651 16.2454 9 16.3331 9C16.4208 9 16.5076 9.01651 16.5886 9.04858C16.6696 9.08065 16.7431 9.12765 16.8051 9.18689Z" fill="currentColor"/>
</svg>
