<svg width="24" height="25" viewBox="0 0 24 25" fill="none" xmlns="http://www.w3.org/2000/svg">
<path d="M8.84982 9.34981C9.0952 9.31696 9.34562 9.3 9.6 9.3C12.6928 9.3 15.2 11.8072 15.2 14.9C15.2 15.1544 15.183 15.4048 15.1502 15.6502M8.84982 9.34981C9.21639 6.61174 11.5616 4.5 14.4 4.5C17.4928 4.5 20 7.0072 20 10.1C20 12.9384 17.8883 15.2836 15.1502 15.6502M8.84982 9.34981C6.11174 9.71639 4 12.0616 4 14.9C4 17.9928 6.50721 20.5 9.6 20.5C12.4384 20.5 14.7836 18.3883 15.1502 15.6502" stroke="currentColor" stroke-width="1.5"/>
</svg>
