<svg viewBox="0 0 33 33" fill="none" xmlns="http://www.w3.org/2000/svg">
<path d="M11.6685 11.6685C12.0059 11.6233 12.3502 11.6 12.7 11.6C16.9526 11.6 20.4 15.0474 20.4 19.3C20.4 19.6498 20.3767 19.9941 20.3315 20.3315M11.6685 11.6685C12.1725 7.90364 15.3972 5 19.3 5C23.5526 5 27 8.44741 27 12.7C27 16.6028 24.0964 19.8275 20.3315 20.3315M11.6685 11.6685C7.90364 12.1725 5 15.3972 5 19.3C5 23.5526 8.44741 27 12.7 27C16.6028 27 19.8275 24.0964 20.3315 20.3315" stroke="currentColor" stroke-width="2.0625"/>
</svg>
