<svg width="25" height="25" viewBox="0 0 25 25" fill="none" xmlns="http://www.w3.org/2000/svg">
<path d="M21.1303 7.68167C20.6131 6.3672 19.6255 5.35927 18.3494 4.84315C17.7976 4.62016 17.2387 4.50699 16.6889 4.50699C14.8601 4.50699 13.5807 5.72477 13.0814 6.29566C12.5846 5.72282 11.3108 4.5 9.48257 4.5C8.93441 4.5 8.37727 4.61289 7.82631 4.8356C6.55019 5.35172 5.56233 6.35965 5.04509 7.67384C4.49328 9.07634 4.54694 10.6658 5.19259 12.0353C6.10936 13.9793 8.19352 17.0059 12.9162 20.3826L13.08 20.5L13.2438 20.3826C17.9898 16.9892 20.0717 13.974 20.9823 12.0423C21.6285 10.6733 21.6821 9.08388 21.1303 7.68167Z" stroke="currentColor" stroke-width="1.5" stroke-linejoin="round"/>
</svg>
