<svg viewBox="0 0 40 40" fill="none" xmlns="http://www.w3.org/2000/svg">
<path d="M11.2158 15.7221C11.655 16.6743 12.2529 17.5345 13.1066 18.1714C14.1199 18.9273 15.5887 19.3218 16.8463 19.0876C17.2914 19.0047 17.6867 18.6095 17.8081 18.175C18.2361 16.6433 16.2284 15.747 15.0887 15.4118C14.6732 15.2896 13.8061 15.0426 13.3621 15.295C13.3437 15.3055 13.3138 15.3697 13.2745 15.3388C13.0286 15.1455 12.8087 14.7684 12.6193 14.5358C12.3826 14.245 12.2498 14.0857 12.0097 13.8185C12.0058 13.8141 11.8207 13.6394 11.8053 13.5703C11.7464 13.3049 12.3387 12.9781 12.5043 12.9078C12.9936 12.7002 13.5499 12.6632 14.0739 12.6632C14.9206 12.6632 15.8128 12.7149 16.6382 12.9187C17.6105 13.1589 18.2009 14.2063 18.801 14.9263C19.0576 15.2343 19.5646 16.0257 20.0603 15.9739C20.2041 15.9589 20.3236 15.7858 20.4034 15.6965C20.7945 15.2587 21.2174 14.9376 21.7138 14.6179C22.4089 14.1702 23.147 13.7395 23.8966 13.3859C24.4733 13.114 25.0717 12.8611 25.7199 12.8694C26.3178 12.8771 26.9611 12.9637 27.525 13.1706C27.83 13.2825 28.0076 13.5433 28.1345 13.8313C28.5115 14.6864 28.5339 15.6443 28.8573 16.5105C28.8961 16.6146 28.947 16.7034 29.0069 16.7952C29.1915 17.0783 29.211 17.532 29.2479 17.8538C29.2851 18.1794 29.2862 18.501 29.2369 18.8248C29.2114 18.9925 29.2301 18.8605 29.2314 18.8521C29.2896 18.4973 29.3491 18.1422 29.3866 17.7845C29.4489 17.189 29.4709 16.5951 29.3428 16.0068C29.3425 16.0055 29.2475 15.6301 29.215 15.587C29.2045 15.5731 29.1776 15.6013 29.173 15.6181C29.1027 15.876 29.1142 16.1496 29.0872 16.4156C28.9773 17.5007 28.8567 18.5969 28.5999 19.6588C28.4644 20.2194 28.2269 20.6487 27.8936 21.1098C27.3343 21.8836 26.7186 22.5404 26.0156 23.1886C25.1116 24.0221 24.1074 24.7906 23.3144 25.7383C22.9859 26.1309 22.6761 26.6583 22.2176 26.9173C21.6842 27.2185 21.0249 27.1691 20.4344 27.2038C20.2676 27.2136 20.0935 27.2333 19.9307 27.1837C19.9071 27.1766 19.6894 27.0525 19.7281 27.1399C19.7748 27.2455 20.0858 27.502 20.0858 27.5688C20.0858 27.6074 20.0964 27.6155 20.0585 27.5561C19.7198 27.0255 19.301 26.5542 18.9141 26.0595C18.6085 25.6686 18.343 25.2455 17.9724 24.9097C17.1685 24.1814 16.2098 23.6374 15.3789 22.9404C14.4076 22.1256 13.6811 21.006 12.9971 19.9527C12.6362 19.3968 12.2859 18.8284 11.8966 18.2918C11.8526 18.2311 11.7824 18.1357 11.7232 18.0765C11.6658 18.0191 11.7469 18.2388 11.778 18.3137C12.2454 19.4408 12.7974 20.5405 13.3694 21.6172C13.7372 22.3094 14.2298 23.1896 14.6507 23.8584C15.0681 24.5218 15.5215 25.2009 16.098 25.7401C16.5604 26.1726 17.1947 26.4138 17.83 26.4245C18.2013 26.4308 18.6815 26.3679 18.9616 26.096C19.1912 25.873 19.3103 25.5028 19.3521 25.2017C19.4839 24.2532 19.2841 23.2755 19.093 22.3527C19.0066 21.9358 18.7671 21.1518 18.8119 20.6754C18.8838 19.9106 19.6667 19.3713 20.2245 18.9671C21.0705 18.3542 22.011 17.9105 22.9184 17.403C23.1747 17.2596 23.4087 16.9968 23.6229 16.8098C24.1482 16.3513 24.6711 15.8825 25.2107 15.441C25.3281 15.345 25.3943 15.6884 25.4443 15.8316C25.5032 16.0001 25.7689 16.8034 25.7875 16.9413C25.9244 17.9563 25.3487 18.73 24.7508 19.4873C24.1634 20.2313 23.7422 20.6293 23.1027 21.296C22.8425 21.5672 22.5231 21.8643 22.3198 22.1957C22.1637 22.45 22.0541 22.8534 22.0642 23.1576C22.0701 23.3338 21.692 23.446 21.5642 23.3437" stroke="#0E0E0E" stroke-width="4.125" stroke-linecap="round"/>
<path d="M7.625 16.2375C7.625 21.3421 12.074 26.3627 19.1028 30.6765C19.3645 30.8322 19.7383 31 20 31C20.2617 31 20.6356 30.8322 20.9098 30.6765C27.926 26.3627 32.375 21.3421 32.375 16.2375C32.375 11.9956 29.3467 9 25.3089 9C23.0034 9 21.1341 10.0545 20 11.6721C18.8909 10.0664 16.9966 9 14.6911 9C10.6533 9 7.625 11.9956 7.625 16.2375ZM9.63142 16.2375C9.63142 13.0501 11.7749 10.9292 14.6662 10.9292C17.0091 10.9292 18.355 12.3312 19.1525 13.5294C19.489 14.0087 19.701 14.1405 20 14.1405C20.2991 14.1405 20.4861 13.9967 20.8475 13.5294C21.7074 12.3551 23.0034 10.9292 25.3338 10.9292C28.2251 10.9292 30.3686 13.0501 30.3686 16.2375C30.3686 20.6949 25.4709 25.5 20.2617 28.8312C20.1371 28.915 20.0499 28.9749 20 28.9749C19.9501 28.9749 19.8629 28.915 19.7507 28.8312C14.5291 25.5 9.63142 20.6949 9.63142 16.2375Z" fill="#0E0E0E"/>
</svg>
