<svg viewBox="0 0 24 24" fill="none" xmlns="http://www.w3.org/2000/svg" xmlns:xlink="http://www.w3.org/1999/xlink">
	<desc>
			Created with Pixso.
	</desc>
	<defs/>
	<path id="Vector" d="M20 7L9.7998 7M13.2002 17L3 17" stroke="currentColor" stroke-opacity="1.000000" stroke-width="1.500000" stroke-linejoin="round"/>
	<path id="Vector" d="M17 20C15.3433 20 14 18.6569 14 17C14 15.3431 15.3433 14 17 14C18.6567 14 20 15.3431 20 17C20 18.6569 18.6567 20 17 20Z" stroke="currentColor" stroke-opacity="1.000000" stroke-width="1.500000" stroke-linejoin="round"/>
	<path id="Vector" d="M6 10C4.34326 10 3 8.65686 3 7C3 5.34314 4.34326 4 6 4C7.65674 4 9 5.34314 9 7C9 8.65686 7.65674 10 6 10Z" stroke="currentColor" stroke-opacity="1.000000" stroke-width="1.500000" stroke-linejoin="round"/>
</svg>
