<svg width="24" height="24" viewBox="0 0 24 24" fill="none" xmlns="http://www.w3.org/2000/svg">
<path d="M3 9C4.10457 9 5 9.89543 5 11V19C5 20.1046 4.10457 21 3 21C1.89543 21 1 20.1046 1 19V11C1 9.89543 1.89543 9 3 9ZM9 21C8.46957 21 7.96086 20.7893 7.58579 20.4142C7.21071 20.0391 7 19.5304 7 19V9C7 8.45 7.22 7.95 7.59 7.59L13.1108 2.0608C13.6957 1.47507 14.6447 1.47471 15.23 2.06C15.5 2.33 15.67 2.7 15.67 3.11L15.64 3.43L14.69 8H21C22.11 8 23 8.9 23 10V12C23 12.26 22.95 12.5 22.86 12.73L19.84 19.78C19.54 20.5 18.83 21 18 21H9ZM9 19H18.03L20.9206 12.1872C20.973 12.0637 21 11.9308 21 11.7966V11C21 10.4477 20.5523 10 20 10H13.5369C12.8722 10 12.3925 9.36344 12.5757 8.72443L13.4279 5.75136C13.4724 5.59624 13.4292 5.42921 13.3151 5.3151C13.1413 5.14127 12.8593 5.14179 12.6861 5.31627L9 9.03V19Z" fill="currentColor"/>
</svg>
