<svg width="24" height="24" viewBox="0 0 24 24" fill="none" xmlns="http://www.w3.org/2000/svg">
<path d="M16.3804 21C17.9907 21 19.0491 20.5675 19.9785 19.5184C20.0521 19.4448 20.1258 19.3619 20.1901 19.2884C20.7424 18.6718 21 18.0644 21 17.4847C21 16.8222 20.6135 16.2056 19.7944 15.635L17.1166 13.7761C16.2883 13.2056 15.3221 13.1412 14.549 13.905L13.8405 14.6136C13.6289 14.8252 13.4448 14.8344 13.2423 14.7056C12.7454 14.3927 11.7423 13.5185 11.0613 12.8375C10.3435 12.1289 9.65337 11.3376 9.28527 10.7578C9.16564 10.5461 9.17484 10.3713 9.38649 10.1596L10.0859 9.45106C10.8589 8.67806 10.7945 7.70262 10.2239 6.88361L8.36502 4.20573C7.79447 3.38673 7.17791 3.00943 6.51533 3.00023C5.93558 2.99103 5.32822 3.2579 4.71166 3.81003C4.62883 3.88365 4.55521 3.94807 4.48159 4.01249C3.43251 4.95112 3 6.00939 3 7.60139C3 10.2333 4.61963 13.4357 7.59202 16.408C10.546 19.3619 13.7576 21 16.3804 21ZM16.3896 19.5828C14.0429 19.6288 11.0338 17.8252 8.6503 15.451C6.24846 13.0584 4.36197 9.94798 4.40797 7.60139C4.42638 6.58914 4.78528 5.71491 5.50306 5.08916C5.56748 5.03395 5.61349 4.98793 5.67791 4.94192C5.95399 4.70266 6.24846 4.57383 6.51533 4.57383C6.78221 4.57383 7.02147 4.67506 7.19631 4.95112L8.98159 7.629C9.17484 7.91427 9.19325 8.23635 8.90797 8.52162L8.09816 9.33143C7.46318 9.96639 7.5092 10.7394 7.96932 11.3559C8.49386 12.0645 9.4049 13.0952 10.1135 13.7946C10.8129 14.5031 11.9264 15.497 12.6441 16.0307C13.2607 16.4909 14.0337 16.5369 14.6687 15.9019L15.4785 15.0921C15.7638 14.8069 16.0766 14.8252 16.3711 15.0093L19.0491 16.7945C19.3252 16.9786 19.4264 17.2086 19.4264 17.4847C19.4264 17.7516 19.2975 18.0461 19.0582 18.3221C19.003 18.3865 18.9662 18.4325 18.911 18.497C18.2852 19.2147 17.4111 19.5644 16.3896 19.5828Z" fill="currentColor"/>
</svg>
