<svg width="41" height="40" viewBox="0 0 41 40" fill="none" xmlns="http://www.w3.org/2000/svg">
<rect width="40.4" height="40" rx="20" fill="url(#paint0_radial_295_5180)"/>
<path d="M19.9973 16.6651C18.1611 16.6651 16.6626 18.1636 16.6626 19.9998C16.6626 21.836 18.1611 23.3345 19.9973 23.3345C21.8335 23.3345 23.332 21.836 23.332 19.9998C23.332 18.1636 21.8335 16.6651 19.9973 16.6651ZM29.9989 19.9998C29.9989 18.6189 30.0114 17.2505 29.9338 15.8721C29.8563 14.271 29.4911 12.8501 28.3203 11.6793C27.147 10.5061 25.7286 10.1433 24.1275 10.0658C22.7466 9.98824 21.3782 10.0007 19.9998 10.0007C18.6189 10.0007 17.2505 9.98824 15.8721 10.0658C14.271 10.1433 12.8501 10.5086 11.6793 11.6793C10.5061 12.8526 10.1433 14.271 10.0658 15.8721C9.98824 17.253 10.0007 18.6214 10.0007 19.9998C10.0007 21.3782 9.98824 22.7491 10.0658 24.1275C10.1433 25.7286 10.5086 27.1495 11.6793 28.3203C12.8526 29.4936 14.271 29.8563 15.8721 29.9338C17.253 30.0114 18.6214 29.9989 19.9998 29.9989C21.3807 29.9989 22.7491 30.0114 24.1275 29.9338C25.7286 29.8563 27.1495 29.4911 28.3203 28.3203C29.4936 27.147 29.8563 25.7286 29.9338 24.1275C30.0139 22.7491 29.9989 21.3807 29.9989 19.9998ZM19.9973 25.1307C17.1579 25.1307 14.8664 22.8392 14.8664 19.9998C14.8664 17.1604 17.1579 14.8689 19.9973 14.8689C22.8367 14.8689 25.1282 17.1604 25.1282 19.9998C25.1282 22.8392 22.8367 25.1307 19.9973 25.1307ZM25.3383 15.8571C24.6754 15.8571 24.14 15.3217 24.14 14.6588C24.14 13.9959 24.6754 13.4605 25.3383 13.4605C26.0013 13.4605 26.5366 13.9959 26.5366 14.6588C26.5368 14.8162 26.5059 14.9721 26.4458 15.1176C26.3856 15.2631 26.2974 15.3953 26.1861 15.5066C26.0748 15.6179 25.9426 15.7061 25.7971 15.7663C25.6516 15.8264 25.4957 15.8573 25.3383 15.8571Z" fill="white"/>
<defs>
<radialGradient id="paint0_radial_295_5180" cx="0" cy="0" r="1" gradientUnits="userSpaceOnUse" gradientTransform="translate(41.2127 0.812501) scale(93.2956 92.3719)">
<stop stop-color="#F9ED32"/>
<stop offset="0.36" stop-color="#EE2A7B"/>
<stop offset="0.44" stop-color="#D22A8A"/>
<stop offset="0.6" stop-color="#8B2AB2"/>
<stop offset="0.83" stop-color="#1B2AF0"/>
<stop offset="0.88" stop-color="#002AFF"/>
</radialGradient>
</defs>
</svg>
