<svg  viewBox="0 0 100 45" fill="none" xmlns="http://www.w3.org/2000/svg">
<path d="M73.4198 42.2075L73.4149 35.2188C73.8345 34.947 74.3272 34.8433 74.8858 34.8433C75.742 34.8433 76.4274 35.157 76.9421 35.787C77.4616 36.4194 77.7226 37.3754 77.7226 38.6625C77.7226 39.9595 77.4567 40.9353 76.9274 41.5825C76.3957 42.2322 75.7151 42.5558 74.8858 42.5558C74.3345 42.5558 73.8467 42.4916 73.4198 42.2075ZM79.6472 40.6857V44.2851H76.4396C77.247 44.0479 77.9397 43.6057 78.5056 42.9634C79.0496 42.3434 79.4277 41.5874 79.6472 40.6857ZM73.4125 17.0738L61.5577 31.9381L49.6932 17.1331L49.7103 44.2851H43.4829L43.4609 0.613647H44.5903L61.5846 22.6964L78.43 0.613647H79.6252L79.6448 36.7257C79.4301 35.8166 79.0471 35.0557 78.4983 34.4406C77.586 33.4129 76.381 32.8991 74.8663 32.8991C74.3443 32.8991 73.8637 32.9584 73.4149 33.072L73.4125 17.0738Z" fill="currentColor"/>
<path d="M31.1473 30.4929L37.3576 30.5325H37.365V30.5374C37.265 30.9499 37.1503 31.365 37.021 31.7726C36.9015 32.1802 36.7625 32.5853 36.6137 32.9806C36.321 33.7662 35.977 34.5221 35.5843 35.2459C35.2087 35.9525 34.7818 36.6269 34.3061 37.2692C33.8524 37.8843 33.3719 38.4723 32.8597 39.0281C32.345 39.5839 31.7986 40.1077 31.2229 40.5869C30.7034 41.0242 30.1497 41.4244 29.5789 41.7801C29.0203 42.1284 28.4398 42.4348 27.8373 42.6966C27.2128 42.9684 26.5713 43.2055 25.9225 43.4031C25.2712 43.6082 24.6077 43.7737 23.9369 43.9046C23.2417 44.0405 22.5441 44.1418 21.8416 44.206C21.1196 44.2703 20.3878 44.295 19.6585 44.295C19.0316 44.2875 18.4096 44.253 17.79 44.1887C17.1704 44.1294 16.5557 44.0331 15.941 43.912C15.3337 43.7885 14.7312 43.6403 14.1336 43.455C13.5286 43.2747 12.9383 43.0672 12.3578 42.8251C11.7797 42.5879 11.204 42.3236 10.6454 42.0346C10.0868 41.7455 9.54534 41.4244 9.01358 41.0859C8.4867 40.7425 7.97202 40.3769 7.47441 39.9866C6.97193 39.5913 6.48408 39.1714 6.02062 38.7292C5.56204 38.2969 5.13761 37.8374 4.7327 37.3482C4.32534 36.8517 3.9375 36.3255 3.58137 35.7795C3.19597 35.1768 2.84228 34.5518 2.5203 33.907C2.19588 33.2573 1.90073 32.5977 1.64217 31.9233C1.35922 31.2044 1.12261 30.4707 0.912835 29.7296C0.70306 28.9613 0.532312 28.1881 0.400593 27.4099C0.261556 26.5897 0.156668 25.7621 0.095687 24.9321C0.0225095 24.065 -0.00432208 23.1954 0.000556416 22.3234C0.00787416 21.439 0.0444632 20.5472 0.127398 19.6603C0.205454 18.8105 0.31522 17.9656 0.464014 17.1306C0.612808 16.3376 0.790873 15.5545 1.01041 14.7862C1.2275 14.0377 1.4763 13.2991 1.76901 12.5728C2.03977 11.8983 2.3398 11.2388 2.66666 10.594C2.99839 9.95169 3.36184 9.32668 3.75456 8.72391C4.12045 8.18042 4.50585 7.6567 4.92784 7.16509C5.33032 6.6809 5.76938 6.22635 6.22796 5.80144C6.69873 5.36913 7.19146 4.95657 7.69395 4.57366C8.19643 4.19075 8.71111 3.83502 9.24287 3.49905C9.77462 3.16801 10.321 2.86169 10.8747 2.585C11.4358 2.30585 12.0017 2.0514 12.5773 1.83648C13.1627 1.60673 13.7555 1.4091 14.3531 1.24359C14.9507 1.07313 15.5581 0.932317 16.1703 0.826091C16.7899 0.712453 17.4119 0.630931 18.0339 0.576583C18.6706 0.522234 19.3048 0.5 19.9414 0.5C20.639 0.507411 21.3415 0.546937 22.0367 0.618578C22.7173 0.690219 23.4027 0.796446 24.0759 0.937258C24.7394 1.07313 25.398 1.24359 26.0469 1.4511C26.6884 1.6512 27.3177 1.88589 27.9421 2.15763C28.5398 2.41702 29.1179 2.72088 29.674 3.06673C30.2448 3.41505 30.7912 3.81031 31.3156 4.24016C31.8864 4.70706 32.4279 5.2209 32.9377 5.75698C33.4475 6.30046 33.9281 6.87853 34.3744 7.47389C34.8452 8.08655 35.2648 8.74367 35.6404 9.42056C36.0185 10.1049 36.3551 10.8188 36.6356 11.5624C36.7625 11.8934 36.8844 12.2294 36.9893 12.5678C37.0991 12.9161 37.204 13.2645 37.2942 13.6177L37.3015 13.6227H37.2893L30.9888 13.5757H30.9839C30.5521 12.6024 30.0277 11.7057 29.3959 10.9028C28.7861 10.1296 28.0885 9.43785 27.2884 8.85484C26.1932 8.05196 24.998 7.50354 23.754 7.15521C22.5099 6.80195 21.2049 6.64631 19.8975 6.64137C18.9462 6.62902 18.0022 6.71301 17.0729 6.89582C16.1996 7.07122 15.3361 7.33802 14.5116 7.71105C13.6774 8.08161 12.9042 8.54851 12.1822 9.09693C11.4479 9.66265 10.7723 10.3124 10.16 11.0461C8.91113 12.5382 8.02568 14.2205 7.43782 16.014C6.7963 17.9977 6.51335 20.1223 6.49871 22.2987C6.48652 24.354 6.76947 26.318 7.36221 28.1609C7.94275 29.9494 8.816 31.6293 10.0112 33.1758C10.6088 33.949 11.2772 34.6506 12.009 35.2657C12.7115 35.8561 13.4823 36.365 14.3092 36.7776C15.141 37.1901 15.9971 37.4915 16.8777 37.6916C17.8022 37.9041 18.7462 38.0054 19.7024 38.0103C20.4049 38.0152 21.1074 37.9757 21.8099 37.8818C22.4685 37.7929 23.1271 37.657 23.7686 37.4619C24.4101 37.2667 25.0346 37.0197 25.6322 36.7183C26.2249 36.4218 26.7933 36.0735 27.3323 35.6733C27.8909 35.2608 28.3983 34.7939 28.8642 34.2825C29.3301 33.7687 29.7496 33.2029 30.1253 32.5952C30.3253 32.2642 30.5058 31.9282 30.6741 31.5799C30.8497 31.2266 31.0034 30.861 31.1498 30.488H31.1473V30.4929Z" fill="currentColor"/>
<path d="M92.0478 44.29V33.1411H99.7949V35.0235H94.1699V37.5038H99.4021V39.3862H94.1699V42.41H99.9997V44.2924H92.0478V44.29ZM83.6153 37.8645H85.1813C86.1936 37.8645 86.8229 37.8176 87.079 37.7237C87.3327 37.6347 87.5327 37.4766 87.6693 37.2518C87.8157 37.0295 87.8864 36.7503 87.8864 36.4144C87.8864 36.0364 87.7937 35.735 87.6035 35.5053C87.4157 35.2755 87.1522 35.1273 86.8083 35.068C86.6351 35.0384 86.1229 35.026 85.2691 35.026H83.6153V37.8645ZM81.498 44.29V33.1411H85.9497C87.0669 33.1411 87.8816 33.2424 88.3889 33.4425C88.8987 33.6426 89.3012 33.9983 89.6061 34.5122C89.911 35.026 90.0647 35.609 90.0647 36.2637C90.0647 37.1085 89.833 37.7928 89.3719 38.3413C88.9134 38.8848 88.2279 39.2257 87.3083 39.3689C87.762 39.6506 88.1401 39.9643 88.4328 40.3052C88.7304 40.6412 89.128 41.2514 89.6305 42.116L90.9087 44.2875H88.3816L86.8668 41.8566C86.3253 40.9895 85.9521 40.446 85.7497 40.2212C85.5496 39.9964 85.3399 39.8383 85.113 39.7568C84.8862 39.6753 84.53 39.6333 84.0471 39.6333H83.6153V44.29H81.498Z" fill="currentColor"/>
<path d="M63.8211 44.29V35.0235H60.7184V33.1411H69.0216V35.0235H65.9408V44.29H63.8211ZM73.4146 33.0719V35.2187C73.1366 35.3719 72.8902 35.5621 72.6658 35.8289C72.134 36.4662 71.8633 37.4297 71.8633 38.7069C71.8633 39.9693 72.1414 40.9327 72.6877 41.5874C72.9097 41.8467 73.1536 42.0543 73.4171 42.2074L73.4195 44.3443C72.4902 44.1319 71.6974 43.6724 71.0681 42.9757C70.1485 41.9604 69.6899 40.5671 69.6899 38.7859C69.6899 37.6471 69.8509 36.696 70.1656 35.9228C70.4046 35.3521 70.729 34.8432 71.1364 34.3887C71.5535 33.939 71.9999 33.6031 72.4926 33.3807C72.7853 33.2548 73.0902 33.1436 73.4146 33.0719ZM51.1589 40.6783L53.2225 40.4609C53.3421 41.197 53.5933 41.7356 53.9738 42.0765C54.3495 42.4248 54.8593 42.5953 55.5008 42.5953C56.174 42.5953 56.6912 42.4421 57.0326 42.1358C57.3766 41.8295 57.5498 41.4688 57.5498 41.0636C57.5498 40.7968 57.4766 40.572 57.3327 40.3867C57.1888 40.2015 56.9351 40.0434 56.5741 39.9075C56.3253 39.8136 55.7691 39.653 54.8934 39.4184C53.7665 39.1194 52.9737 38.7514 52.5152 38.3141C51.8736 37.694 51.559 36.9455 51.559 36.0611C51.559 35.4954 51.7102 34.9593 52.0078 34.4603C52.3127 33.9662 52.742 33.5932 53.3128 33.3338C53.8763 33.0744 54.5641 32.9435 55.3642 32.9435C56.6765 32.9435 57.6595 33.2498 58.3206 33.8699C58.984 34.4899 59.3329 35.3175 59.3646 36.3551L57.2473 36.4317C57.1522 35.8536 56.957 35.441 56.6643 35.194C56.3716 34.9396 55.9277 34.8111 55.3374 34.8111C54.73 34.8111 54.2519 34.947 53.9104 35.2187C53.6909 35.3892 53.5738 35.6263 53.5738 35.9154C53.5738 36.1797 53.6811 36.4045 53.8885 36.5922C54.1568 36.8294 54.8007 37.0814 55.8252 37.3432C56.8546 37.5977 57.6107 37.867 58.0986 38.1461C58.5913 38.4228 58.9767 38.7934 59.2548 39.2775C59.5304 39.7568 59.6695 40.3472 59.6695 41.0537C59.6695 41.6911 59.5036 42.2865 59.1719 42.8472C58.8377 43.4031 58.3694 43.8206 57.7571 44.0923C57.1497 44.3641 56.3911 44.4999 55.4837 44.4999C54.1617 44.4999 53.1445 44.1738 52.4347 43.5217C51.7224 42.867 51.298 41.9258 51.1589 40.6783Z" fill="currentColor"/>
</svg>
