<svg viewBox="0 0 24 25" fill="none" xmlns="http://www.w3.org/2000/svg">
<path d="M12 20.5C16.4183 20.5 20 16.9183 20 12.5C20 8.08172 16.4183 4.5 12 4.5C7.58172 4.5 4 8.08172 4 12.5C4 16.9183 7.58172 20.5 12 20.5Z" stroke="currentColor" stroke-width="1.5"/>
<path d="M16.8 18.9C15.6731 17.4369 13.9417 16.5 12 16.5C10.0582 16.5 8.32677 17.4369 7.19995 18.9" stroke="currentColor" stroke-width="1.5"/>
<path d="M14.4 11.7C14.4 13.0255 13.3255 14.1 12 14.1C10.6745 14.1 9.59998 13.0255 9.59998 11.7C9.59998 10.3746 10.6745 9.30005 12 9.30005C13.3255 9.30005 14.4 10.3746 14.4 11.7Z" stroke="currentColor" stroke-width="1.5"/>
</svg>
