<svg width="16" height="16" viewBox="0 0 17 16" fill="none" xmlns="http://www.w3.org/2000/svg">
<path d="M7.53369 7.18401C7.53369 6.97184 7.61798 6.76836 7.76801 6.61833C7.91804 6.4683 8.12152 6.38401 8.33369 6.38401C8.54586 6.38401 8.74935 6.4683 8.89938 6.61833C9.04941 6.76836 9.13369 6.97184 9.13369 7.18401V11.984C9.13369 12.1962 9.04941 12.3997 8.89938 12.5497C8.74935 12.6997 8.54586 12.784 8.33369 12.784C8.12152 12.784 7.91804 12.6997 7.76801 12.5497C7.61798 12.3997 7.53369 12.1962 7.53369 11.984V7.18401ZM8.33369 3.24081C8.12152 3.24081 7.91804 3.3251 7.76801 3.47513C7.61798 3.62516 7.53369 3.82864 7.53369 4.04081C7.53369 4.25299 7.61798 4.45647 7.76801 4.6065C7.91804 4.75653 8.12152 4.84081 8.33369 4.84081C8.54586 4.84081 8.74935 4.75653 8.89938 4.6065C9.04941 4.45647 9.13369 4.25299 9.13369 4.04081C9.13369 3.82864 9.04941 3.62516 8.89938 3.47513C8.74935 3.3251 8.54586 3.24081 8.33369 3.24081Z" fill="currentColor"/>
<path fill-rule="evenodd" clip-rule="evenodd" d="M8.3335 0C3.9151 0 0.333496 3.5816 0.333496 8C0.333496 12.4184 3.9151 16 8.3335 16C12.7519 16 16.3335 12.4184 16.3335 8C16.3335 3.5816 12.7519 0 8.3335 0ZM1.9335 8C1.9335 9.69739 2.60778 11.3253 3.80801 12.5255C5.00825 13.7257 6.63611 14.4 8.3335 14.4C10.0309 14.4 11.6587 13.7257 12.859 12.5255C14.0592 11.3253 14.7335 9.69739 14.7335 8C14.7335 6.30261 14.0592 4.67475 12.859 3.47452C11.6587 2.27428 10.0309 1.6 8.3335 1.6C6.63611 1.6 5.00825 2.27428 3.80801 3.47452C2.60778 4.67475 1.9335 6.30261 1.9335 8Z" fill="currentColor"/>
</svg>
