<svg width="24" height="24" viewBox="0 0 24 24" fill="none" xmlns="http://www.w3.org/2000/svg">
<path d="M19 6.66667H16.5294M16.5294 6.66667H7.47065M16.5294 6.66667C16.4834 6.66667 16.4604 6.66667 16.4395 6.6661C15.7614 6.64755 15.1632 6.18214 14.9324 5.49362C14.9254 5.4725 14.918 5.4486 14.9035 5.40176L14.8236 5.14286C14.7553 4.92186 14.7212 4.81133 14.6759 4.71751C14.4953 4.34318 14.1612 4.08323 13.7751 4.01668C13.6783 4 13.5704 4 13.3545 4H10.6456C10.4297 4 10.3218 4 10.225 4.01668C9.83889 4.08323 9.50476 4.34318 9.32417 4.71751C9.2789 4.81134 9.24477 4.92186 9.17652 5.14286L9.09657 5.40176C9.08203 5.44882 9.07473 5.47245 9.06764 5.49362C8.83689 6.18214 8.23866 6.64755 7.56053 6.6661C7.53967 6.66667 7.51666 6.66667 7.47065 6.66667M7.47065 6.66667H5M6.55556 9.6L7.22285 18.5227C7.28519 19.3563 7.96099 20 8.77382 20H15.2262C16.039 20 16.7148 19.3563 16.7772 18.5227L17.4444 9.6" stroke="currentColor" stroke-width="1.5" stroke-linecap="round" stroke-linejoin="round"/>
</svg>
