<svg viewBox="0 0 24 24" fill="none" xmlns="http://www.w3.org/2000/svg">
<path d="M8.35 12C8.35 12.9526 7.55818 13.75 6.55 13.75V15.25C8.35847 15.25 9.85 13.8089 9.85 12H8.35ZM6.55 13.75C5.54182 13.75 4.75 12.9526 4.75 12H3.25C3.25 13.8089 4.74153 15.25 6.55 15.25V13.75ZM4.75 12C4.75 11.0474 5.54182 10.25 6.55 10.25V8.75C4.74153 8.75 3.25 10.1911 3.25 12H4.75ZM6.55 10.25C7.55818 10.25 8.35 11.0474 8.35 12H9.85C9.85 10.1911 8.35847 8.75 6.55 8.75V10.25ZM8.71143 10.8395L14.7928 7.11398L14.0092 5.83492L7.92785 9.56047L8.71143 10.8395ZM18.55 18.5C18.55 19.4526 17.7582 20.25 16.75 20.25V21.75C18.5585 21.75 20.05 20.3089 20.05 18.5H18.55ZM16.75 20.25C15.7418 20.25 14.95 19.4526 14.95 18.5H13.45C13.45 20.3089 14.9415 21.75 16.75 21.75V20.25ZM14.95 18.5C14.95 17.5474 15.7418 16.75 16.75 16.75V15.25C14.9415 15.25 13.45 16.6911 13.45 18.5H14.95ZM16.75 16.75C17.7582 16.75 18.55 17.5474 18.55 18.5H20.05C20.05 16.6911 18.5585 15.25 16.75 15.25V16.75ZM18.55 5.5C18.55 6.45257 17.7582 7.25 16.75 7.25V8.75C18.5585 8.75 20.05 7.30886 20.05 5.5H18.55ZM16.75 7.25C15.7418 7.25 14.95 6.45257 14.95 5.5H13.45C13.45 7.30886 14.9415 8.75 16.75 8.75V7.25ZM14.95 5.5C14.95 4.54743 15.7418 3.75 16.75 3.75V2.25C14.9415 2.25 13.45 3.69114 13.45 5.5H14.95ZM16.75 3.75C17.7582 3.75 18.55 4.54743 18.55 5.5H20.05C20.05 3.69114 18.5585 2.25 16.75 2.25V3.75ZM7.92785 14.4395L14.0092 18.1651L14.7928 16.886L8.71143 13.1605L7.92785 14.4395Z" fill="currentColor"/>
</svg>
