<svg width="24" height="24" viewBox="0 0 24 24" fill="none" xmlns="http://www.w3.org/2000/svg">
    <path d="M12.269 1.87035C12.1579 1.64943 11.8423 1.65025 11.7323 1.87174L8.80914 7.7599C8.76525 7.84833 8.68066 7.9095 8.58293 7.92348L1.94069 8.87397C1.69355 8.90934 1.59522 9.2135 1.77489 9.38685L6.58301 14.0256C6.65496 14.095 6.6876 14.1957 6.67006 14.2941L5.52326 20.7304C5.47948 20.9761 5.7374 21.1647 5.95829 21.0485L11.8596 17.9439C11.9471 17.8979 12.0515 17.8979 12.139 17.9439L18.0426 21.0491C18.2633 21.1652 18.5211 20.9769 18.4777 20.7313L17.3391 14.2938C17.3217 14.1955 17.3543 14.0951 17.426 14.0258L22.2265 9.38634C22.4058 9.213 22.3076 8.90921 22.0607 8.87368L15.457 7.92344C15.3599 7.90947 15.2758 7.84892 15.2317 7.76129L12.269 1.87035Z" stroke="#0E0E0E" stroke-width="1.5" stroke-linejoin="round" fill="currentColor"/>
</svg>
