<svg viewBox="0 0 51 31.0001" fill="none" xmlns="http://www.w3.org/2000/svg" xmlns:xlink="http://www.w3.org/1999/xlink">
	<defs/>
	<path id="Background" d="M15.857 0.0921631C17.597 -0.00787354 19.335 0.00012207 21.075 0.00012207C21.087 0.00012207 29.892 0.00012207 29.892 0.00012207C31.666 0.00012207 33.404 -0.00787354 35.143 0.0921631C36.724 0.182129 38.264 0.374146 39.797 0.803162C43.024 1.70514 45.842 3.58917 47.879 6.26013C49.904 8.91412 51 12.1631 51 15.4991C51 18.8392 49.904 22.0862 47.879 24.7402C45.842 27.4102 43.024 29.2952 39.797 30.1971C38.264 30.6262 36.724 30.8171 35.143 30.9081C33.404 31.0082 31.666 30.9991 29.926 30.9991C29.914 30.9991 21.107 31.0001 21.107 31.0001C19.335 30.9991 17.597 31.0082 15.857 30.9081C14.277 30.8171 12.737 30.6262 11.204 30.1971C7.97701 29.2952 5.159 27.4102 3.12199 24.7402C1.097 22.0862 0 18.8392 0 15.5001C0 12.1631 1.097 8.91412 3.12199 6.26013C5.159 3.58917 7.97701 1.70514 11.204 0.803162C12.737 0.374146 14.277 0.182129 15.857 0.0921631Z" fill="currentColor" fill-opacity="1.000000" fill-rule="evenodd"/>
</svg>
