<svg width="19" height="16" viewBox="0 0 19 16" fill="none" xmlns="http://www.w3.org/2000/svg">
<path d="M17.364 0.119737C17.364 0.119737 19.1189 -0.513672 18.9936 1.13319C18.9936 1.76661 18.4922 4.30024 18.1161 6.83388L16.988 14.5615C16.988 14.5615 16.8626 15.7016 15.9852 15.955C15.1077 16.2083 13.7288 15.3216 13.4781 15.0682C13.2274 14.9415 9.84292 12.6613 8.58941 11.6478C8.21335 11.3945 7.8373 10.761 8.58941 10.1276L13.7288 5.18701C14.3556 4.5536 14.857 3.1601 12.4753 4.93365L5.58097 9.62084C5.58097 9.62084 4.82886 10.1276 3.32464 9.62084L0.316198 8.48074C0.316198 8.48074 -0.811966 7.72065 1.19366 6.96056C6.08237 4.68028 12.0993 2.40001 17.364 0.119737Z" fill="currentColor"/>
</svg>
