<svg width="40.399902" height="40.000000" viewBox="0 0 40.3999 40" fill="none" xmlns="http://www.w3.org/2000/svg" xmlns:xlink="http://www.w3.org/1999/xlink">
	<desc>
			Created with Pixso.
	</desc>
	<defs/>
	<path id="Vector" d="M21.1924 28C13.6006 28 9.27051 22.7448 9.08984 14L12.8926 14C13.0176 20.4185 15.8213 23.1371 18.0415 23.6978L18.0415 14L21.6226 14L21.6226 19.5355C23.8154 19.2972 26.1191 16.7748 26.8965 14L30.4771 14C30.1841 15.4391 29.6006 16.8016 28.7622 18.0024C27.9238 19.2034 26.8496 20.2167 25.6055 20.979C26.9941 21.6755 28.2202 22.6615 29.2036 23.8717C30.1865 25.082 30.9048 26.489 31.3101 28L27.3682 28C27.0044 26.6876 26.2651 25.5128 25.2432 24.6228C24.2212 23.7328 22.9614 23.1672 21.6226 22.9969L21.6226 28L21.1924 28Z" fill="currentColor" fill-opacity="1.000000" fill-rule="nonzero"/>
</svg>
