<svg width="19" height="20" viewBox="0 0 19 20" fill="none" xmlns="http://www.w3.org/2000/svg">
<path d="M19 9.75558C19 14.8669 14.8242 19.0105 9.67193 19.0105C8.03691 19.0105 6.50103 18.5923 5.16402 17.86L0 19.5L1.68334 14.533C0.834545 13.139 0.345714 11.5021 0.345714 9.75496C0.346333 4.64361 4.52092 0.5 9.67317 0.5C14.8248 0.501239 19 4.64423 19 9.75558ZM9.67131 1.97579C5.34741 1.97579 1.83018 5.46638 1.83018 9.75744C1.83018 11.46 2.3853 13.0361 3.32393 14.3186L2.34503 17.2076L5.35732 16.2504C6.59644 17.0633 8.07904 17.5366 9.67131 17.5366C13.9952 17.5366 17.5137 14.0466 17.5137 9.75558C17.5149 5.46638 13.9958 1.97579 9.67131 1.97579ZM14.3824 11.8875C14.3242 11.7939 14.1718 11.7369 13.9438 11.6229C13.7164 11.5089 12.5907 10.9606 12.3819 10.8863C12.1712 10.8101 12.0188 10.7717 11.8664 10.999C11.7159 11.2264 11.2772 11.7369 11.1428 11.8893C11.0096 12.0411 10.8764 12.0603 10.6477 11.9482C10.4191 11.833 9.68184 11.5951 8.80826 10.8225C8.12861 10.2203 7.66951 9.47864 7.53693 9.25126C7.40248 9.02451 7.5233 8.90183 7.63668 8.78907C7.73891 8.68685 7.8653 8.5239 7.97991 8.3907C8.09453 8.25873 8.13233 8.16518 8.20853 8.01339C8.2835 7.86159 8.2457 7.72963 8.18932 7.61501C8.13233 7.50101 7.67571 6.38581 7.48427 5.93167C7.29406 5.47815 7.10386 5.55312 6.97003 5.55312C6.83683 5.55312 6.68442 5.53453 6.53201 5.53453C6.37959 5.53453 6.13177 5.58967 5.92298 5.81705C5.71419 6.04443 5.12313 6.59274 5.12313 7.70918C5.12313 8.82687 5.94157 9.90428 6.05618 10.0555C6.17142 10.206 7.63854 12.5721 9.9625 13.4804C12.2877 14.388 12.2877 14.0851 12.7065 14.0466C13.1266 14.0082 14.0596 13.4983 14.2492 12.9692C14.4401 12.4377 14.4401 11.9823 14.3824 11.8875Z" fill="currentColor"/>
</svg>
