<svg width="210" height="210" fill="none" xmlns="http://www.w3.org/2000/svg"><path fill="#fff" d="M0 0h210v210H0z"/><path d="M93.559 72.327a4.357 4.357 0 015.419-2.933l70.994 21.133a4.356 4.356 0 012.933 5.42l-17.403 58.465a4.358 4.358 0 01-5.419 2.933l-70.995-21.132a4.357 4.357 0 01-2.933-5.42L93.56 72.327z" stroke="#D7D7D7" stroke-width="10" stroke-linecap="round" stroke-linejoin="round"/><g clip-path="url(#clip0_8697_71881)"><rect x="22" y="61.066" width="105.862" height="100.472" rx="15" transform="rotate(-15 22 61.066)" fill="#fff"/><path d="M38.16 79.29a4.358 4.358 0 013.082-5.336l71.548-19.172a4.359 4.359 0 015.337 3.081l15.788 58.923a4.356 4.356 0 01-3.081 5.336l-71.549 19.172a4.357 4.357 0 01-5.336-3.081L38.16 79.29z" stroke="#D7D7D7" stroke-width="10" stroke-linecap="round" stroke-linejoin="round"/><path d="M62.663 90.769a3.268 3.268 0 10-1.691-6.313 3.268 3.268 0 001.691 6.313z" stroke="#D7D7D7" stroke-width="8.714" stroke-linecap="round" stroke-linejoin="round"/><path d="M67.099 103.113l12.777 5.598 8.68-18.114 43.104 17.771 2.256 8.418a4.356 4.356 0 01-3.081 5.336l-71.55 19.172a4.359 4.359 0 01-5.337-3.081l-2.254-8.418 15.405-26.682z" stroke="#D7D7D7" stroke-width="10" stroke-linejoin="round"/></g><defs><clipPath id="clip0_8697_71881"><rect x="22" y="61.066" width="105.862" height="100.472" rx="15" transform="rotate(-15 22 61.066)" fill="#fff"/></clipPath></defs></svg>