<svg width="185" height="58" fill="none" xmlns="http://www.w3.org/2000/svg"><path d="M69.97 48.116A19.083 19.083 0 0089.086 29 19.083 19.083 0 0069.97 9.884 19.083 19.083 0 0050.855 29c-.096 10.583 8.58 19.116 19.115 19.116z" fill="#FED42B"/><path d="M29.116 48.116c10.557 0 19.116-8.559 19.116-19.116 0-10.558-8.559-19.116-19.116-19.116C18.558 9.884 10 18.442 10 29c0 10.557 8.558 19.116 19.116 19.116z" fill="#FC3F1D"/><path d="M31.882 20.61h-1.907c-3.29 0-4.958 1.668-4.958 4.195 0 2.812 1.144 4.195 3.576 5.863l1.906 1.383-5.482 8.533h-4.48l5.243-7.77c-3.051-2.146-4.72-4.195-4.72-7.77 0-4.482 3.051-7.533 8.915-7.533h5.863v22.93h-3.813V20.562h-.143v.048z" fill="#fff"/><mask id="a" style="mask-type:luminance" maskUnits="userSpaceOnUse" x="50" y="9" width="40" height="40"><path d="M69.968 48.116A19.083 19.083 0 0089.082 29 19.083 19.083 0 0069.968 9.884 19.083 19.083 0 0050.852 29c-.096 10.583 8.58 19.116 19.116 19.116z" fill="#fff"/></mask><g mask="url(#a)"><path d="M60.578 20.372L43.75 42.395l4.481 5.101 12.49-16.542-1.287 9.058 7.007 2.431 8.533-13.634c-.381 2.527-1 8.39 4.577 10.202 8.771 2.67 16.446-13.11 19.974-21.118l-5.101-2.67c-3.957 8.295-10.059 17.448-12.49 16.828-2.431-.62-.238-8.39 1.144-13.396v-.143l-7.77-2.67-9.296 15.16 1.287-8.295-6.721-2.335z" fill="#000"/></g><path d="M100.246 26.5v-8.727h.797v4.001h4.951v-4.001h.797V26.5h-.797v-4.01h-4.951v4.01h-.797zm10.53.15c-.395 0-.756-.078-1.083-.231a1.896 1.896 0 01-.78-.673c-.193-.296-.289-.654-.289-1.074 0-.324.061-.597.183-.818.122-.222.295-.404.52-.546a2.86 2.86 0 01.797-.336 7.37 7.37 0 011.014-.192c.366-.046.676-.085.929-.12.255-.034.45-.088.584-.161.133-.074.2-.194.2-.358v-.154c0-.446-.134-.797-.401-1.052-.264-.259-.645-.388-1.142-.388-.471 0-.856.104-1.155.311a1.73 1.73 0 00-.622.733l-.72-.26a2.13 2.13 0 01.614-.857 2.42 2.42 0 01.878-.464 3.31 3.31 0 011.764-.047c.273.065.525.179.758.341.233.16.422.382.567.669.145.284.217.645.217 1.082V26.5h-.758v-1.035h-.047a2.093 2.093 0 01-1.078 1.01c-.27.116-.587.174-.95.174zm.102-.695c.403 0 .753-.09 1.048-.269.296-.179.523-.416.682-.712.162-.298.243-.626.243-.984v-.946a.754.754 0 01-.286.145c-.13.043-.282.08-.456.115a20.227 20.227 0 01-.971.14 4.24 4.24 0 00-.946.214 1.36 1.36 0 00-.601.4c-.139.168-.209.384-.209.648 0 .398.142.706.426.925.284.216.641.323 1.07.323zm4.749-6h.759v5.83h2.684v-5.83h.759v5.83h2.685v-5.83h.758V26.5h-7.645v-6.546zm13.031 9v-9h.738v1.248h.089c.091-.196.216-.396.375-.6.159-.208.369-.383.631-.525.264-.142.596-.213.997-.213.54 0 1.011.142 1.415.426.406.281.721.676.946 1.185.227.506.341 1.095.341 1.768 0 .677-.114 1.269-.341 1.777-.225.509-.54.905-.946 1.19a2.382 2.382 0 01-1.407.425c-.394 0-.725-.07-.992-.213a2.04 2.04 0 01-.644-.524 3.014 3.014 0 01-.375-.614h-.068v3.67h-.759zm.75-5.723c0 .528.079.997.235 1.406.159.406.386.726.682.959.298.23.659.345 1.082.345.435 0 .801-.12 1.099-.358a2.24 2.24 0 00.686-.976c.16-.41.239-.868.239-1.377 0-.502-.078-.955-.234-1.359a2.165 2.165 0 00-.682-.959c-.301-.238-.671-.358-1.108-.358-.426 0-.788.116-1.087.346-.298.227-.525.542-.681.946-.154.4-.231.862-.231 1.384zm9.092 3.404c-.611 0-1.139-.142-1.585-.426a2.862 2.862 0 01-1.036-1.189c-.241-.508-.362-1.093-.362-1.755 0-.66.121-1.245.362-1.756a2.943 2.943 0 011.01-1.206 2.605 2.605 0 011.496-.439c.355 0 .697.065 1.027.196.329.128.625.325.886.592.265.265.473.598.627 1.002.153.4.23.875.23 1.423v.375h-5.114v-.669h4.338c0-.42-.085-.798-.255-1.133a1.987 1.987 0 00-.704-.802 1.84 1.84 0 00-1.035-.294c-.415 0-.78.111-1.095.333a2.28 2.28 0 00-.742.878 2.747 2.747 0 00-.268 1.193v.4c0 .52.089.975.268 1.364a2.1 2.1 0 00.772.9c.332.212.725.319 1.18.319.31 0 .581-.049.814-.145a1.741 1.741 0 00.959-.93l.72.235c-.1.276-.263.53-.49.763-.225.233-.506.42-.844.563a3 3 0 01-1.159.208zm5.085-1.214l3.456-5.468h.908V26.5h-.759v-5.467l-3.443 5.467h-.921v-6.546h.759v5.468zm2.587-7.65h.715c0 .407-.134.737-.404.99-.267.252-.632.379-1.096.379-.457 0-.819-.127-1.086-.38-.267-.252-.401-.582-.401-.988h.716c0 .221.06.409.179.562.122.15.32.226.592.226.273 0 .472-.075.597-.226a.862.862 0 00.188-.562zm2.863 2.899v-.716h5.114v.716h-2.165V26.5h-.758v-5.83h-2.191zm7.476 4.75l3.456-5.466h.907V26.5h-.758v-5.467l-3.443 5.467h-.921v-6.546h.759v5.468zm10.785-2.547v.716h-3.848v-.716h3.848zm-3.66-2.92V26.5h-.759v-6.546h.759zm4.218 0V26.5h-.758v-6.546h.758zm5.91 0v.716h-3.132v5.83h-.759v-6.546h3.891z" fill="#fff"/><g clip-path="url(#clip0_9466_5963)"><path d="M101.389 42.735c.222.171.503.112.838-.128l2.858-2.077 2.864 2.077c.335.24.61.3.837.128.222-.165.271-.438.135-.827l-1.129-3.322 2.886-2.05c.335-.235.47-.481.383-.748-.086-.256-.34-.384-.756-.38l-3.54.022-1.075-3.337c-.129-.395-.324-.593-.605-.593-.276 0-.47.198-.6.593l-1.075 3.337-3.54-.021c-.415-.005-.67.123-.756.379-.092.267.049.513.384.748l2.885 2.05-1.129 3.322c-.135.39-.086.662.135.827z" fill="#FED42B"/></g><g clip-path="url(#clip1_9466_5963)"><path d="M117.389 42.735c.222.171.503.112.838-.128l2.858-2.077 2.864 2.077c.335.24.61.3.837.128.222-.165.271-.438.135-.827l-1.129-3.322 2.886-2.05c.335-.235.47-.481.383-.748-.086-.256-.34-.384-.756-.38l-3.54.022-1.075-3.337c-.129-.395-.324-.593-.605-.593-.276 0-.47.198-.6.593l-1.075 3.337-3.539-.021c-.416-.005-.67.123-.757.379-.092.267.049.513.384.748l2.885 2.05-1.129 3.322c-.135.39-.086.662.135.827z" fill="#FED42B"/></g><g clip-path="url(#clip2_9466_5963)"><path d="M133.389 42.735c.222.171.503.112.838-.128l2.858-2.077 2.864 2.077c.335.24.61.3.837.128.222-.165.271-.438.135-.827l-1.129-3.322 2.886-2.05c.335-.235.47-.481.383-.748-.086-.256-.34-.384-.756-.38l-3.54.022-1.075-3.337c-.129-.395-.324-.593-.605-.593-.276 0-.47.198-.6.593l-1.075 3.337-3.539-.021c-.416-.005-.67.123-.757.379-.092.267.049.513.384.748l2.885 2.05-1.129 3.322c-.135.39-.086.662.135.827z" fill="#FED42B"/></g><g clip-path="url(#clip3_9466_5963)"><path d="M149.389 42.735c.222.171.503.112.838-.128l2.858-2.077 2.864 2.077c.335.24.61.3.837.128.222-.165.271-.438.135-.827l-1.129-3.322 2.886-2.05c.335-.235.47-.481.383-.748-.086-.256-.34-.384-.756-.38l-3.54.022-1.075-3.337c-.129-.395-.324-.593-.605-.593-.276 0-.47.198-.6.593l-1.075 3.337-3.539-.021c-.416-.005-.67.123-.757.379-.092.267.049.513.384.748l2.885 2.05-1.129 3.322c-.135.39-.086.662.135.827z" fill="#FED42B"/></g><g clip-path="url(#clip4_9466_5963)"><path d="M165.389 42.735c.222.171.503.112.838-.128l2.858-2.077 2.864 2.077c.335.24.61.3.837.128.222-.165.271-.438.135-.827l-1.129-3.322 2.886-2.05c.335-.235.47-.481.383-.748-.086-.256-.34-.384-.756-.38l-3.54.022-1.075-3.337c-.129-.395-.324-.593-.605-.593-.276 0-.47.198-.6.593l-1.075 3.337-3.539-.021c-.416-.005-.67.123-.757.379-.092.267.049.513.384.748l2.885 2.05-1.129 3.322c-.135.39-.086.662.135.827z" fill="#FED42B"/></g><defs><clipPath id="clip0_9466_5963"><path fill="#fff" transform="translate(99.087 31.5)" d="M0 0h12v12H0z"/></clipPath><clipPath id="clip1_9466_5963"><path fill="#fff" transform="translate(115.087 31.5)" d="M0 0h12v12H0z"/></clipPath><clipPath id="clip2_9466_5963"><path fill="#fff" transform="translate(131.087 31.5)" d="M0 0h12v12H0z"/></clipPath><clipPath id="clip3_9466_5963"><path fill="#fff" transform="translate(147.087 31.5)" d="M0 0h12v12H0z"/></clipPath><clipPath id="clip4_9466_5963"><path fill="#fff" transform="translate(163.087 31.5)" d="M0 0h12v12H0z"/></clipPath></defs></svg>