<svg width="24" height="25" fill="none" xmlns="http://www.w3.org/2000/svg"><path fill-rule="evenodd" clip-rule="evenodd" d="M17.91 2.022l3.96 6.984c.38.672-.12 1.494-.91 1.494h-7.92c-.79 0-1.29-.822-.91-1.494l3.96-6.984c.394-.696 1.426-.696 1.82 0zM17 3.75a.75.75 0 01.75.75v2a.75.75 0 01-1.5 0v-2a.75.75 0 01.75-.75zm0 4a.75.75 0 000 1.5h.01a.75.75 0 000-1.5H17z" fill="#0E0E0E"/><path fill-rule="evenodd" clip-rule="evenodd" d="M6 2.5h8.094l-3.269 5.766C9.84 10.006 11.18 12 13.041 12H20v8.5a2 2 0 01-2 2H6a2 2 0 01-2-2v-16a2 2 0 012-2zm3 16.25a.75.75 0 000 1.5h6a.75.75 0 000-1.5H9z" fill="#0E0E0E"/></svg>