<svg width="24" height="24" fill="none" xmlns="http://www.w3.org/2000/svg"><path d="M10.7 12.5c0 .3-1.3.7-2.3.7-1 0-2.1-.7-2.1-.9 0-.3.7-1.2 2.3-1.3.9-.1 1.9.5 2.1 1.5zm4.7-1.5c-1-.1-1.9.5-2.1 1.5 0 .3 1.2.7 2.3.7 1.1 0 2.1-.7 2.1-.9 0-.2-.7-1.2-2.3-1.3zm6.6 1c0 5.5-4.5 10-10 10S2 17.5 2 12 6.5 2 12 2s10 4.5 10 10zm-2-.8c0-2-.7-2.7-3.3-2.7-2.6 0-3.4 1.1-4.7 1.1-1.3 0-2-1.1-4.7-1.1S4 9.1 4 11.2c0 3.4 1.5 5.3 3.6 5.3 1.6 0 2.8-2 4.4-2 1.6 0 2.7 2 4.4 2 2.1 0 3.6-1.9 3.6-5.3z" fill="#0E0E0E"/></svg>