<?xml version="1.0" encoding="UTF-8"?><!DOCTYPE svg PUBLIC "-//W3C//DTD SVG 1.1//EN" "http://www.w3.org/Graphics/SVG/1.1/DTD/svg11.dtd"><svg xmlns="http://www.w3.org/2000/svg"><symbol id="icon-btn_arrow" viewBox="0 0 10 8"><path d="M4.222.962a1 1 0 0 1 1.556 0l3.968 4.91A1 1 0 0 1 8.968 7.5H1.032a1 1 0 0 1-.778-1.629L4.222.962z" fill="#005480"/></symbol><symbol id="icon-burger" viewBox="0 0 24 24"><path d="M22 18H2v-2h20v2zm0-5H2v-2h20v2zm0-5H2V6h20v2z" fill="#005480"/></symbol><symbol id="icon-clear-circle" viewBox="0 0 16 16"><path d="M8 0c4.424 0 8 3.576 8 8 0 4.424-3.576 8-8 8-4.424 0-8-3.576-8-8 0-4.424 3.576-8 8-8zm2.872 4L8 6.872 5.128 4 4 5.128 6.872 8 4 10.872 5.128 12 8 9.128 10.872 12 12 10.872 9.128 8 12 5.128 10.872 4z" fill="currentColor"/></symbol><symbol id="icon-close" viewBox="0 0 24 24"><path d="M19 6.41L17.59 5 12 10.59 6.41 5 5 6.41 10.59 12 5 17.59 6.41 19 12 13.41 17.59 19 19 17.59 13.41 12 19 6.41z" fill="#fff"/></symbol><symbol id="icon-folder-minus" viewBox="0 0 24 24"><path d="M20 5h-8.586L9.707 3.293A.996.996 0 0 0 9 3H4c-1.103 0-2 .897-2 2v14c0 1.103.897 2 2 2h16c1.103 0 2-.897 2-2V7c0-1.103-.897-2-2-2zM4 19V7h16l.002 12H4z" fill="#005480"/><path d="M7.874 12h8v2h-8v-2z" fill="#005480"/></symbol><symbol id="icon-folder-plus" viewBox="0 0 24 24"><path d="M20 21H4a2 2 0 0 1-2-2V5a2 2 0 0 1 2-2h6a1 1 0 0 1 .707.293L12.414 5H20a2 2 0 0 1 2 2v12a2 2 0 0 1-2 2zM4 7v12h16V7H4zm9 10h-2v-3H8v-2h3V9h2v3h3v2h-3v3z" fill="#005480"/></symbol><symbol id="icon-gear" viewBox="0 0 24 24"><path d="M12 8a4 4 0 1 1 0 8 4 4 0 0 1 0-8zm0 2a2 2 0 1 0 0 4 2 2 0 0 0 0-4zm-2 12c-.25 0-.46-.18-.5-.42l-.37-2.65c-.63-.25-1.17-.59-1.69-.99l-2.49 1.01c-.22.08-.49 0-.61-.22l-2-3.46a.493.493 0 0 1 .12-.64l2.11-1.66L4.5 12l.07-1-2.11-1.63a.493.493 0 0 1-.12-.64l2-3.46c.12-.22.39-.31.61-.22l2.49 1c.52-.39 1.06-.73 1.69-.98l.37-2.65c.04-.24.25-.42.5-.42h4c.25 0 .46.18.5.42l.37 2.65c.63.25 1.17.59 1.69.98l2.49-1c.22-.09.49 0 .61.22l2 3.46c.13.22.07.49-.12.64L19.43 11l.07 1-.07 1 2.11 1.63c.19.15.25.42.12.64l-2 3.46c-.12.22-.39.31-.61.22l-2.49-1c-.52.39-1.06.73-1.69.98l-.37 2.65c-.04.24-.25.42-.5.42h-4zm1.25-18l-.37 2.61c-1.2.25-2.26.89-3.03 1.78L5.44 7.35l-.75 1.3L6.8 10.2a5.55 5.55 0 0 0 0 3.6l-2.12 1.56.75 1.3 2.43-1.04c.77.88 1.82 1.52 3.01 1.76l.37 2.62h1.52l.37-2.61c1.19-.25 2.24-.89 3.01-1.77l2.43 1.04.75-1.3-2.12-1.55c.4-1.17.4-2.44 0-3.61l2.11-1.55-.75-1.3-2.41 1.04a5.42 5.42 0 0 0-3.03-1.77L12.75 4h-1.5z" fill="currentColor"/></symbol><symbol id="icon-gift" viewBox="0 0 24 24"><path d="M22 12v8a2 2 0 0 1-2 2H4a2 2 0 0 1-2-2v-8a1 1 0 0 1-1-1V8a2 2 0 0 1 2-2h3.17A3 3 0 0 1 9 2c1 0 1.88.5 2.43 1.24v-.01L12 4l.57-.77v.01C13.12 2.5 14 2 15 2a3 3 0 0 1 2.83 4H21a2 2 0 0 1 2 2v3a1 1 0 0 1-1 1zM4 20h7v-8H4v8zm16 0v-8h-7v8h7zM9 4a1 1 0 1 0 0 2 1 1 0 0 0 0-2zm6 0a1 1 0 1 0 0 2 1 1 0 0 0 0-2zM3 8v2h8V8H3zm10 0v2h8V8h-8z" fill="currentColor"/></symbol><symbol id="icon-large" viewBox="0 0 24 24"><path d="M21 3H3c-.6 0-1 .4-1 1v6c0 .6.4 1 1 1h18c.6 0 1-.4 1-1V4c0-.6-.4-1-1-1zm0 10H3c-.6 0-1 .4-1 1v6c0 .6.4 1 1 1h18c.6 0 1-.4 1-1v-6c0-.6-.4-1-1-1z" fill="#005480"/></symbol><symbol id="icon-logout" viewBox="0 0 24 24"><path d="M14.08 15.59L16.67 13H7v-2h9.67l-2.59-2.59L15.5 7l5 5-5 5-1.42-1.41zM19 3a2 2 0 0 1 2 2v4.67l-2-2V5H5v14h14v-2.67l2-2V19a2 2 0 0 1-2 2H5a2 2 0 0 1-2-2V5c0-1.11.89-2 2-2h14z" fill="currentColor"/></symbol><symbol id="icon-medium" viewBox="0 0 24 24"><path fill-rule="evenodd" clip-rule="evenodd" d="M4 3a1 1 0 0 0-1 1v2a1 1 0 0 0 1 1h2a1 1 0 0 0 1-1V4a1 1 0 0 0-1-1H4zm6 0a1 1 0 0 0-1 1v2a1 1 0 0 0 1 1h10a1 1 0 0 0 1-1V4a1 1 0 0 0-1-1H10zM4 10a1 1 0 0 0-1 1v2a1 1 0 0 0 1 1h2a1 1 0 0 0 1-1v-2a1 1 0 0 0-1-1H4zm6 0a1 1 0 0 0-1 1v2a1 1 0 0 0 1 1h10a1 1 0 0 0 1-1v-2a1 1 0 0 0-1-1H10zM4 17a1 1 0 0 0-1 1v2a1 1 0 0 0 1 1h2a1 1 0 0 0 1-1v-2a1 1 0 0 0-1-1H4zm6 0a1 1 0 0 0-1 1v2a1 1 0 0 0 1 1h10a1 1 0 0 0 1-1v-2a1 1 0 0 0-1-1H10z" fill="#97ADBC"/></symbol><symbol id="icon-message" viewBox="0 0 24 24"><path d="M9 11h9v2H9v-2zm9-4H6v2h12V7zm4-3v18l-4-4H4a2 2 0 0 1-2-2V4c0-1.1.9-2 2-2h16a2 2 0 0 1 2 2zm-2 0H4v12h14.83L20 17.17V4z" fill="#005480"/></symbol><symbol id="icon-more" viewBox="0 0 24 24"><path d="M11 4a1 1 0 1 0 2 0 1 1 0 0 0-2 0zM11 12a1 1 0 1 0 2 0 1 1 0 0 0-2 0zM11 20a1 1 0 1 0 2 0 1 1 0 0 0-2 0z" stroke="#97ADBC" stroke-width="2"/></symbol><symbol id="icon-pin" viewBox="0 0 16 16"><path d="M8 1.333a5.339 5.339 0 0 0-5.333 5.33c-.02 4.297 5.13 7.86 5.333 8.004 0 0 5.353-3.707 5.334-8A5.34 5.34 0 0 0 8 1.334zm0 8A2.666 2.666 0 1 1 8 4a2.666 2.666 0 1 1 0 5.334z" fill="currentColor"/></symbol><symbol id="icon-plus" viewBox="0 0 24 24"><path d="M19 13h-6v6h-2v-6H5v-2h6V5h2v6h6v2z" fill="#fff"/></symbol><symbol id="icon-save" viewBox="0 0 24 24"><path d="M17 3H5a2 2 0 0 0-2 2v14a2 2 0 0 0 2 2h14c1.1 0 2-.9 2-2V7l-4-4zm2 16H5V5h11.17L19 7.83V19zm-7-7c-1.66 0-3 1.34-3 3s1.34 3 3 3 3-1.34 3-3-1.34-3-3-3zM6 6h9v4H6V6z" fill="#fff"/></symbol><symbol id="icon-search" viewBox="0 0 16 16"><path d="M6.571 1.143a5.428 5.428 0 0 1 4.397 8.613l3.638 3.638a.857.857 0 0 1-1.147 1.271l-.066-.058-3.637-3.638A5.428 5.428 0 1 1 6.57 1.143zm0 1.714a3.714 3.714 0 1 0 0 7.429 3.714 3.714 0 0 0 0-7.429z" fill="currentColor"/></symbol><symbol id="icon-small" viewBox="0 0 24 24"><rect x="3" y="3" width="18" height="3" rx="1" fill="#97ADBC"/><rect x="3" y="8" width="18" height="3" rx="1" fill="#97ADBC"/><rect x="3" y="13" width="18" height="3" rx="1" fill="#97ADBC"/><rect x="3" y="18" width="18" height="3" rx="1" fill="#97ADBC"/></symbol><symbol id="icon-sort" viewBox="0 0 24 24"><path d="M9.25 5l3.25-3.25L15.75 5h-6.5zm6.5 14l-3.25 3.25L9.25 19h6.5zm-6.86-4.7H6L5.28 17H2.91L6 7h3l3.13 10H9.67l-.78-2.7zm-2.56-1.62h2.23l-.63-2.12-.26-.97-.25-.96h-.03l-.22.97-.24.98-.6 2.1zM13.05 17v-1.26l4.75-6.77v-.06h-4.3V7h7.23v1.34L16.09 15v.08h4.71V17h-7.75z" fill="#005480"/></symbol><symbol id="icon-telegram" viewBox="0 0 24 24"><path fill-rule="evenodd" clip-rule="evenodd" d="M22 12c0 5.523-4.477 10-10 10-5.522 0-10-4.477-10-10C2 6.478 6.478 2 12 2c5.523 0 10 4.478 10 10zm-9.642-2.617c-.972.404-2.916 1.241-5.831 2.511-.474.188-.722.373-.745.553-.038.305.344.425.862.587l.22.07c.51.166 1.197.36 1.554.368.324.006.685-.127 1.085-.4 2.723-1.84 4.129-2.769 4.217-2.789.063-.014.15-.032.207.02.059.052.053.15.047.177-.038.16-1.533 1.552-2.308 2.272a23.4 23.4 0 0 0-.448.42c-.078.08-.158.158-.235.232-.475.457-.83.8.02 1.36.409.27.735.492 1.061.713.356.243.711.485 1.171.786.117.077.228.156.338.234.414.296.786.56 1.246.519.267-.025.543-.276.683-1.025.331-1.772.983-5.608 1.134-7.19.009-.131.003-.263-.017-.393a.422.422 0 0 0-.143-.271c-.12-.098-.304-.119-.388-.117-.376.007-.952.207-3.73 1.363z" fill="currentColor"/></symbol><symbol id="icon-triangle" viewBox="0 0 16 22"><path d="M2.5 14.5h11L8 5" fill="currentColor"/></symbol><symbol id="icon-user-edit" viewBox="0 0 24 24"><path d="M12 2a10 10 0 1 0 0 20 10 10 0 0 0 0-20zM7.07 18.28c.43-.9 3.05-1.78 4.93-1.78s4.5.88 4.93 1.78A7.893 7.893 0 0 1 12 20c-1.86 0-3.57-.64-4.93-1.72zm11.29-1.45c-1.43-1.74-4.9-2.33-6.36-2.33s-4.93.59-6.36 2.33A7.928 7.928 0 0 1 4 12c0-4.41 3.59-8 8-8s8 3.59 8 8c0 1.82-.62 3.5-1.64 4.83zM12 6c-1.94 0-3.5 1.56-3.5 3.5S10.06 13 12 13s3.5-1.56 3.5-3.5S13.94 6 12 6zm0 5a1.5 1.5 0 1 1 0-3 1.5 1.5 0 0 1 0 3z" fill="currentColor"/></symbol><symbol id="icon-wallet" viewBox="0 0 24 24"><path d="M5 3a2 2 0 0 0-2 2v14a2 2 0 0 0 2 2h14a2 2 0 0 0 2-2v-2.28A2 2 0 0 0 22 15V9a2 2 0 0 0-1-1.72V5a2 2 0 0 0-2-2H5zm0 2h14v2h-6a2 2 0 0 0-2 2v6a2 2 0 0 0 2 2h6v2H5V5zm8 4h7v6h-7V9zm3 1.5a1.5 1.5 0 1 0 0 3 1.5 1.5 0 0 0 0-3z" fill="currentColor"/></symbol><symbol id="icon-whatsapp" viewBox="0 0 24 24"><path d="M12.04 2c-5.46 0-9.91 4.45-9.91 9.91 0 1.75.46 3.45 1.32 4.95L2.05 22l5.25-1.38c1.45.79 3.08 1.21 4.74 1.21 5.46 0 9.91-4.45 9.91-9.91 0-2.65-1.03-5.14-2.9-7.01A9.816 9.816 0 0 0 12.04 2zm.01 1.67c2.2 0 4.26.86 5.82 2.42a8.226 8.226 0 0 1 2.41 5.83c0 4.54-3.7 8.23-8.24 8.23-1.48 0-2.93-.39-4.19-1.15l-.3-.17-3.12.82.83-3.04-.2-.32a8.188 8.188 0 0 1-1.26-4.38c.01-4.54 3.7-8.24 8.25-8.24zM8.53 7.33c-.16 0-.43.06-.66.31-.22.25-.87.86-.87 2.07 0 1.22.89 2.39 1 2.56.14.17 1.76 2.67 4.25 3.73.59.27 1.05.42 1.41.53.59.19 1.13.16 1.56.1.48-.07 1.46-.6 1.67-1.18.21-.58.21-1.07.15-1.18-.07-.1-.23-.16-.48-.27-.25-.14-1.47-.74-1.69-.82-.23-.08-.37-.12-.56.12-.16.25-.64.81-.78.97-.15.17-.29.19-.53.07-.26-.13-1.06-.39-2-1.23-.74-.66-1.23-1.47-1.38-1.72-.12-.24-.01-.39.11-.5.11-.11.27-.29.37-.44.13-.14.17-.25.25-.41.08-.17.04-.31-.02-.43-.06-.11-.56-1.35-.77-1.84-.2-.48-.4-.42-.56-.43-.14 0-.3-.01-.47-.01z" fill="currentColor"/></symbol><symbol id="icon-arrow-basket"><path d="M6 8L10 12L14 8" stroke="#0E0E0E" fill="red" stroke-linecap="round"/></symbol></svg>