<svg width="24" height="24" viewBox="0 0 24 24" fill="none" xmlns="http://www.w3.org/2000/svg">
<path fill-rule="evenodd" clip-rule="evenodd" d="M14.7692 2H11.0252C9.32862 2 7.98462 2 6.93323 2.14233C5.85138 2.2893 4.97538 2.59814 4.284 3.29395C3.59354 3.9907 3.28708 4.87349 3.14123 5.96372C3 7.02419 3 8.37767 3 10.0874V15.7209C3.00002 16.552 3.2944 17.3558 3.83016 17.9876C4.36591 18.6195 5.10786 19.0378 5.92246 19.1674C6.04892 19.8781 6.29354 20.4847 6.78277 20.9786C7.33846 21.5386 8.03815 21.7786 8.86892 21.8921C9.66923 22 10.6874 22 11.9492 22H14.82C16.0818 22 17.1 22 17.9003 21.8921C18.7311 21.7786 19.4308 21.5386 19.9865 20.9786C20.5422 20.4186 20.7803 19.7135 20.8929 18.8763C21 18.0698 21 17.0437 21 15.7721V11.0186C21 9.74698 21 8.72093 20.8929 7.91442C20.7803 7.07721 20.5422 6.37209 19.9865 5.81209C19.4963 5.31907 18.8945 5.07256 18.1892 4.94512C18.0606 4.1242 17.6455 3.3765 17.0185 2.83659C16.3915 2.29668 15.5939 2.00002 14.7692 2ZM16.7354 4.81023C16.595 4.39721 16.33 4.03875 15.9775 3.78505C15.6249 3.53134 15.2024 3.39508 14.7692 3.39535H11.0769C9.31662 3.39535 8.06677 3.39721 7.11692 3.52558C6.18923 3.65116 5.65385 3.88744 5.26338 4.28093C4.87292 4.67442 4.63846 5.21395 4.51385 6.14977C4.38646 7.10605 4.38462 8.36558 4.38462 10.1395V15.7209C4.38435 16.1575 4.51956 16.5832 4.77132 16.9385C5.02307 17.2938 5.37877 17.5609 5.78862 17.7023C5.76923 17.1349 5.76923 16.493 5.76923 15.7721V11.0186C5.76923 9.74698 5.76923 8.72093 5.87723 7.91442C5.988 7.07721 6.228 6.37209 6.78277 5.81209C7.33846 5.25209 8.03815 5.01209 8.86892 4.89954C9.66923 4.7907 10.6874 4.7907 11.9492 4.7907H14.82C15.5354 4.7907 16.1723 4.7907 16.7354 4.81023ZM7.76123 6.8C8.01692 6.54233 8.37508 6.37488 9.05354 6.28279C9.74954 6.18884 10.6745 6.18698 11.9991 6.18698H14.7683C16.0929 6.18698 17.0169 6.18884 17.7148 6.28279C18.3923 6.37488 18.7505 6.54326 19.0062 6.8C19.2618 7.05767 19.428 7.4186 19.5194 8.10233C19.6126 8.80372 19.6145 9.73581 19.6145 11.0707V15.7219C19.6145 17.0567 19.6126 17.9879 19.5194 18.6912C19.428 19.374 19.2609 19.7349 19.0062 19.9926C18.7505 20.2502 18.3923 20.4177 17.7138 20.5098C17.0169 20.6037 16.0929 20.6056 14.7683 20.6056H11.9991C10.6745 20.6056 9.74954 20.6037 9.05262 20.5098C8.37508 20.4177 8.01692 20.2493 7.76123 19.9926C7.50554 19.7349 7.33939 19.374 7.248 18.6902C7.15477 17.9879 7.15292 17.0567 7.15292 15.7219V11.0707C7.15292 9.73581 7.15477 8.80372 7.248 8.1014C7.33939 7.4186 7.50646 7.05767 7.76123 6.8Z" fill="#0E0E0E"/>
</svg>
