<svg width="24" height="24" viewBox="0 0 24 24" fill="none" xmlns="http://www.w3.org/2000/svg">
<rect width="24" height="24" rx="12" fill="#0077FF"/>
<path d="M12.5895 16.1998C8.0796 16.1998 5.50721 13.0467 5.40002 7.7998H7.65911C7.73332 11.6509 9.39878 13.2821 10.718 13.6184V7.7998H12.8451V11.1211C14.1478 10.9782 15.5165 9.46467 15.9782 7.7998H18.1053C17.9314 8.66325 17.5845 9.4808 17.0866 10.2013C16.5886 10.9218 15.9503 11.5298 15.2114 11.9872C16.0361 12.4051 16.7646 12.9967 17.3487 13.7229C17.9328 14.449 18.3593 15.2932 18.6 16.1998H16.2585C16.0424 15.4124 15.6033 14.7075 14.9961 14.1735C14.3889 13.6395 13.6406 13.3002 12.8451 13.198V16.1998H12.5895Z" fill="white"/>
</svg>
