<svg width="41" height="40" fill="none" xmlns="http://www.w3.org/2000/svg"><g clip-path="url(#clip0_2192_31885)"><rect x="1" width="40" height="40" rx="20" fill="#2C3036"/><path d="M41 20.129v-.258c-5.314-.171-15.74-.3-17.686-2.185C21.43 15.74 21.291 5.314 21.13 0h-.258c-.171 5.314-.3 15.74-2.185 17.686C16.74 19.57 6.314 19.709 1 19.87v.258c5.314.171 15.74.3 17.686 2.185C20.57 24.26 20.709 34.686 20.87 40h.258c.171-5.314.3-15.74 2.185-17.686C25.26 20.43 35.686 20.291 41 20.13z" fill="#fff"/></g><defs><clipPath id="clip0_2192_31885"><path fill="#fff" transform="translate(1)" d="M0 0h40v40H0z"/></clipPath></defs></svg>