<svg width="40.4" height="40" fill="none" xmlns="http://www.w3.org/2000/svg"><path d="M0 0h40.4v40H0z"/><path d="M20.704 10h-.009.009zm.108 0c.142 4.65.262 6.772 1.912 8.474 1.703 1.65 3.825 1.763 8.475 1.913-.06-5.71-4.678-10.327-10.387-10.387zm10.387 10.612c-4.65.143-6.772.263-8.475 1.913-1.65 1.702-1.762 3.824-1.912 8.474 5.71-.06 10.327-4.677 10.387-10.387zM20.587 31c-.143-4.65-.263-6.772-1.913-8.474-1.702-1.65-3.824-1.763-8.474-1.913.06 5.71 4.677 10.327 10.387 10.387zM10.199 20.503v-.006.006zm0-.116c4.65-.143 6.773-.262 8.475-1.913 1.65-1.702 1.762-3.824 1.913-8.474-5.71.06-10.327 4.677-10.387 10.387z" clip-rule="evenodd" fill="#2C3036" fill-rule="evenodd"/></svg>