<svg width="40.4" height="40" fill="none" xmlns="http://www.w3.org/2000/svg"><path d="M19.997 16.665A3.342 3.342 0 0016.663 20a3.342 3.342 0 003.334 3.334A3.342 3.342 0 0023.332 20a3.342 3.342 0 00-3.335-3.335zM30 20c0-1.381.012-2.75-.065-4.128-.078-1.601-.443-3.022-1.614-4.193-1.173-1.173-2.591-1.536-4.193-1.613C22.747 9.988 21.378 10 20 10c-1.38 0-2.75-.013-4.128.065-1.601.077-3.022.442-4.193 1.613-1.173 1.173-1.535 2.592-1.613 4.193C9.988 17.252 10 18.622 10 20c0 1.378-.013 2.749.065 4.127.078 1.602.443 3.022 1.613 4.193 1.173 1.174 2.592 1.536 4.193 1.614 1.38.078 2.75.065 4.128.065 1.38 0 2.749.013 4.127-.065 1.602-.078 3.022-.443 4.193-1.614 1.174-1.173 1.536-2.591 1.614-4.193.08-1.378.065-2.746.065-4.127zm-10.002 5.13a5.124 5.124 0 01-5.13-5.13c0-2.84 2.29-5.131 5.13-5.131a5.124 5.124 0 015.131 5.13 5.124 5.124 0 01-5.13 5.132zm5.341-9.273a1.197 1.197 0 01-1.198-1.198c0-.663.535-1.199 1.198-1.199a1.197 1.197 0 01.848 2.047 1.203 1.203 0 01-.848.35z" fill="#FFF" fill-rule="evenodd"/></svg>