<svg width="41" height="40" fill="none" xmlns="http://www.w3.org/2000/svg"><rect width="40.4" height="40" rx="20" fill="url(#paint0_radial_295_5180)"/><path d="M19.997 16.665A3.342 3.342 0 0016.663 20a3.342 3.342 0 003.334 3.334A3.342 3.342 0 0023.332 20a3.342 3.342 0 00-3.335-3.335zM30 20c0-1.381.012-2.75-.065-4.128-.078-1.601-.443-3.022-1.614-4.193-1.173-1.173-2.591-1.536-4.192-1.613C22.747 9.988 21.378 10 20 10c-1.381 0-2.75-.013-4.128.065-1.601.077-3.022.443-4.193 1.613-1.173 1.174-1.536 2.592-1.613 4.193C9.988 17.253 10 18.622 10 20c0 1.378-.013 2.75.065 4.128.077 1.6.443 3.021 1.613 4.192 1.174 1.174 2.592 1.536 4.193 1.614 1.381.077 2.75.065 4.128.065 1.38 0 2.75.012 4.128-.065 1.6-.078 3.021-.443 4.192-1.614 1.174-1.173 1.536-2.591 1.614-4.192.08-1.379.065-2.747.065-4.128zm-10.002 5.13a5.124 5.124 0 01-5.13-5.13c0-2.84 2.29-5.131 5.13-5.131s5.131 2.291 5.131 5.13a5.124 5.124 0 01-5.13 5.132zm5.341-9.273a1.197 1.197 0 01-1.198-1.198c0-.663.535-1.199 1.198-1.199a1.197 1.197 0 01.848 2.047 1.197 1.197 0 01-.848.35z" fill="#fff"/><defs><radialGradient id="paint0_radial_295_5180" cx="0" cy="0" r="1" gradientUnits="userSpaceOnUse" gradientTransform="matrix(93.2956 0 0 92.3719 41.213 .813)"><stop stop-color="#F9ED32"/><stop offset=".36" stop-color="#EE2A7B"/><stop offset=".44" stop-color="#D22A8A"/><stop offset=".6" stop-color="#8B2AB2"/><stop offset=".83" stop-color="#1B2AF0"/><stop offset=".88" stop-color="#002AFF"/></radialGradient></defs></svg>