<svg width="41" height="40" fill="none" xmlns="http://www.w3.org/2000/svg"><rect width="40.4" height="40" rx="20" fill="#48C95F"/><path d="M28.206 12.063A10.586 10.586 0 0020.742 9c-5.838 0-10.568 4.667-10.568 10.427 0 1.823.518 3.646 1.404 5.177L10.1 30l5.617-1.458a10.891 10.891 0 005.025 1.24c5.838 0 10.568-4.667 10.568-10.428-.074-2.698-1.108-5.323-3.104-7.291zm-2.364 11.083c-.222.583-1.257 1.166-1.774 1.24a4.185 4.185 0 01-1.626-.073c-.37-.146-.887-.292-1.478-.584-2.66-1.094-4.36-3.719-4.508-3.937-.148-.146-1.109-1.386-1.109-2.698 0-1.313.665-1.896.887-2.188.222-.291.517-.291.74-.291h.517c.147 0 .369-.073.59.437.222.51.74 1.823.814 1.896a.46.46 0 010 .437 1.526 1.526 0 01-.296.438c-.148.146-.296.364-.37.437-.147.146-.295.292-.147.51.148.293.665 1.095 1.478 1.824 1.034.875 1.847 1.166 2.143 1.312.296.146.443.073.591-.073.148-.145.665-.729.813-1.02.148-.292.37-.22.591-.146.222.073 1.552.729 1.774.875.296.145.443.218.517.291.074.22.074.73-.148 1.313z" fill="#fff"/></svg>