<svg width="41" height="40" fill="none" xmlns="http://www.w3.org/2000/svg"><rect width="40.4" height="40" rx="20" fill="#F40000"/><path fill-rule="evenodd" clip-rule="evenodd" d="M11.375 27.057a2.601 2.601 0 01-1.054-.602 2.485 2.485 0 01-.648-1.004c-.742-1.964-.961-10.164.466-11.783a2.78 2.78 0 011.868-.902c3.83-.398 15.664-.345 17.024.133.382.12.731.321 1.021.59.29.269.514.598.654.962.81 2.03.837 9.408-.11 11.358a2.552 2.552 0 01-1.195 1.168c-1.427.69-16.131.677-18.026.08zm6.082-3.848l6.865-3.45-6.865-3.477v6.927z" fill="#fff"/></svg>