<svg width="24.000000" height="24.000000" viewBox="0 0 24 24" fill="none" xmlns="http://www.w3.org/2000/svg" xmlns:xlink="http://www.w3.org/1999/xlink">
	<desc>
			Created with Pixso.
	</desc>
	<defs/>
	<path id="Vector 9" d="M6.53027 8.46967L12.5303 14.4697L12 15L11.4697 14.4697L17.4697 8.46967L18.5303 9.53033L12 16.0607L5.46973 9.53033L6.53027 8.46967ZM5.49805 9.53033L5.46973 9.53033C5.17285 9.23334 5.17285 8.76666 5.46973 8.46967C5.7666 8.17267 6.2334 8.17267 6.53027 8.46967L6.53027 8.49792L5.49805 9.53033ZM17.4697 8.49792L17.4697 8.46967C17.7666 8.17267 18.2334 8.17267 18.5303 8.46967C18.8271 8.76666 18.8271 9.23334 18.5303 9.53033L18.502 9.53033L17.4697 8.49792Z" fill="#FFFFFF" fill-opacity="1.000000" fill-rule="evenodd"/>
</svg>
