<svg width="24.000000" height="24.000000" viewBox="0 0 24 24" fill="none" xmlns="http://www.w3.org/2000/svg" xmlns:xlink="http://www.w3.org/1999/xlink">
	<desc>
			Created with Pixso.
	</desc>
	<defs/>
	<path id="Vector 9" d="M8.53027 10.4697L12.5303 14.4697L12 15L11.4697 14.4697L15.4697 10.4697L16.5303 11.5303L12 16.0605L7.46973 11.5303L8.53027 10.4697ZM7.49805 11.5303L7.46973 11.5303C7.17285 11.2334 7.17285 10.7666 7.46973 10.4697C7.7666 10.1729 8.2334 10.1729 8.53027 10.4697L8.53027 10.498L7.49805 11.5303ZM15.4697 10.498L15.4697 10.4697C15.7666 10.1729 16.2334 10.1729 16.5303 10.4697C16.8271 10.7666 16.8271 11.2334 16.5303 11.5303L16.502 11.5303L15.4697 10.498Z" fill="#2A65C5" fill-opacity="1.000000" fill-rule="evenodd"/>
</svg>
