<svg width="19.000000" height="16.000000" viewBox="0 0 19 16" fill="none" xmlns="http://www.w3.org/2000/svg" xmlns:xlink="http://www.w3.org/1999/xlink">
	<desc>
			Created with Pixso.
	</desc>
	<defs/>
	<path id="Vector" d="M6.69287 12.0447L16.2998 12.0447C16.6211 12.0447 16.9009 11.7843 16.9009 11.4344C16.9009 11.0844 16.6211 10.824 16.2998 10.824L6.83301 10.824C6.36377 10.824 6.0752 10.4984 6.00146 10.002L4.65137 0.944031C4.56885 0.317383 4.33838 0 3.49854 0L0.609375 0C0.279785 0 0 0.284851 0 0.610382C0 0.944031 0.279785 1.22888 0.609375 1.22888L3.3916 1.22888L4.70898 10.1648C4.88184 11.3204 5.49902 12.0447 6.69287 12.0447ZM5.17822 9.14749L16.3164 9.14749C17.5181 9.14749 18.1357 8.41504 18.3086 7.25125L18.9673 2.94608C18.9839 2.84027 19 2.71005 19 2.63681C19 2.24619 18.7036 1.97763 18.251 1.97763L4.46191 1.97763L4.47021 3.20651L17.6006 3.20651L17.0161 7.10477C16.9502 7.60934 16.6787 7.92676 16.1929 7.92676L5.16162 7.92676L5.17822 9.14749ZM7.34326 16C8.08398 16 8.67676 15.4221 8.67676 14.6816C8.67676 13.9491 8.08398 13.3632 7.34326 13.3632C6.59424 13.3632 6.00146 13.9491 6.00146 14.6816C6.00146 15.4221 6.59424 16 7.34326 16ZM15.0405 16C15.7896 16 16.3823 15.4221 16.3823 14.6816C16.3823 13.9491 15.7896 13.3632 15.0405 13.3632C14.2993 13.3632 13.6982 13.9491 13.6982 14.6816C13.6982 15.4221 14.2993 16 15.0405 16Z" fill="#FFFFFF" fill-opacity="1.000000" fill-rule="evenodd"/>
</svg>
