<svg width="15.995117" height="11.005859" viewBox="0 0 15.9951 11.0059" fill="none" xmlns="http://www.w3.org/2000/svg" xmlns:xlink="http://www.w3.org/1999/xlink">
	<desc>
			Created with Pixso.
	</desc>
	<defs/>
	<path id="Vector" d="M14.9951 0C14.7297 0 14.4753 0.105469 14.2878 0.292969C14.1003 0.480469 13.9951 0.734863 13.9951 1L13.9951 5C13.9951 5.26514 13.8896 5.51953 13.7021 5.70703C13.5146 5.89453 13.2603 6 12.9951 6L3.40503 6L4.70508 4.70996C4.89331 4.52173 4.99902 4.26636 4.99902 4C4.99902 3.73364 4.89331 3.47827 4.70508 3.29004C4.5166 3.10181 4.26123 2.99585 3.99512 2.99585C3.72876 2.99585 3.47339 3.10181 3.28491 3.29004L0.284912 6.29004C0.194092 6.38501 0.122559 6.49731 0.0749512 6.62012C-0.0249023 6.86353 -0.0249023 7.13647 0.0749512 7.37988C0.122559 7.50269 0.194092 7.61499 0.284912 7.70996L3.28491 10.71C3.37793 10.8037 3.48853 10.8782 3.61035 10.929C3.73218 10.9797 3.86304 11.0059 3.99512 11.0059C4.12695 11.0059 4.25781 10.9797 4.37964 10.929C4.50146 10.8782 4.61206 10.8037 4.70508 10.71C4.79883 10.6169 4.87305 10.5063 4.92383 10.3845C4.97461 10.2627 5.00073 10.1321 5.00073 10C5.00073 9.86792 4.97461 9.7373 4.92383 9.61548C4.87305 9.49365 4.79883 9.38306 4.70508 9.29004L3.40503 8L12.9951 8C13.7908 8 14.5537 7.68384 15.1165 7.12134C15.679 6.55859 15.9951 5.79565 15.9951 5L15.9951 1C15.9951 0.734863 15.8896 0.480469 15.7021 0.292969C15.5146 0.105469 15.2603 0 14.9951 0Z" fill="#FFFFFF" fill-opacity="1.000000" fill-rule="nonzero"/>
</svg>
