<svg width="16" height="17" viewBox="0 0 16 17" fill="none" xmlns="http://www.w3.org/2000/svg">
<path d="M13.1382 4.69464C13.2003 4.75657 13.2495 4.83013 13.2832 4.91113C13.3168 4.99212 13.3341 5.07895 13.3341 5.16664C13.3341 5.25433 13.3168 5.34116 13.2832 5.42215C13.2495 5.50314 13.2003 5.57671 13.1382 5.63864L7.13821 11.6386C7.07628 11.7007 7.00271 11.75 6.92172 11.7836C6.84072 11.8172 6.7539 11.8345 6.66621 11.8345C6.57852 11.8345 6.49169 11.8172 6.4107 11.7836C6.3297 11.75 6.25613 11.7007 6.19421 11.6386L3.52754 8.97197C3.40236 8.84679 3.33203 8.67701 3.33203 8.49997C3.33203 8.32294 3.40236 8.15315 3.52754 8.02797C3.65272 7.90279 3.82251 7.83246 3.99954 7.83246C4.17657 7.83246 4.34636 7.90279 4.47154 8.02797L6.66621 10.224L12.1942 4.69464C12.2561 4.63255 12.3297 4.5833 12.4107 4.54969C12.4917 4.51608 12.5785 4.49878 12.6662 4.49878C12.7539 4.49878 12.8407 4.51608 12.9217 4.54969C13.0027 4.5833 13.0763 4.63255 13.1382 4.69464Z" fill="#2A65C5"/>
</svg>
