<svg width="17" height="16" viewBox="0 0 17 16" fill="none" xmlns="http://www.w3.org/2000/svg">
<path d="M8.66675 0C7.0845 0 5.53778 0.469192 4.22219 1.34824C2.9066 2.22729 1.88122 3.47672 1.27572 4.93853C0.670214 6.40034 0.511788 8.00887 0.820469 9.56072C1.12915 11.1126 1.89108 12.538 3.0099 13.6569C4.12872 14.7757 5.55418 15.5376 7.10603 15.8463C8.65788 16.155 10.2664 15.9965 11.7282 15.391C13.19 14.7855 14.4395 13.7602 15.3185 12.4446C16.1976 11.129 16.6667 9.58225 16.6667 8C16.6667 5.87827 15.8239 3.84344 14.3236 2.34315C12.8233 0.842854 10.7885 0 8.66675 0ZM7.52389 11.1943L4.66675 8.33714L5.57532 7.42857L7.52389 9.37714L11.7582 5.14286L12.6702 6.04914L7.52389 11.1943Z" fill="#0E0E0E"/>
</svg>
