<svg width="60" height="60" viewBox="0 0 60 60" fill="none" xmlns="http://www.w3.org/2000/svg">
<rect width="60" height="60" rx="30" fill="#D9FFF1"/>
<path d="M30 60C46.4119 60 60 46.3825 60 30C60 13.5883 46.3825 0 29.9706 0C13.5883 0 0 13.5883 0 30C0 46.3825 13.6177 60 30 60ZM30 55.0002C16.1177 55.0002 5.02943 43.8825 5.02943 30C5.02943 16.1177 16.0883 5.00002 29.9706 5.00002C43.8531 5.00002 55.0002 16.1177 55.0002 30C55.0002 43.8825 43.8825 55.0002 30 55.0002ZM26.7649 43.9706C27.7354 43.9706 28.5589 43.5 29.1472 42.5884L42.5884 21.4412C42.912 20.853 43.2942 20.2059 43.2942 19.5589C43.2942 18.2353 42.1176 17.3824 40.8825 17.3824C40.1472 17.3824 39.4118 17.853 38.8531 18.7059L26.6471 38.2942L20.853 30.7941C20.1471 29.8529 19.5 29.6178 18.6765 29.6178C17.4118 29.6178 16.4118 30.647 16.4118 31.9413C16.4118 32.5884 16.6765 33.206 17.0883 33.7647L24.2648 42.5884C25.0001 43.559 25.7941 43.9706 26.7649 43.9706Z" fill="#2FA947"/>
</svg>
