<svg width="24" height="24" viewBox="0 0 24 24" fill="none" xmlns="http://www.w3.org/2000/svg">
<path d="M17.1387 8.19464C17.2008 8.25657 17.25 8.33013 17.2836 8.41113C17.3173 8.49212 17.3346 8.57895 17.3346 8.66664C17.3346 8.75433 17.3173 8.84116 17.2836 8.92215C17.25 9.00314 17.2008 9.07671 17.1387 9.13864L11.1387 15.1386C11.0768 15.2007 11.0032 15.25 10.9222 15.2836C10.8412 15.3172 10.7544 15.3345 10.6667 15.3345C10.579 15.3345 10.4922 15.3172 10.4112 15.2836C10.3302 15.25 10.2566 15.2007 10.1947 15.1386L7.52803 12.472C7.40285 12.3468 7.33252 12.177 7.33252 12C7.33252 11.8229 7.40285 11.6532 7.52803 11.528C7.65321 11.4028 7.82299 11.3325 8.00003 11.3325C8.17706 11.3325 8.34685 11.4028 8.47203 11.528L10.6667 13.724L16.1947 8.19464C16.2566 8.13255 16.3302 8.0833 16.4112 8.04969C16.4922 8.01608 16.579 7.99878 16.6667 7.99878C16.7544 7.99878 16.8412 8.01608 16.9222 8.04969C17.0032 8.0833 17.0768 8.13255 17.1387 8.19464Z" fill="#0E0E0E"/>
</svg>
