<svg width="20.000000" height="20.000000" viewBox="0 0 20 20" fill="none" xmlns="http://www.w3.org/2000/svg" xmlns:xlink="http://www.w3.org/1999/xlink">
	<desc>
			Created with Pixso.
	</desc>
	<defs/>
	<path id="Vector" d="M16.9229 0L3.07715 0C2.26123 0.000976562 1.479 0.325195 0.902344 0.902344C0.325195 1.479 0.000976562 2.26123 0 3.07715L0 16.9229C0.000976562 17.7388 0.325195 18.521 0.902344 19.0977C1.479 19.6748 2.26123 19.999 3.07715 20L16.9229 20C17.7388 19.999 18.521 19.6748 19.0977 19.0977C19.6748 18.521 19.999 17.7388 20 16.9229L20 3.07715C19.999 2.26123 19.6748 1.479 19.0977 0.902344C18.521 0.325195 17.7388 0.000976562 16.9229 0ZM15.2041 6.64844L8.74268 14.3408C8.67188 14.4253 8.5835 14.4937 8.48438 14.541C8.38477 14.5884 8.27588 14.6138 8.16602 14.6152L8.15283 14.6152C8.04492 14.6152 7.93848 14.5928 7.83984 14.5488C7.7417 14.5049 7.65332 14.4409 7.58105 14.3604L4.81201 11.2837C4.7417 11.209 4.68701 11.1211 4.65088 11.0249C4.61523 10.9292 4.59912 10.8267 4.60303 10.7246C4.60742 10.6221 4.63184 10.5215 4.67578 10.4287C4.71924 10.3359 4.78076 10.2529 4.85693 10.1841C4.93359 10.1157 5.02246 10.063 5.11914 10.0293C5.21631 9.99561 5.31885 9.98193 5.4209 9.98828C5.52344 9.99512 5.62354 10.022 5.71533 10.0674C5.80664 10.1133 5.88867 10.1772 5.95508 10.2549L8.13281 12.6738L14.0264 5.65918C14.1587 5.50635 14.3457 5.41162 14.5474 5.39551C14.7485 5.37939 14.9482 5.44336 15.103 5.57324C15.2578 5.70312 15.355 5.88916 15.374 6.09033C15.3931 6.2915 15.332 6.49219 15.2041 6.64844Z" fill="#0E0E0E" fill-opacity="1.000000" fill-rule="evenodd"/>
</svg>
