<svg width="24" height="24" viewBox="0 0 24 24" fill="none" xmlns="http://www.w3.org/2000/svg">
<path d="M15.2 14.4C15.2 11.3072 12.6928 8.8 9.6 8.8C9.34562 8.8 9.0952 8.81696 8.84982 8.84981C6.11174 9.21639 4 11.5616 4 14.4C4 17.4928 6.50721 20 9.6 20C12.4384 20 14.7836 17.8883 15.1502 15.1502C15.183 14.9048 15.2 14.6544 15.2 14.4Z" fill="#0E0E0E"/>
<path d="M8.84982 8.84981C9.0952 8.81696 9.34562 8.8 9.6 8.8C12.6928 8.8 15.2 11.3072 15.2 14.4C15.2 14.6544 15.183 14.9048 15.1502 15.1502M8.84982 8.84981C9.21639 6.11174 11.5616 4 14.4 4C17.4928 4 20 6.5072 20 9.6C20 12.4384 17.8883 14.7836 15.1502 15.1502M8.84982 8.84981C6.11174 9.21639 4 11.5616 4 14.4C4 17.4928 6.50721 20 9.6 20C12.4384 20 14.7836 17.8883 15.1502 15.1502" stroke="#0E0E0E" stroke-width="1.5"/>
</svg>
