<svg width="24" height="24" viewBox="0 0 24 24" fill="none" xmlns="http://www.w3.org/2000/svg">
<path d="M16 17V7.5H18.7909C19.8885 7.5 20.8985 8.09943 21.4243 9.06291L22.689 11.3804C23.0899 12.115 23.3 12.9386 23.3 13.7755V15C23.3 16.1046 22.4046 17 21.3 17H21" stroke="#0E0E0E" stroke-width="1.3" stroke-linecap="round" stroke-linejoin="round"/>
<path d="M7.25 19.5C8.49262 19.5 9.5 18.4926 9.5 17.25C9.5 16.0074 8.49262 15 7.25 15C6.00738 15 5 16.0074 5 17.25C5 18.4926 6.00738 19.5 7.25 19.5Z" stroke="#0E0E0E" stroke-width="1.3" stroke-linejoin="round"/>
<path d="M18.25 19.5C19.4926 19.5 20.5 18.4926 20.5 17.25C20.5 16.0074 19.4926 15 18.25 15C17.0074 15 16 16.0074 16 17.25C16 18.4926 17.0074 19.5 18.25 19.5Z" stroke="#0E0E0E" stroke-width="1.3" stroke-linejoin="round"/>
<path d="M4.30769 17V17C3.03319 17 2 15.9668 2 14.6923V10.5V7C2 5.34315 3.34315 4 5 4H13C14.6569 4 16 5.34315 16 7V17H10" stroke="#0E0E0E" stroke-width="1.3" stroke-linecap="round" stroke-linejoin="round"/>
</svg>
