<svg width="13.000000" height="3.000000" viewBox="0 0 13 3" fill="none" xmlns="http://www.w3.org/2000/svg" xmlns:xlink="http://www.w3.org/1999/xlink">
	<desc>
			Created with Pixso.
	</desc>
	<defs/>
	<path id="Vector" d="M1.5 3C1.10205 3 0.720703 2.84198 0.439453 2.56067C0.158203 2.27936 0 1.89783 0 1.5C0 1.10217 0.158203 0.720642 0.439453 0.439331C0.720703 0.15802 1.10205 0 1.5 0C1.89795 0 2.2793 0.15802 2.56055 0.439331C2.8418 0.720642 3 1.10217 3 1.5C3 1.89783 2.8418 2.27936 2.56055 2.56067C2.2793 2.84198 1.89795 3 1.5 3ZM6.5 3C6.10205 3 5.7207 2.84198 5.43945 2.56067C5.1582 2.27936 5 1.89783 5 1.5C5 1.10217 5.1582 0.720642 5.43945 0.439331C5.7207 0.15802 6.10205 0 6.5 0C6.89795 0 7.2793 0.15802 7.56055 0.439331C7.8418 0.720642 8 1.10217 8 1.5C8 1.89783 7.8418 2.27936 7.56055 2.56067C7.2793 2.84198 6.89795 3 6.5 3ZM11.5 3C11.1021 3 10.7207 2.84198 10.4395 2.56067C10.1582 2.27936 10 1.89783 10 1.5C10 1.10217 10.1582 0.720642 10.4395 0.439331C10.7207 0.15802 11.1021 0 11.5 0C11.8979 0 12.2793 0.15802 12.5605 0.439331C12.8418 0.720642 13 1.10217 13 1.5C13 1.89783 12.8418 2.27936 12.5605 2.56067C12.2793 2.84198 11.8979 3 11.5 3Z" fill="#0E0E0E" fill-opacity="1.000000" fill-rule="nonzero"/>
</svg>
