<svg width="33" height="33" viewBox="0 0 33 33" fill="none" xmlns="http://www.w3.org/2000/svg">
<path d="M27.6376 9.37479C26.9264 7.5674 25.5685 6.18149 23.8138 5.47183C23.0551 5.16522 22.2867 5.00961 21.5306 5.00961C19.0161 5.00961 17.2568 6.68406 16.5703 7.46903C15.8873 6.68137 14.1357 5 11.6219 5C10.8682 5 10.1021 5.15523 9.34456 5.46146C7.5899 6.17112 6.2316 7.55702 5.52038 9.36404C4.76165 11.2925 4.83544 13.4779 5.7232 15.361C6.98376 18.0341 9.84948 22.1956 16.3431 26.8386L16.5684 27L16.7936 26.8386C23.3193 22.1726 26.1819 18.0268 27.434 15.3706C28.3225 13.4883 28.3963 11.3028 27.6376 9.37479Z" fill="#0E0E0E"/>
</svg>
