<svg width="24" height="24" viewBox="0 0 24 24" fill="none" xmlns="http://www.w3.org/2000/svg">
<path d="M23 10C23 8.89 22.1 8 21 8H14.68L15.64 3.43C15.66 3.33 15.67 3.22 15.67 3.11C15.67 2.7 15.5 2.32 15.23 2.05C14.6438 1.4693 13.6985 1.47154 13.115 2.05501L7.59 7.58C7.22 7.95 7 8.45 7 9V19C7 19.5304 7.21071 20.0391 7.58579 20.4142C7.96086 20.7893 8.46957 21 9 21H18C18.83 21 19.54 20.5 19.84 19.78L22.86 12.73C22.95 12.5 23 12.26 23 12V10ZM1 19C1 20.1046 1.89543 21 3 21C4.10457 21 5 20.1046 5 19V11C5 9.89543 4.10457 9 3 9C1.89543 9 1 9.89543 1 11V19Z" fill="black"/>
</svg>
