<svg width="24" height="25" viewBox="0 0 24 25" fill="none" xmlns="http://www.w3.org/2000/svg">
<path d="M16.3804 21.5C17.9907 21.5 19.0491 21.0675 19.9785 20.0184C20.0521 19.9448 20.1258 19.8619 20.1901 19.7884C20.7424 19.1718 21 18.5644 21 17.9847C21 17.3222 20.6135 16.7056 19.7944 16.135L17.1166 14.2761C16.2883 13.7056 15.3221 13.6412 14.549 14.405L13.8405 15.1136C13.6289 15.3252 13.4448 15.3344 13.2423 15.2056C12.7454 14.8927 11.7423 14.0185 11.0613 13.3375C10.3435 12.6289 9.65337 11.8376 9.28527 11.2578C9.16564 11.0461 9.17484 10.8713 9.38649 10.6596L10.0859 9.95106C10.8589 9.17806 10.7945 8.20262 10.2239 7.38361L8.36502 4.70573C7.79447 3.88673 7.17791 3.50943 6.51533 3.50023C5.93558 3.49103 5.32822 3.7579 4.71166 4.31003C4.62883 4.38365 4.55521 4.44807 4.48159 4.51249C3.43251 5.45112 3 6.50939 3 8.10139C3 10.7333 4.61963 13.9357 7.59202 16.908C10.546 19.8619 13.7576 21.5 16.3804 21.5ZM16.3896 20.0828C14.0429 20.1288 11.0338 18.3252 8.6503 15.951C6.24846 13.5584 4.36197 10.448 4.40797 8.10139C4.42638 7.08914 4.78528 6.21491 5.50306 5.58916C5.56748 5.53395 5.61349 5.48793 5.67791 5.44192C5.95399 5.20266 6.24846 5.07383 6.51533 5.07383C6.78221 5.07383 7.02147 5.17506 7.19631 5.45112L8.98159 8.12899C9.17484 8.41427 9.19325 8.73635 8.90797 9.02162L8.09816 9.83143C7.46318 10.4664 7.5092 11.2394 7.96932 11.8559C8.49386 12.5645 9.4049 13.5952 10.1135 14.2946C10.8129 15.0031 11.9264 15.997 12.6441 16.5307C13.2607 16.9909 14.0337 17.0369 14.6687 16.4019L15.4785 15.5921C15.7638 15.3069 16.0766 15.3252 16.3711 15.5093L19.0491 17.2945C19.3252 17.4786 19.4264 17.7086 19.4264 17.9847C19.4264 18.2516 19.2975 18.5461 19.0583 18.8221C19.003 18.8865 18.9662 18.9325 18.911 18.997C18.2852 19.7147 17.4111 20.0644 16.3896 20.0828Z" fill="white"/>
</svg>
