<svg width="166.164551" height="141.565674" viewBox="0 0 166.165 141.566" fill="none" xmlns="http://www.w3.org/2000/svg" xmlns:xlink="http://www.w3.org/1999/xlink">
	<desc>
			Created with Pixso.
	</desc>
	<defs>
		<clipPath id="clip8697_71885">
			<rect id="icon-park-outline:pic" rx="15.000000" width="105.861717" height="100.471931" transform="translate(0.000000 27.399048) rotate(-15.000000)" fill="white" fill-opacity="0"/>
		</clipPath>
	</defs>
	<path id="Vector" d="M73.6606 36.0718C74.6772 35.5217 75.8701 35.3979 76.978 35.7275L147.972 56.8602C149.08 57.1899 150.011 57.946 150.561 58.9624C151.111 59.9788 151.235 61.1719 150.905 62.2794L133.502 120.745C133.172 121.853 132.416 122.784 131.4 123.334C130.384 123.884 129.19 124.008 128.083 123.679L57.0884 102.546C55.981 102.216 55.0493 101.46 54.4995 100.444C53.9492 99.4275 53.8257 98.2343 54.1553 97.1267L71.5586 38.6606C71.8882 37.5531 72.6445 36.6218 73.6606 36.0718Z" stroke="#D7D7D7" stroke-opacity="1.000000" stroke-width="10.000000" stroke-linejoin="round"/>
	<rect id="icon-park-outline:pic" rx="15.000000" width="105.861717" height="100.471931" transform="translate(0.000000 27.399048) rotate(-15.000000)" fill="#FFFFFF" fill-opacity="1.000000"/>
	<g clip-path="url(#clip8697_71885)">
		<path id="Vector" d="M16.5957 42.3171C17.1733 41.3163 18.1255 40.5861 19.2417 40.287L90.7905 21.1155C91.9067 20.8164 93.0962 20.9729 94.0967 21.5508C95.0977 22.1285 95.8276 23.0802 96.127 24.1965L111.915 83.1191C112.214 84.2354 112.058 85.4247 111.48 86.4255C110.902 87.4263 109.95 88.1566 108.834 88.4557L37.2852 107.627C36.1689 107.926 34.9795 107.77 33.979 107.192C32.978 106.614 32.248 105.662 31.9487 104.546L16.1606 45.6234C15.8613 44.5072 16.0181 43.3179 16.5957 42.3171Z" stroke="#D7D7D7" stroke-opacity="1.000000" stroke-width="10.000000" stroke-linejoin="round"/>
		<path id="Vector" d="M42.6475 55.5791C43.0806 54.8285 43.1982 53.9365 42.9741 53.0994C42.7495 52.2622 42.2017 51.5485 41.4512 51.1151C40.7007 50.6818 39.8086 50.5643 38.9717 50.7886C38.1343 51.0129 37.4204 51.5607 36.9873 52.3112C36.5537 53.0618 36.4365 53.9539 36.6606 54.791C36.8853 55.6282 37.4326 56.3419 38.1836 56.7753C38.9341 57.2086 39.8262 57.326 40.6631 57.1017C41.5005 56.8774 42.2139 56.3297 42.6475 55.5791Z" stroke="#D7D7D7" stroke-opacity="1.000000" stroke-width="8.714465" stroke-linejoin="round"/>
		<path id="Vector" d="M57.876 75.0443L66.5552 56.9304L109.66 74.7017L111.916 83.1191C112.215 84.2354 112.058 85.4247 111.48 86.4255C110.902 87.4263 109.951 88.1565 108.834 88.4557L37.2856 107.627C36.1694 107.926 34.98 107.77 33.979 107.192C32.9785 106.614 32.248 105.662 31.9492 104.546L29.6934 96.1285L45.0986 69.446L57.876 75.0443Z" stroke="#D7D7D7" stroke-opacity="1.000000" stroke-width="10.000000" stroke-linejoin="round"/>
	</g>
</svg>
