<svg width="24" height="24" viewBox="0 0 24 24" fill="none" xmlns="http://www.w3.org/2000/svg">
<path fill-rule="evenodd" clip-rule="evenodd" d="M3.68848 7.37011C3.61412 6.88155 3.19404 6.52058 2.69986 6.52058H1.22928C0.874243 6.52058 0.586426 6.23276 0.586426 5.87772V5.87772C0.586426 5.52268 0.874243 5.23486 1.22928 5.23486H3.80469C4.29887 5.23486 4.71895 5.59584 4.79331 6.08439L6.09642 14.6461C6.17078 15.1346 6.59085 15.4956 7.08503 15.4956H22.7709C23.1259 15.4956 23.4137 15.7834 23.4137 16.1385V16.1385C23.4137 16.4935 23.1259 16.7813 22.7709 16.7813H5.9802C5.48602 16.7813 5.06595 16.4203 4.99159 15.9318L3.68848 7.37011Z" fill="#0E0E0E"/>
<path fill-rule="evenodd" clip-rule="evenodd" d="M7.80039 19.4049C7.07658 19.4049 6.48982 19.9916 6.48982 20.7154C6.48982 21.4392 7.07658 22.026 7.80039 22.026C8.5242 22.026 9.11096 21.4392 9.11096 20.7154C9.11096 19.9916 8.5242 19.4049 7.80039 19.4049ZM5.2041 20.7154C5.2041 19.2815 6.3665 18.1191 7.80039 18.1191C9.23428 18.1191 10.3967 19.2815 10.3967 20.7154C10.3967 22.1493 9.23428 23.3117 7.80039 23.3117C6.3665 23.3117 5.2041 22.1493 5.2041 20.7154Z" fill="#0E0E0E"/>
<path fill-rule="evenodd" clip-rule="evenodd" d="M17.7813 19.4049C17.0575 19.4049 16.4708 19.9916 16.4708 20.7154C16.4708 21.4392 17.0575 22.026 17.7813 22.026C18.5052 22.026 19.0919 21.4392 19.0919 20.7154C19.0919 19.9916 18.5052 19.4049 17.7813 19.4049ZM15.1851 20.7154C15.1851 19.2815 16.3475 18.1191 17.7813 18.1191C19.2152 18.1191 20.3776 19.2815 20.3776 20.7154C20.3776 22.1493 19.2152 23.3117 17.7813 23.3117C16.3475 23.3117 15.1851 22.1493 15.1851 20.7154Z" fill="#0E0E0E"/>
<path fill-rule="evenodd" clip-rule="evenodd" d="M7.85522 3.40234C7.85522 2.85006 8.30294 2.40234 8.85522 2.40234H19.3776C19.9299 2.40234 20.3776 2.85006 20.3776 3.40234V12.5457C20.3776 13.098 19.9299 13.5457 19.3776 13.5457H8.85522C8.30294 13.5457 7.85522 13.098 7.85522 12.5457V3.40234ZM10.1409 3.68806C9.58865 3.68806 9.14094 4.13577 9.14094 4.68806V11.26C9.14094 11.8122 9.58865 12.26 10.1409 12.26H18.0919C18.6442 12.26 19.0919 11.8122 19.0919 11.26V4.68806C19.0919 4.13577 18.6442 3.68806 18.0919 3.68806H10.1409Z" fill="#0E0E0E"/>
<path fill-rule="evenodd" clip-rule="evenodd" d="M15.8724 5.82303C15.8724 6.17807 15.5845 6.46589 15.2295 6.46589H13.0039C12.6489 6.46589 12.3611 6.17807 12.3611 5.82303V5.82303C12.3611 5.46799 12.6489 5.18018 13.0039 5.18018H15.2295C15.5845 5.18018 15.8724 5.46799 15.8724 5.82303V5.82303Z" fill="#0E0E0E"/>
</svg>
