<svg width="45" height="61" viewBox="0 0 45 61" fill="none" xmlns="http://www.w3.org/2000/svg">
<g clip-path="url(#clip0_13567_66865)">
<path d="M0 21.9452C0 10.1014 9.60136 0.5 21.4452 0.5H23.2516C35.2629 0.5 45 10.2371 45 22.2484C45 27.5646 43.0198 32.6694 39.7296 36.8451C37.3673 39.843 34.7297 43.4291 33 46.5C30.8144 50.3804 27.9277 55.8542 26.4543 58.6696C25.8657 59.7944 24.703 60.5 23.4335 60.5C22.2347 60.5 21.1267 59.872 20.5116 58.843C18.8594 56.0792 15.4742 50.443 13 46.5C11.0739 43.4305 8.23111 39.8649 5.69469 36.8797C2.13813 32.6939 0 27.438 0 21.9452Z" fill="#0E0E0E"/>
<path d="M29.2892 27.8806L29.2879 25.9737C29.4038 25.8995 29.54 25.8712 29.6943 25.8712C29.9309 25.8712 30.1203 25.9568 30.2626 26.1287C30.4061 26.3013 30.4783 26.5621 30.4783 26.9133C30.4783 27.2672 30.4048 27.5335 30.2585 27.7101C30.1116 27.8874 29.9235 27.9757 29.6943 27.9757C29.542 27.9757 29.4072 27.9581 29.2892 27.8806ZM31.0101 27.4654V28.4475H30.1237C30.3468 28.3828 30.5383 28.2621 30.6947 28.0869C30.845 27.9177 30.9495 27.7114 31.0101 27.4654ZM29.2872 21.0226L26.0112 25.0785L22.7325 21.0388L22.7372 28.4475H21.0163L21.0103 16.5312H21.3223L26.0186 22.5568L30.6738 16.5312H31.0041L31.0094 26.3848C30.9501 26.1368 30.8443 25.9292 30.6926 25.7613C30.4405 25.4809 30.1075 25.3407 29.6889 25.3407C29.5447 25.3407 29.4119 25.3569 29.2879 25.3879L29.2872 21.0226Z" fill="white"/>
<path d="M17.6074 24.6839L19.3236 24.6947H19.3256V24.696C19.298 24.8086 19.2663 24.9219 19.2306 25.0331C19.1975 25.1443 19.1591 25.2549 19.118 25.3627C19.0371 25.5771 18.942 25.7833 18.8335 25.9808C18.7297 26.1736 18.6118 26.3576 18.4803 26.5329C18.3549 26.7007 18.2221 26.8612 18.0806 27.0128C17.9384 27.1645 17.7874 27.3074 17.6283 27.4382C17.4847 27.5575 17.3317 27.6667 17.174 27.7638C17.0196 27.8588 16.8592 27.9424 16.6927 28.0138C16.5201 28.088 16.3428 28.1527 16.1635 28.2066C15.9835 28.2626 15.8002 28.3077 15.6148 28.3435C15.4227 28.3805 15.2299 28.4082 15.0358 28.4257C14.8363 28.4432 14.6341 28.45 14.4325 28.45C14.2593 28.4479 14.0874 28.4385 13.9162 28.421C13.745 28.4048 13.5751 28.3785 13.4052 28.3455C13.2374 28.3118 13.0709 28.2713 12.9057 28.2208C12.7386 28.1716 12.5754 28.1149 12.415 28.0489C12.2552 27.9842 12.0962 27.912 11.9418 27.8332C11.7874 27.7543 11.6378 27.6667 11.4909 27.5743C11.3453 27.4806 11.203 27.3809 11.0655 27.2744C10.9267 27.1665 10.7918 27.0519 10.6638 26.9313C10.537 26.8133 10.4198 26.6879 10.3079 26.5545C10.1953 26.419 10.0881 26.2754 9.98969 26.1264C9.88319 25.962 9.78545 25.7914 9.69647 25.6155C9.60682 25.4382 9.52526 25.2582 9.4538 25.0742C9.37561 24.878 9.31023 24.6778 9.25226 24.4756C9.19429 24.266 9.1471 24.055 9.1107 23.8427C9.07228 23.6189 9.04329 23.3931 9.02644 23.1666C9.00622 22.93 8.99881 22.6927 9.00015 22.4548C9.00218 22.2134 9.01229 21.9701 9.03521 21.7281C9.05678 21.4962 9.08711 21.2657 9.12823 21.0379C9.16935 20.8215 9.21855 20.6078 9.27922 20.3982C9.33921 20.1939 9.40797 19.9924 9.48886 19.7942C9.56368 19.6102 9.64659 19.4302 9.73692 19.2543C9.82859 19.079 9.92903 18.9085 10.0376 18.744C10.1387 18.5957 10.2452 18.4528 10.3618 18.3186C10.473 18.1865 10.5943 18.0625 10.7211 17.9466C10.8512 17.8286 10.9873 17.716 11.1262 17.6115C11.265 17.5071 11.4073 17.41 11.5542 17.3183C11.7012 17.228 11.8522 17.1444 12.0052 17.0689C12.1602 16.9927 12.3166 16.9233 12.4757 16.8647C12.6374 16.802 12.8012 16.7481 12.9664 16.7029C13.1315 16.6564 13.2994 16.618 13.4686 16.589C13.6398 16.558 13.8117 16.5357 13.9836 16.5209C14.1595 16.5061 14.3348 16.5 14.5107 16.5C14.7035 16.502 14.8976 16.5128 15.0897 16.5324C15.2778 16.5519 15.4672 16.5809 15.6533 16.6193C15.8366 16.6564 16.0186 16.7029 16.1979 16.7595C16.3752 16.8141 16.5491 16.8782 16.7217 16.9523C16.8868 17.0231 17.0466 17.106 17.2002 17.2004C17.358 17.2954 17.509 17.4033 17.6539 17.5205C17.8116 17.6479 17.9613 17.7882 18.1022 17.9344C18.243 18.0827 18.3758 18.2405 18.4992 18.4029C18.6293 18.5701 18.7452 18.7494 18.849 18.9341C18.9535 19.1208 19.0465 19.3156 19.1241 19.5185C19.1591 19.6088 19.1928 19.7005 19.2218 19.7928C19.2521 19.8879 19.2811 19.9829 19.306 20.0793L19.3081 20.0807H19.3047L17.5636 20.0679H17.5622C17.4429 19.8023 17.298 19.5576 17.1234 19.3385C16.9549 19.1275 16.7621 18.9388 16.541 18.7797C16.2383 18.5606 15.908 18.411 15.5643 18.316C15.2205 18.2196 14.8599 18.1771 14.4986 18.1757C14.2357 18.1724 13.9748 18.1953 13.718 18.2452C13.4767 18.293 13.238 18.3658 13.0102 18.4676C12.7797 18.5687 12.566 18.6961 12.3665 18.8458C12.1636 19.0001 11.9769 19.1774 11.8077 19.3776C11.4625 19.7848 11.2179 20.2438 11.0554 20.7332C10.8781 21.2745 10.7999 21.8542 10.7959 22.448C10.7925 23.0088 10.8707 23.5447 11.0345 24.0476C11.1949 24.5356 11.4363 24.994 11.7665 25.416C11.9317 25.6269 12.1164 25.8184 12.3186 25.9862C12.5127 26.1473 12.7258 26.2862 12.9543 26.3988C13.1841 26.5113 13.4207 26.5936 13.6641 26.6482C13.9195 26.7061 14.1804 26.7338 14.4446 26.7351C14.6388 26.7365 14.8329 26.7257 15.027 26.7001C15.209 26.6758 15.391 26.6387 15.5683 26.5855C15.7456 26.5322 15.9182 26.4648 16.0833 26.3826C16.2471 26.3017 16.4042 26.2066 16.5531 26.0974C16.7075 25.9849 16.8477 25.8575 16.9765 25.7179C17.1052 25.5777 17.2211 25.4234 17.325 25.2576C17.3802 25.1672 17.4301 25.0756 17.4766 24.9805C17.5251 24.8841 17.5676 24.7844 17.6081 24.6826H17.6074V24.6839Z" fill="white"/>
<path d="M34.4368 28.4483V25.4062H36.5777V25.9199H35.0233V26.5967H36.4692V27.1103H35.0233V27.9354H36.6343V28.449H34.4368V28.4483ZM32.1066 26.6951H32.5393C32.8191 26.6951 32.993 26.6823 33.0638 26.6567C33.1339 26.6324 33.1891 26.5892 33.2269 26.5279C33.2673 26.4672 33.2869 26.3911 33.2869 26.2994C33.2869 26.1963 33.2613 26.114 33.2087 26.0513C33.1568 25.9886 33.084 25.9482 32.9889 25.932C32.9411 25.9239 32.7995 25.9206 32.5636 25.9206H32.1066V26.6951ZM31.5215 28.4483V25.4062H32.7517C33.0604 25.4062 33.2855 25.4339 33.4257 25.4885C33.5666 25.5431 33.6778 25.6402 33.7621 25.7804C33.8464 25.9206 33.8888 26.0796 33.8888 26.2583C33.8888 26.4888 33.8248 26.6755 33.6974 26.8252C33.5707 26.9735 33.3813 27.0665 33.1271 27.1056C33.2525 27.1824 33.357 27.268 33.4379 27.3611C33.5201 27.4527 33.63 27.6192 33.7688 27.8552L34.1221 28.4477H33.4237L33.0051 27.7844C32.8555 27.5478 32.7523 27.3995 32.6964 27.3381C32.6411 27.2768 32.5831 27.2337 32.5205 27.2114C32.4578 27.1892 32.3594 27.1777 32.2259 27.1777H32.1066V28.4483H31.5215Z" fill="white"/>
<path d="M26.6368 28.4495V25.9211H25.7794V25.4074H28.0739V25.9211H27.2226V28.4495H26.6368ZM29.2879 25.3886V25.9743C29.2111 26.0161 29.143 26.068 29.081 26.1408C28.934 26.3147 28.8592 26.5776 28.8592 26.9261C28.8592 27.2706 28.9361 27.5335 29.0871 27.7121C29.1484 27.7829 29.2158 27.8395 29.2886 27.8813L29.2893 28.4644C29.0325 28.4064 28.8134 28.281 28.6395 28.0909C28.3853 27.8139 28.2586 27.4337 28.2586 26.9477C28.2586 26.637 28.3031 26.3774 28.3901 26.1664C28.4561 26.0107 28.5458 25.8719 28.6583 25.7478C28.7736 25.6252 28.897 25.5335 29.0331 25.4728C29.114 25.4384 29.1983 25.4081 29.2879 25.3886ZM23.1377 27.464L23.708 27.4047C23.741 27.6056 23.8104 27.7525 23.9156 27.8456C24.0194 27.9406 24.1603 27.9871 24.3375 27.9871C24.5236 27.9871 24.6665 27.9453 24.7609 27.8617C24.8559 27.7782 24.9038 27.6797 24.9038 27.5692C24.9038 27.4964 24.8835 27.4351 24.8438 27.3845C24.804 27.3339 24.7339 27.2908 24.6341 27.2537C24.5654 27.2281 24.4117 27.1843 24.1697 27.1203C23.8583 27.0387 23.6392 26.9383 23.5125 26.8189C23.3352 26.6498 23.2482 26.4455 23.2482 26.2042C23.2482 26.0498 23.29 25.9036 23.3723 25.7674C23.4565 25.6326 23.5752 25.5308 23.7329 25.46C23.8886 25.3892 24.0787 25.3535 24.2998 25.3535C24.6624 25.3535 24.9341 25.4371 25.1168 25.6063C25.3001 25.7755 25.3965 26.0013 25.4053 26.2844L24.8202 26.3053C24.7939 26.1476 24.74 26.035 24.6591 25.9676C24.5782 25.8982 24.4555 25.8631 24.2924 25.8631C24.1245 25.8631 23.9924 25.9002 23.898 25.9743C23.8374 26.0208 23.805 26.0856 23.805 26.1644C23.805 26.2366 23.8347 26.2979 23.892 26.3491C23.9661 26.4138 24.1441 26.4826 24.4272 26.554C24.7117 26.6235 24.9206 26.6969 25.0554 26.7731C25.1916 26.8486 25.2981 26.9497 25.3749 27.0818C25.4511 27.2126 25.4895 27.3737 25.4895 27.5665C25.4895 27.7404 25.4437 27.9029 25.352 28.0559C25.2597 28.2075 25.1303 28.3215 24.9611 28.3956C24.7932 28.4698 24.5836 28.5068 24.3328 28.5068C23.9675 28.5068 23.6864 28.4178 23.4902 28.2399C23.2934 28.0613 23.1761 27.8044 23.1377 27.464Z" fill="white"/>
</g>
<defs>
<clipPath id="clip0_13567_66865">
<rect width="45" height="60" fill="white" transform="translate(0 0.5)"/>
</clipPath>
</defs>
</svg>
