<svg width="16" height="16" viewBox="0 0 16 16" fill="none" xmlns="http://www.w3.org/2000/svg">
<path d="M12.8052 4.68689C12.8673 4.74599 12.9165 4.81619 12.9501 4.89348C12.9838 4.97076 13.0011 5.05362 13.0011 5.13729C13.0011 5.22097 12.9838 5.30383 12.9501 5.38111C12.9165 5.4584 12.8673 5.5286 12.8052 5.58769L6.8052 11.3131C6.74327 11.3723 6.6697 11.4194 6.58871 11.4514C6.50772 11.4835 6.42089 11.5 6.3332 11.5C6.24551 11.5 6.15868 11.4835 6.07769 11.4514C5.99669 11.4194 5.92313 11.3723 5.8612 11.3131L3.19453 8.76848C3.06935 8.64902 2.99902 8.48701 2.99902 8.31808C2.99902 8.14915 3.06935 7.98713 3.19453 7.86768C3.31971 7.74823 3.4895 7.68112 3.66653 7.68112C3.84357 7.68112 4.01335 7.74823 4.13853 7.86768L6.3332 9.96318L11.8612 4.68689C11.9231 4.62765 11.9967 4.58065 12.0777 4.54858C12.1587 4.51651 12.2455 4.5 12.3332 4.5C12.4209 4.5 12.5077 4.51651 12.5887 4.54858C12.6697 4.58065 12.7433 4.62765 12.8052 4.68689Z" fill="#0E0E0E"/>
</svg>
