<svg width="16" height="16" viewBox="0 0 16 16" fill="none" xmlns="http://www.w3.org/2000/svg">
<path fill-rule="evenodd" clip-rule="evenodd" d="M7.99992 1.3335C11.6818 1.3335 14.6666 4.31826 14.6666 8.00016C14.6666 11.6821 11.6818 14.6668 7.99992 14.6668C4.31802 14.6668 1.33325 11.6821 1.33325 8.00016C1.33325 4.31826 4.31802 1.3335 7.99992 1.3335ZM7.11106 11.1113C7.11106 11.6022 7.50903 12.0002 7.99995 12.0002H8.00795C8.49887 12.0002 8.89684 11.6022 8.89684 11.1113C8.89684 10.6204 8.49887 10.2224 8.00795 10.2224H7.99995C7.50903 10.2224 7.11106 10.6204 7.11106 11.1113ZM8.66659 8.44461C8.66659 8.8128 8.36811 9.11127 7.99992 9.11127C7.63173 9.11127 7.33325 8.8128 7.33325 8.44461V4.88905C7.33325 4.52086 7.63173 4.22238 7.99992 4.22238C8.36811 4.22238 8.66659 4.52086 8.66659 4.88905V8.44461Z" fill="#D70015"/>
</svg>
