<svg width="4.232300" height="8.538467" viewBox="0 0 4.2323 8.53847" fill="none" xmlns="http://www.w3.org/2000/svg" xmlns:xlink="http://www.w3.org/1999/xlink">
	<desc>
			Created with Pixso.
	</desc>
	<defs/>
	<path id="Vector" d="M0.501587 1.61871C0.905396 0.872406 1.30933 0.5 2.11694 0.5C3.12341 0.5 3.7323 1.24556 3.7323 1.9911C3.7323 2.73666 3.32849 3.10905 2.11694 3.85536L2.11694 5.02307L0.501587 1.61871ZM2.11694 7.66154L2.11694 8.03847L2.11694 7.66154ZM0.933228 1.82956L0.941284 1.85666C0.808105 2.10292 0.509888 2.19171 0.263672 2.05846C0.017334 1.9252 -0.0714111 1.62701 0.0618896 1.38075L0.0889893 1.37268L0.933228 1.82956ZM2.59692 5.00308L2.61694 5.02307C2.61694 5.30307 2.39697 5.52307 2.11694 5.52307C1.83691 5.52307 1.61694 5.30307 1.61694 5.02307L1.63696 5.00308L2.59692 5.00308ZM1.63696 7.68153L1.61694 7.66154C1.61694 7.38153 1.83691 7.16154 2.11694 7.16154C2.39697 7.16154 2.61694 7.38153 2.61694 7.66154L2.59692 7.68153L1.63696 7.68153ZM2.59692 8.01846L2.61694 8.03847C2.61694 8.31847 2.39697 8.53847 2.11694 8.53847C1.83691 8.53847 1.61694 8.31847 1.61694 8.03847L1.63696 8.01846L2.59692 8.01846Z" fill="#999999" fill-opacity="1.000000" fill-rule="nonzero"/>
	<path id="Vector" d="M0.501587 1.61871C0.905396 0.872406 1.30933 0.5 2.11694 0.5C3.12341 0.5 3.7323 1.24556 3.7323 1.9911C3.7323 2.73666 3.32849 3.10905 2.11694 3.85536L2.11694 5.02307M2.11694 7.66154L2.11694 8.03847" stroke="#FFFFFF" stroke-opacity="1.000000" stroke-width="1.000000"/>
</svg>
