<svg width="18.000000" height="17.000000" viewBox="0 0 18 17" fill="none" xmlns="http://www.w3.org/2000/svg" xmlns:xlink="http://www.w3.org/1999/xlink">
	<desc>
			Created with Pixso.
	</desc>
	<defs/>
	<path id="Vector" d="M3.45355 16.853C3.78589 17.1094 4.20734 17.021 4.7099 16.6606L8.9975 13.5449L13.2933 16.6606C13.7957 17.021 14.2091 17.1094 14.5496 16.853C14.8819 16.6045 14.9548 16.1963 14.7522 15.6113L13.0582 10.6294L17.3863 7.55322C17.8889 7.20117 18.0915 6.83252 17.9618 6.43213C17.8322 6.04736 17.4512 5.85547 16.8271 5.86328L11.5182 5.89551L9.90527 0.88916C9.71075 0.296387 9.41895 0 8.9975 0C8.58417 0 8.29236 0.296387 8.09784 0.88916L6.48492 5.89551L1.17603 5.86328C0.551941 5.85547 0.170959 6.04736 0.0413208 6.43213C-0.0964966 6.83252 0.114258 7.20117 0.61676 7.55322L4.94495 10.6294L3.25098 15.6113C3.04834 16.1963 3.12128 16.6045 3.45355 16.853Z" fill="#0E0E0E" fill-opacity="1.000000" fill-rule="nonzero"/>
</svg>
