<svg width="24.000000" height="24.000000" viewBox="0 0 24 24" fill="none" xmlns="http://www.w3.org/2000/svg" xmlns:xlink="http://www.w3.org/1999/xlink">
	<desc>
			Created with Pixso.
	</desc>
	<defs/>
	<path id="Vector" d="M14.0714 15.0457C12.8333 16.0349 11.2633 16.5127 9.68394 16.3806C8.1046 16.2485 6.63579 15.5166 5.57916 14.3354C4.52254 13.1541 3.95833 11.613 4.0024 10.0286C4.04648 8.44434 4.6955 6.93701 5.81616 5.81616C6.93681 4.69556 8.44405 4.04639 10.0283 4.00244C11.6125 3.95825 13.1535 4.52246 14.3348 5.57935C15.516 6.63599 16.2478 8.10474 16.3799 9.68433C16.512 11.2637 16.0343 12.8337 15.045 14.072L19.7807 18.8071C19.8484 18.8701 19.9027 18.9463 19.9404 19.0308C19.978 19.1152 19.9983 19.2065 19.9999 19.2988C20.0015 19.3914 19.9845 19.4834 19.9499 19.5691C19.9152 19.6548 19.8636 19.7329 19.7982 19.7983C19.7328 19.8635 19.6549 19.9153 19.5691 19.95C19.4834 19.9846 19.3915 20.0015 19.299 20C19.2065 19.9983 19.1153 19.978 19.0308 19.9404C18.9463 19.9026 18.8702 19.8484 18.8071 19.7808L14.0714 15.0457ZM6.79237 13.6108C6.11823 12.9365 5.65909 12.0776 5.47296 11.1426C5.28685 10.2075 5.3821 9.23804 5.74667 8.35718C6.11127 7.47607 6.72882 6.7229 7.5213 6.19287C8.31377 5.6626 9.24561 5.37939 10.199 5.37866C11.1524 5.37817 12.0847 5.66016 12.8778 6.18921C13.671 6.71826 14.2896 7.47046 14.6554 8.35107C15.0211 9.23169 15.1177 10.2007 14.9328 11.1362C14.748 12.0715 14.29 12.9312 13.6168 13.6062L13.6122 13.6108L13.6076 13.6145C12.7029 14.5171 11.4771 15.0237 10.1992 15.0229C8.92136 15.0225 7.69601 14.5144 6.79237 13.6108Z" fill="#999999" fill-opacity="1.000000" fill-rule="evenodd"/>
</svg>
