<svg width="24" height="24" viewBox="0 0 24 24" fill="none" xmlns="http://www.w3.org/2000/svg">
<path d="M4.7125 3.44333C4.82986 3.3043 4.97555 3.19267 5.13954 3.11614C5.30354 3.03961 5.48195 2.99999 5.6625 3H18.3375C18.5181 2.99999 18.6965 3.03961 18.8605 3.11614C19.0245 3.19267 19.1701 3.3043 19.2875 3.44333L21.5487 7.29907C21.8399 7.64339 22 8.08188 22 8.53533V8.85833C22.0001 9.4853 21.8068 10.0966 21.4473 10.6069C21.0877 11.1171 20.5798 11.5008 19.9946 11.7042C19.4094 11.9077 18.776 11.9207 18.1831 11.7416C17.5901 11.5625 17.0673 11.2001 16.6875 10.7051C16.4102 11.0671 16.0548 11.36 15.6485 11.5613C15.2423 11.7626 14.796 11.8671 14.3438 11.8667C13.8915 11.8672 13.4452 11.7628 13.0389 11.5614C12.6326 11.3601 12.2773 11.0672 12 10.7051C11.7227 11.0672 11.3674 11.3601 10.9611 11.5614C10.5548 11.7628 10.1085 11.8672 9.65625 11.8667C9.20401 11.8672 8.75765 11.7628 8.3514 11.5614C7.94514 11.3601 7.58976 11.0672 7.3125 10.7051C6.93274 11.2001 6.40985 11.5625 5.81692 11.7416C5.22399 11.9207 4.59065 11.9077 4.00541 11.7042C3.42017 11.5008 2.91228 11.1171 2.55273 10.6069C2.19318 10.0966 1.99993 9.4853 2 8.85833V8.53533C2.00002 8.08188 2.16007 7.64339 2.45125 7.29907L4.71375 3.44207L4.7125 3.44333ZM7.9375 8.85833C7.9375 9.32025 8.11858 9.76325 8.44091 10.0899C8.76324 10.4165 9.20041 10.6 9.65625 10.6C10.1121 10.6 10.5493 10.4165 10.8716 10.0899C11.1939 9.76325 11.375 9.32025 11.375 8.85833C11.375 8.69036 11.4408 8.52927 11.5581 8.4105C11.6753 8.29173 11.8342 8.225 12 8.225C12.1658 8.225 12.3247 8.29173 12.4419 8.4105C12.5592 8.52927 12.625 8.69036 12.625 8.85833C12.625 9.32025 12.8061 9.76325 13.1284 10.0899C13.4507 10.4165 13.8879 10.6 14.3438 10.6C14.7996 10.6 15.2368 10.4165 15.5591 10.0899C15.8814 9.76325 16.0625 9.32025 16.0625 8.85833C16.0625 8.69036 16.1283 8.52927 16.2456 8.4105C16.3628 8.29173 16.5217 8.225 16.6875 8.225C16.8533 8.225 17.0122 8.29173 17.1294 8.4105C17.2467 8.52927 17.3125 8.69036 17.3125 8.85833C17.3125 9.32025 17.4936 9.76325 17.8159 10.0899C18.1382 10.4165 18.5754 10.6 19.0312 10.6C19.4871 10.6 19.9243 10.4165 20.2466 10.0899C20.5689 9.76325 20.75 9.32025 20.75 8.85833V8.53533C20.75 8.38438 20.6968 8.23839 20.6 8.12367L18.3375 4.26667H5.6625L3.4 8.12367C3.30318 8.23839 3.24999 8.38438 3.25 8.53533V8.85833C3.25 9.32025 3.43108 9.76325 3.75341 10.0899C4.07574 10.4165 4.51291 10.6 4.96875 10.6C5.42459 10.6 5.86176 10.4165 6.18409 10.0899C6.50642 9.76325 6.6875 9.32025 6.6875 8.85833C6.6875 8.69036 6.75335 8.52927 6.87056 8.4105C6.98777 8.29173 7.14674 8.225 7.3125 8.225C7.47826 8.225 7.63723 8.29173 7.75444 8.4105C7.87165 8.52927 7.9375 8.69036 7.9375 8.85833Z" fill="#0E0E0E"/>
<path d="M12.375 14C12.5408 14 12.6997 14.0667 12.8169 14.1855C12.9342 14.3043 13 14.4654 13 14.6333V20.7333H19.5V11.1333C19.5 10.9654 19.5658 10.8043 19.6831 10.6855C19.8003 10.5667 19.9592 10.5 20.125 10.5C20.2908 10.5 20.4497 10.5667 20.5669 10.6855C20.6842 10.8043 20.75 10.9654 20.75 11.1333V20.7333C20.75 21.4329 20.1829 22 19.4833 22H13.0167C12.3171 22 11.75 21.4329 11.75 20.7333V14.6333C11.75 14.4654 11.8158 14.3043 11.9331 14.1855C12.0503 14.0667 12.2092 14 12.375 14Z" fill="#0E0E0E"/>
<path d="M7.375 14C7.20924 14 7.05027 14.0667 6.93306 14.1855C6.81585 14.3043 6.75 14.4654 6.75 14.6333V20.7333H4.25V11.1333C4.25 10.9654 4.18415 10.8043 4.06694 10.6855C3.94973 10.5667 3.79076 10.5 3.625 10.5C3.45924 10.5 3.30027 10.5667 3.18306 10.6855C3.06585 10.8043 3 10.9654 3 11.1333V20.7333C3 21.4329 3.56711 22 4.26667 22H6.73333C7.43289 22 8 21.4329 8 20.7333V14.6333C8 14.4654 7.93415 14.3043 7.81694 14.1855C7.69973 14.0667 7.54076 14 7.375 14Z" fill="#0E0E0E"/>
<path d="M6.75 14.7C6.75 14.3134 7.0634 14 7.45 14H12.3C12.6866 14 13 14.3134 13 14.7V15H6.75V14.7Z" fill="#0E0E0E"/>
</svg>
