<svg width="16" height="16" viewBox="0 0 16 16" fill="none" xmlns="http://www.w3.org/2000/svg">
<path opacity="0.35" d="M8.26928 1.42504C8.15818 1.20412 7.84252 1.20494 7.73256 1.42643L5.89614 5.12554C5.85224 5.21396 5.76765 5.27513 5.66992 5.28911L1.49623 5.88636C1.24909 5.92173 1.15076 6.22589 1.33044 6.39924L4.3503 9.31274C4.42225 9.38215 4.45489 9.48284 4.43736 9.58126L3.71802 13.6184C3.67424 13.8642 3.93216 14.0528 4.15305 13.9366L7.85987 11.9864C7.9473 11.9404 8.05176 11.9404 8.1392 11.9864L11.8478 13.9371C12.0686 14.0532 12.3263 13.8649 12.2829 13.6193L11.5686 9.58089C11.5513 9.48267 11.5839 9.38224 11.6556 9.31293L14.6709 6.39873C14.8503 6.22539 14.752 5.9216 14.5052 5.88607L10.3563 5.28907C10.2592 5.2751 10.1751 5.21455 10.131 5.12692L8.26928 1.42504Z" fill="#0E0E0E" stroke="#0E0E0E" stroke-width="1.3" stroke-linejoin="round"/>
</svg>
