<svg viewBox="0 0 40 40" fill="none" xmlns="http://www.w3.org/2000/svg"><path d="M11.216 15.722c.439.952 1.037 1.813 1.89 2.45 1.014.755 2.483 1.15 3.74.916.445-.083.84-.479.962-.913.428-1.532-1.58-2.428-2.72-2.763-.415-.122-1.282-.37-1.726-.117-.018.01-.048.075-.088.044-.245-.194-.465-.57-.655-.803-.236-.291-.37-.45-.61-.717-.003-.005-.188-.18-.204-.249-.059-.265.534-.592.7-.662.489-.208 1.045-.245 1.569-.245.847 0 1.739.052 2.564.256.972.24 1.563 1.287 2.163 2.007.257.308.764 1.1 1.26 1.048.143-.015.263-.188.342-.277.392-.438.814-.76 1.31-1.08a19.28 19.28 0 012.184-1.231c.576-.272 1.175-.525 1.823-.517.598.008 1.241.095 1.805.302.305.112.483.372.61.66.377.855.399 1.813.722 2.68.04.104.09.192.15.284.184.283.204.737.24 1.059a3.65 3.65 0 01-.016.998c.059-.355.118-.71.156-1.067.062-.596.084-1.19-.044-1.778 0-.002-.096-.377-.128-.42-.01-.014-.037.014-.042.031-.07.258-.059.532-.086.798-.11 1.085-.23 2.18-.487 3.243-.136.56-.373.99-.706 1.45-.56.775-1.175 1.431-1.878 2.08-.904.833-1.909 1.602-2.702 2.55-.328.392-.638.92-1.096 1.178-.534.301-1.193.252-1.784.287-.166.01-.34.03-.503-.02-.024-.007-.242-.132-.203-.044.047.105.358.362.358.429 0 .038.01.047-.027-.013-.34-.53-.758-1.002-1.145-1.497-.306-.39-.571-.814-.942-1.15-.803-.728-1.762-1.272-2.593-1.969-.971-.814-1.698-1.934-2.382-2.987-.36-.556-.711-1.125-1.1-1.661a1.995 1.995 0 00-.174-.216c-.057-.057.024.163.055.238.467 1.127 1.02 2.227 1.591 3.303.368.692.86 1.573 1.282 2.241.417.664.87 1.343 1.447 1.882a2.622 2.622 0 001.732.684c.371.007.852-.056 1.132-.328.23-.223.348-.593.39-.894.132-.949-.068-1.927-.259-2.85-.086-.416-.326-1.2-.281-1.677.072-.764.855-1.304 1.412-1.708.846-.613 1.787-1.056 2.694-1.564.257-.143.49-.406.705-.593.525-.459 1.048-.927 1.588-1.369.117-.096.183.247.233.39.06.17.325.972.344 1.11.136 1.015-.44 1.789-1.037 2.546-.588.744-1.009 1.142-1.648 1.809-.26.271-.58.568-.783.9a1.936 1.936 0 00-.256.962c.006.176-.372.288-.5.186" stroke="#0E0E0E" stroke-width="4.125" stroke-linecap="round"/><path d="M7.625 16.238c0 5.104 4.449 10.125 11.478 14.439.261.155.635.323.897.323s.636-.168.91-.323c7.016-4.314 11.465-9.335 11.465-14.44 0-4.241-3.028-7.237-7.066-7.237-2.306 0-4.175 1.055-5.309 2.672C18.89 10.066 16.997 9 14.691 9c-4.038 0-7.066 2.996-7.066 7.238zm2.006 0c0-3.188 2.144-5.309 5.035-5.309 2.343 0 3.689 1.402 4.486 2.6.337.48.549.611.848.611.3 0 .486-.143.848-.61.86-1.175 2.155-2.6 4.486-2.6 2.891 0 5.035 2.12 5.035 5.308 0 4.457-4.898 9.262-10.107 12.593-.125.084-.212.144-.262.144-.05 0-.137-.06-.25-.144C14.53 25.5 9.632 20.695 9.632 16.238z" fill="#0E0E0E"/></svg>