<svg width="40" height="40" fill="none" xmlns="http://www.w3.org/2000/svg"><defs><radialGradient id="a" cx="0" cy="0" r="1" gradientUnits="userSpaceOnUse" gradientTransform="matrix(45.7286 0 0 45.2767 30.102 10.406)"><stop stop-color="#F9ED32"/><stop offset=".36" stop-color="#EE2A7B"/><stop offset=".44" stop-color="#D22A8A"/><stop offset=".6" stop-color="#8B2AB2"/><stop offset=".83" stop-color="#1B2AF0"/><stop offset=".88" stop-color="#002AFF"/></radialGradient></defs><path d="M0 0h40v40H0z"/><path d="M19.8 16.665c-1.819 0-3.302 1.499-3.302 3.335 0 1.836 1.483 3.334 3.302 3.334 1.818 0 3.302-1.498 3.302-3.334s-1.484-3.335-3.302-3.335zM29.702 20c0-1.381.013-2.75-.064-4.128-.077-1.601-.439-3.022-1.598-4.193-1.162-1.173-2.566-1.536-4.15-1.613-1.368-.078-2.723-.065-4.088-.065-1.367 0-2.722-.013-4.087.065-1.585.077-2.992.442-4.151 1.613-1.162 1.174-1.52 2.592-1.598 4.193-.076 1.381-.064 2.75-.064 4.128 0 1.378-.012 2.75.064 4.128.078 1.6.439 3.021 1.598 4.192 1.162 1.174 2.566 1.536 4.151 1.614 1.367.077 2.723.065 4.087.065 1.367 0 2.722.012 4.087-.065 1.585-.078 2.992-.443 4.151-1.614 1.162-1.173 1.521-2.591 1.598-4.192.08-1.379.064-2.747.064-4.128zM19.8 25.13c-2.812 0-5.08-2.29-5.08-5.13s2.268-5.131 5.08-5.131c2.81 0 5.08 2.291 5.08 5.13 0 2.84-2.27 5.132-5.08 5.132zm5.288-9.273A1.191 1.191 0 0123.9 14.66c0-.663.53-1.198 1.187-1.198a1.19 1.19 0 011.186 1.198 1.196 1.196 0 01-.732 1.107 1.18 1.18 0 01-.454.091z" fill="#FFF" fill-rule="evenodd"/><path d="M19.8 16.665c-1.819 0-3.302 1.499-3.302 3.335 0 1.836 1.483 3.334 3.302 3.334 1.818 0 3.302-1.498 3.302-3.334s-1.484-3.335-3.302-3.335zM29.702 20c0-1.381.013-2.75-.064-4.128-.077-1.601-.439-3.022-1.598-4.193-1.162-1.173-2.566-1.536-4.15-1.613-1.368-.078-2.723-.065-4.088-.065-1.367 0-2.722-.013-4.087.065-1.585.077-2.992.442-4.151 1.613-1.162 1.174-1.52 2.592-1.598 4.193-.076 1.381-.064 2.75-.064 4.128 0 1.378-.012 2.75.064 4.128.078 1.6.439 3.021 1.598 4.192 1.162 1.174 2.566 1.536 4.151 1.614 1.367.077 2.723.065 4.087.065 1.367 0 2.722.012 4.087-.065 1.585-.078 2.992-.443 4.151-1.614 1.162-1.173 1.521-2.591 1.598-4.192.08-1.379.064-2.747.064-4.128zM19.8 25.13c-2.812 0-5.08-2.29-5.08-5.13s2.268-5.131 5.08-5.131c2.81 0 5.08 2.291 5.08 5.13 0 2.84-2.27 5.132-5.08 5.132zm5.288-9.273A1.191 1.191 0 0123.9 14.66c0-.663.53-1.198 1.187-1.198a1.19 1.19 0 011.186 1.198 1.196 1.196 0 01-.732 1.107 1.18 1.18 0 01-.454.091z" fill="url(#a)" fill-rule="evenodd"/></svg>