<svg viewBox="0 0 100 45" fill="none" xmlns="http://www.w3.org/2000/svg"><path d="M73.42 42.208l-.005-6.99c.42-.271.912-.375 1.47-.375.857 0 1.542.314 2.057.944.52.632.78 1.588.78 2.876 0 1.297-.265 2.272-.795 2.92-.531.65-1.212.973-2.041.973-.551 0-1.04-.064-1.466-.348zm6.227-1.522v3.6H76.44c.807-.238 1.5-.68 2.066-1.323.544-.62.922-1.376 1.141-2.277zm-6.235-23.612L61.558 31.938 49.693 17.133l.017 27.152h-6.227L43.46.614h1.13l16.994 22.082L78.43.614h1.195l.02 36.112c-.215-.91-.598-1.67-1.147-2.285-.912-1.028-2.117-1.542-3.632-1.542a5.88 5.88 0 00-1.451.173l-.003-15.998zM31.147 30.493l6.21.04h.008v.004c-.1.413-.215.828-.344 1.236-.12.407-.258.812-.407 1.208a17.72 17.72 0 01-1.03 2.265 16.07 16.07 0 01-1.278 2.023 20.88 20.88 0 01-1.446 1.76 17.478 17.478 0 01-1.637 1.558 14.32 14.32 0 01-1.644 1.193 13.33 13.33 0 01-1.742.917 17.81 17.81 0 01-1.915.706c-.65.205-1.314.37-1.985.502-.695.136-1.393.237-2.095.301-.722.064-1.454.089-2.183.089a20.45 20.45 0 01-3.718-.383 18.61 18.61 0 01-1.807-.457 17.826 17.826 0 01-1.776-.63 21.49 21.49 0 01-1.713-.79c-.558-.29-1.1-.61-1.631-.95a21.623 21.623 0 01-1.54-1.098 20.2 20.2 0 01-1.453-1.258 15.242 15.242 0 01-1.288-1.38 17.893 17.893 0 01-1.152-1.57 20.349 20.349 0 01-1.06-1.872A23.319 23.319 0 01.913 29.73C.703 28.96.53 28.188.4 27.41a26.423 26.423 0 01-.305-2.478 31.433 31.433 0 01.032-5.272c.077-.85.187-1.694.336-2.53a25.94 25.94 0 01.546-2.344 23.381 23.381 0 011.657-4.192c.331-.642.695-1.267 1.088-1.87.365-.544.75-1.067 1.173-1.559.402-.484.841-.939 1.3-1.364A20.94 20.94 0 019.243 3.5a20.066 20.066 0 011.632-.914 17.6 17.6 0 011.702-.749c.586-.23 1.178-.427 1.776-.592A17.7 17.7 0 0116.17.827c.62-.114 1.242-.195 1.864-.25A22.49 22.49 0 0119.94.5c.698.007 1.4.047 2.096.119a20.449 20.449 0 014.01.832c.641.2 1.27.435 1.895.707a14.631 14.631 0 013.374 2.082c.57.467 1.112.98 1.622 1.517.51.543.99 1.122 1.436 1.717.471.613.89 1.27 1.266 1.947.379.684.715 1.398.996 2.141a19.738 19.738 0 01.659 2.055l.007.006h-.013l-6.3-.047h-.005a12.489 12.489 0 00-1.588-2.673 10.75 10.75 0 00-2.108-2.048 10.9 10.9 0 00-3.534-1.7c-1.244-.353-2.55-.509-3.857-.514a13.691 13.691 0 00-2.824.255 11.867 11.867 0 00-4.891 2.201 12.827 12.827 0 00-2.022 1.95c-1.249 1.491-2.134 3.173-2.722 4.967-.642 1.984-.925 4.108-.94 6.285-.011 2.055.271 4.019.864 5.862a16.453 16.453 0 002.65 5.015 13.547 13.547 0 001.997 2.09c.702.59 1.473 1.099 2.3 1.512.832.412 1.688.714 2.569.914.924.212 1.868.313 2.824.318.703.005 1.405-.034 2.108-.128a12.472 12.472 0 001.959-.42 11.7 11.7 0 003.563-1.789c.559-.412 1.066-.88 1.532-1.39a11.48 11.48 0 001.261-1.688 13.657 13.657 0 001.024-2.107h-.002v.005zM92.048 44.29V33.141h7.747v1.883H94.17v2.48h5.232v1.882H94.17v3.024H100v1.882h-7.952v-.002zm-8.433-6.425h1.566c1.013 0 1.642-.047 1.898-.141.254-.09.454-.247.59-.472.147-.223.217-.502.217-.838 0-.378-.092-.679-.282-.909-.188-.23-.452-.378-.796-.437-.173-.03-.685-.042-1.539-.042h-1.654v2.838zm-2.117 6.425V33.141h4.452c1.117 0 1.932.101 2.439.302.51.2.912.555 1.217 1.07.305.513.459 1.096.459 1.75 0 .846-.232 1.53-.693 2.078-.459.544-1.144.885-2.064 1.028.454.282.832.595 1.125.936.297.336.695.946 1.197 1.811l1.279 2.172h-2.527l-1.515-2.431c-.542-.867-.915-1.411-1.117-1.636-.2-.225-.41-.383-.637-.464-.227-.082-.583-.124-1.066-.124h-.432v4.657h-2.117z" fill="currentColor"/><path d="M63.821 44.29v-9.267h-3.103v-1.882h8.304v1.883H65.94v9.266h-2.12zm9.594-11.218v2.147a2.572 2.572 0 00-.75.61c-.531.637-.802 1.6-.802 2.878 0 1.262.278 2.226.825 2.88.222.26.466.467.73.62l.001 2.137a4.44 4.44 0 01-2.35-1.368c-.92-1.016-1.38-2.409-1.38-4.19 0-1.139.162-2.09.477-2.863a5.42 5.42 0 01.97-1.534c.418-.45.864-.786 1.357-1.008.292-.126.597-.237.922-.31zm-22.256 7.606l2.063-.217c.12.736.371 1.275.752 1.616.376.348.885.518 1.527.518.673 0 1.19-.153 1.532-.46.344-.305.517-.666.517-1.071a1.07 1.07 0 00-.217-.677c-.144-.185-.398-.344-.759-.48-.249-.093-.805-.254-1.68-.489-1.127-.299-1.92-.667-2.379-1.104a3.008 3.008 0 01-.956-2.253c0-.566.151-1.102.449-1.6a2.884 2.884 0 011.305-1.127c.563-.26 1.251-.39 2.051-.39 1.313 0 2.296.306 2.957.926.663.62 1.012 1.448 1.044 2.485l-2.118.077c-.095-.578-.29-.991-.583-1.238-.292-.254-.736-.383-1.327-.383-.607 0-1.085.136-1.427.408a.847.847 0 00-.336.696c0 .265.107.49.315.677.268.237.912.49 1.936.751 1.03.255 1.786.524 2.274.803a2.98 2.98 0 011.156 1.132c.275.479.414 1.07.414 1.776 0 .637-.165 1.232-.497 1.793a3.056 3.056 0 01-1.415 1.245c-.607.272-1.366.408-2.273.408-1.322 0-2.34-.326-3.05-.978-.712-.655-1.136-1.596-1.275-2.844z" fill="currentColor"/></svg>