<svg width="24" height="24" fill="none" xmlns="http://www.w3.org/2000/svg"><path d="M19 6.667h-2.47m0 0H7.47m9.06 0h-.09c-.679-.02-1.277-.485-1.508-1.173a5.238 5.238 0 01-.029-.092l-.08-.26a3.285 3.285 0 00-.147-.424 1.245 1.245 0 00-.9-.701C13.677 4 13.57 4 13.354 4h-2.71c-.215 0-.323 0-.42.017-.386.066-.72.326-.9.7-.046.094-.08.205-.148.426l-.08.259-.03.092c-.23.688-.828 1.154-1.506 1.172h-.09m0 0H5M6.556 9.6l.667 8.923c.062.833.738 1.477 1.55 1.477h6.453c.813 0 1.489-.644 1.551-1.477l.667-8.923" stroke="currentColor" stroke-width="1.5" stroke-linecap="round" stroke-linejoin="round"/></svg>