<svg viewBox="0 0 24 24" fill="none" xmlns="http://www.w3.org/2000/svg"><path d="M8.35 12c0 .953-.792 1.75-1.8 1.75v1.5c1.808 0 3.3-1.441 3.3-3.25h-1.5zm-1.8 1.75c-1.008 0-1.8-.797-1.8-1.75h-1.5c0 1.809 1.492 3.25 3.3 3.25v-1.5zM4.75 12c0-.953.792-1.75 1.8-1.75v-1.5c-1.808 0-3.3 1.441-3.3 3.25h1.5zm1.8-1.75c1.008 0 1.8.797 1.8 1.75h1.5c0-1.809-1.492-3.25-3.3-3.25v1.5zm2.161.59l6.082-3.726-.784-1.28L7.928 9.56l.783 1.28zm9.839 7.66c0 .953-.792 1.75-1.8 1.75v1.5c1.808 0 3.3-1.441 3.3-3.25h-1.5zm-1.8 1.75c-1.008 0-1.8-.797-1.8-1.75h-1.5c0 1.809 1.492 3.25 3.3 3.25v-1.5zm-1.8-1.75c0-.953.792-1.75 1.8-1.75v-1.5c-1.809 0-3.3 1.441-3.3 3.25h1.5zm1.8-1.75c1.008 0 1.8.797 1.8 1.75h1.5c0-1.809-1.492-3.25-3.3-3.25v1.5zm1.8-11.25c0 .953-.792 1.75-1.8 1.75v1.5c1.808 0 3.3-1.441 3.3-3.25h-1.5zm-1.8 1.75c-1.008 0-1.8-.797-1.8-1.75h-1.5c0 1.809 1.492 3.25 3.3 3.25v-1.5zm-1.8-1.75c0-.953.792-1.75 1.8-1.75v-1.5c-1.809 0-3.3 1.441-3.3 3.25h1.5zm1.8-1.75c1.008 0 1.8.797 1.8 1.75h1.5c0-1.809-1.492-3.25-3.3-3.25v1.5zM7.928 14.44l6.081 3.725.784-1.279-6.082-3.725-.783 1.279z" fill="currentColor"/></svg>