<svg viewBox="0 0 51 31" fill="none" xmlns="http://www.w3.org/2000/svg"><path d="M15.857.092c1.74-.1 3.478-.092 5.218-.092h8.817c1.774 0 3.512-.008 5.251.092 1.581.09 3.121.282 4.654.711 3.227.902 6.045 2.786 8.082 5.457a15.236 15.236 0 010 18.48c-2.037 2.67-4.855 4.555-8.082 5.457-1.533.43-3.073.62-4.654.711-1.739.1-3.477.091-5.217.091L21.107 31c-1.772 0-3.51.008-5.25-.092-1.58-.09-3.12-.282-4.653-.71-3.227-.903-6.045-2.788-8.082-5.458a15.234 15.234 0 010-18.48C5.159 3.59 7.977 1.705 11.204.803c1.533-.429 3.073-.62 4.653-.71z" fill="currentColor" fill-rule="evenodd"/></svg>