<svg width="19" height="20" fill="none" xmlns="http://www.w3.org/2000/svg"><path d="M19 9.756c0 5.11-4.176 9.255-9.328 9.255a9.356 9.356 0 01-4.508-1.151L0 19.5l1.683-4.967A9.161 9.161 0 01.346 9.755C.346 4.644 4.52.5 9.673.5 14.825.501 19 4.644 19 9.756zm-9.329-7.78c-4.324 0-7.84 3.49-7.84 7.781 0 1.703.554 3.28 1.493 4.562l-.979 2.889 3.012-.958a7.84 7.84 0 004.314 1.287c4.324 0 7.843-3.49 7.843-7.781 0-4.29-3.518-7.78-7.843-7.78zm4.711 9.912c-.058-.094-.21-.151-.438-.265-.228-.114-1.353-.662-1.562-.737-.21-.076-.363-.114-.516.113-.15.227-.589.738-.723.89-.133.152-.267.171-.495.06-.229-.116-.966-.354-1.84-1.127-.68-.602-1.138-1.343-1.271-1.57-.135-.227-.014-.35.1-.463.102-.102.228-.265.343-.398.115-.132.152-.226.229-.378.075-.151.037-.283-.02-.398-.057-.114-.513-1.23-.705-1.683-.19-.454-.38-.379-.514-.379-.133 0-.286-.018-.438-.018-.152 0-.4.055-.609.282-.209.227-.8.776-.8 1.892 0 1.118.819 2.195.933 2.347.115.15 1.583 2.516 3.907 3.424 2.325.908 2.325.605 2.744.567.42-.039 1.353-.549 1.542-1.078.191-.531.191-.987.133-1.082z" fill="currentColor"/></svg>